<svg width="291" height="220" viewBox="0 0 291 220" fill="none" xmlns="http://www.w3.org/2000/svg">
<rect y="97.5742" width="259.815" height="131.537" transform="rotate(-22.0585 0 97.5742)" fill="white"/>
<path d="M62.245 167.169L66.2997 165.743L58.8767 124.887L93.7197 112.638L107.319 151.323L110.903 150.063L116.95 171.937L106.53 175.6L102.642 164.54L77.7474 173.292L81.6354 184.352L71.2626 187.998L62.245 167.169ZM77.9927 161.633L95.3434 155.533L85.3649 127.148L72.3518 131.723L77.9927 161.633Z" fill="black"/>
<path d="M127.909 153.684C125.824 152.675 124.375 151.016 123.563 148.706C122.74 146.364 122.826 144.147 123.821 142.055C124.805 139.932 126.46 138.461 128.786 137.643C131.112 136.826 133.323 136.937 135.42 137.978C137.505 138.987 138.959 140.662 139.782 143.004C140.595 145.314 140.503 147.515 139.508 149.607C138.513 151.699 136.852 153.154 134.526 153.972C132.2 154.789 129.995 154.694 127.909 153.684Z" fill="black"/>
<path d="M141.554 102.382L136.898 89.1391L152.596 70.501L157.924 68.628L181.852 136.694L169.688 140.971L151.783 90.0396L141.554 102.382Z" fill="black"/>
<path d="M187.628 113.491L198.723 107.831C202.651 113.881 207.459 115.906 213.149 113.906C216.292 112.801 218.492 110.872 219.749 108.119C221.027 105.323 221.059 102.201 219.847 98.7514C218.501 94.9225 216.476 92.3277 213.773 90.967C211.09 89.5636 208.176 89.4143 205.033 90.5193C202.959 91.2486 201.167 92.4297 199.657 94.0627L192.462 88.9656L199.001 66.8805L177.454 74.4552L173.483 63.1583L212.239 49.5337L213.757 53.8531L205.43 81.1C206.549 80.5646 207.422 80.1864 208.051 79.9654C213.206 78.1532 217.948 78.5837 222.279 81.2569C226.609 83.9301 229.831 88.2729 231.944 94.2853C234.381 101.215 234.174 107.51 231.325 113.169C228.476 118.828 223.736 122.824 217.103 125.155C210.911 127.332 205.101 127.33 199.672 125.15C194.233 122.938 190.218 119.052 187.628 113.491Z" fill="black"/>
</svg>
