<svg width="640" height="310" viewBox="0 0 640 310" fill="none" xmlns="http://www.w3.org/2000/svg">
<rect y="178.892" width="626.254" height="136.318" transform="rotate(-16.5979 0 178.892)" fill="white"/>
<path d="M42.2284 237.329L39.797 229.273L63.5858 198.758L67.3776 211.322L53.1483 229.639L75.1348 237.026L78.941 249.638L42.2284 237.329ZM71.6119 228.462L69.1805 220.405L92.9215 189.905L96.7133 202.469L82.484 220.785L104.47 228.173L108.277 240.785L71.6119 228.462Z" fill="black"/>
<path d="M108.189 198.692L104.151 185.312L120.657 167.459L126.056 165.83L146.81 234.597L134.483 238.317L118.954 186.862L108.189 198.692Z" fill="black"/>
<path d="M153.63 211.767L164.953 206.623C168.594 212.814 173.298 215.04 179.063 213.3C182.248 212.339 184.53 210.516 185.91 207.833C187.312 205.108 187.487 202.003 186.435 198.518C185.268 194.65 183.367 191.979 180.733 190.507C178.121 188.993 175.223 188.716 172.038 189.678C169.936 190.312 168.094 191.408 166.514 192.967L159.571 187.58L167.102 165.895L145.268 172.485L141.823 161.072L181.097 149.219L182.414 153.583L172.864 180.324C174.004 179.841 174.893 179.503 175.53 179.31C180.753 177.734 185.463 178.37 189.66 181.22C193.856 184.07 196.871 188.532 198.704 194.606C200.817 201.607 200.323 207.861 197.224 213.366C194.124 218.871 189.213 222.637 182.493 224.665C176.218 226.559 170.423 226.302 165.109 223.895C159.786 221.455 155.959 217.412 153.63 211.767Z" fill="black"/>
<path d="M219.337 212.709L204.401 163.22L244.822 151.021L259.757 200.51L247.621 204.173L235.826 165.09L219.677 169.963L231.472 209.047L219.337 212.709Z" fill="black"/>
<path d="M279.184 216.518L258.199 146.984L270.335 143.321L271.869 148.405C272.231 146.726 273.307 144.936 275.097 143.035C276.918 141.125 279.23 139.747 282.033 138.901C289.264 136.719 295.522 137.36 300.806 140.822C306.082 144.253 309.897 149.869 312.251 157.67C314.605 165.47 314.534 172.259 312.037 178.035C309.541 183.812 304.677 187.791 297.447 189.973C295.026 190.704 292.546 190.894 290.008 190.544C287.492 190.152 285.459 189.405 283.91 188.303L291.32 212.856L279.184 216.518ZM276.5 156.32C275.189 159.576 275.257 163.602 276.704 168.398C278.141 173.161 280.312 176.552 283.215 178.571C286.15 180.581 289.273 181.086 292.586 180.086C295.931 179.077 298.265 176.907 299.588 173.578C300.944 170.239 300.912 166.219 299.494 161.52C298.066 156.788 295.869 153.422 292.902 151.423C289.957 149.381 286.813 148.865 283.468 149.875C280.156 150.874 277.833 153.023 276.5 156.32Z" fill="black"/>
<path d="M330.946 179.026L316.011 129.537L328.146 125.874L337.365 156.421L345.06 120.77L358.294 116.776L373.23 166.265L361.094 169.928L351.875 139.38L344.133 175.046L330.946 179.026Z" fill="black"/>
<path d="M386.56 162.242L371.624 112.753L384.333 108.917L404.11 134.028L406.646 102.184L419.355 98.3482L434.29 147.838L422.155 151.5L414.687 126.755L413.293 149.256L404.836 151.808L391.228 133.835L398.696 158.58L386.56 162.242Z" fill="black"/>
<path d="M441.425 128.47C439.656 125.83 438.308 122.975 437.381 119.906C436.455 116.837 435.999 113.713 436.013 110.535C436.049 107.315 436.582 104.189 437.614 101.157C438.667 98.0835 440.539 95.3036 443.229 92.8174C445.941 90.2896 449.32 88.4153 453.365 87.1945C457.283 86.0121 461.003 85.7268 464.524 86.3385C468.035 86.9183 471.038 88.1747 473.533 90.1076C476.05 91.999 478.158 94.2057 479.857 96.7275C481.588 99.2397 482.879 101.903 483.728 104.716L485.247 109.751L451.277 120.003C452.311 122.97 454.186 125.264 456.899 126.887C459.636 128.468 462.771 128.725 466.307 127.658C471.34 126.139 474.554 122.396 475.95 116.429L486.83 117.069C485.562 127.952 479.545 135.017 468.779 138.266C464.733 139.487 460.887 139.811 457.238 139.238C453.622 138.655 450.525 137.374 447.947 135.397C445.401 133.409 443.227 131.101 441.425 128.47ZM448.655 110.278L469.916 103.861C466.646 97.9764 462.18 95.9056 456.52 97.6486C453.654 98.5138 451.54 100.146 450.179 102.545C448.817 104.944 448.31 107.522 448.655 110.278Z" fill="black"/>
<path d="M485.849 89.6347L482.708 79.2285L521.265 67.5923L524.406 77.9985L511.219 81.9782L523.014 121.061L510.878 124.724L499.083 85.6406L485.849 89.6347Z" fill="black"/>
<path d="M542.627 109.701L538.82 97.0887L553.05 78.772L531.063 71.3849L527.271 58.8207L563.97 71.0813L566.401 79.1377L542.627 109.701ZM572.01 100.833L568.204 88.2209L582.433 69.9042L560.447 62.5172L556.655 49.953L593.353 62.2136L595.785 70.27L572.01 100.833Z" fill="black"/>
</svg>
