<svg width="329" height="389" viewBox="0 0 329 389" fill="none" xmlns="http://www.w3.org/2000/svg">
<path d="M0 46.3026L270.435 5.3223e-05L329 342.057L58.5653 388.359L0 46.3026Z" fill="white"/>
<path d="M98.5969 293.21C75.6417 275.873 61.3991 251.363 55.8691 219.677C50.3152 187.855 55.4129 159.969 71.1622 136.019C87.0248 111.907 111.484 96.9669 144.541 91.1975C177.735 85.4041 205.81 91.1757 228.765 108.512C251.833 125.687 266.144 150.186 271.698 182.009C277.228 213.694 272.062 241.592 256.2 265.703C240.45 289.654 215.979 304.525 182.785 310.319C149.728 316.088 121.665 310.385 98.5969 293.21ZM116.957 161.524C109.534 175.682 107.414 191.883 110.598 210.126C113.782 228.369 121.264 242.893 133.044 253.699C144.824 264.506 158.807 268.496 174.992 265.671C191.315 262.823 203.119 254.331 210.405 240.198C217.828 226.04 219.948 209.839 216.764 191.596C213.58 173.353 206.098 158.829 194.318 148.023C182.675 137.192 168.692 133.202 152.369 136.05C136.184 138.875 124.38 147.367 116.957 161.524Z" fill="black"/>
</svg>
