<svg width="819" height="409" viewBox="0 0 819 409" fill="none" xmlns="http://www.w3.org/2000/svg">
<path d="M51.5767 0.450684L818.843 252.089L767.469 408.731L0.203174 157.093L51.5767 0.450684Z" fill="white"/>
<path d="M130.121 103.319L144.766 58.4291L166.118 65.3949L153.996 102.551C150.851 112.19 153.426 118.363 161.72 121.069C168.726 123.354 176.507 120.126 185.063 111.384L196.801 75.4049L218.153 82.3708L189.851 169.124L168.499 162.158L176.754 136.855C171.567 139.07 166.839 140.256 162.571 140.413C158.359 140.589 153.563 139.8 148.183 138.045C140.169 135.43 134.465 131.058 131.07 124.928C127.75 118.76 127.433 111.557 130.121 103.319Z" fill="black"/>
<path d="M222.411 149.146C222.506 143.534 223.431 138.039 225.186 132.658C226.941 127.278 229.435 122.294 232.668 117.707C235.975 113.081 239.911 109.094 244.476 105.747C249.114 102.362 254.647 100.229 261.072 99.349C267.573 98.4313 274.381 99.1334 281.499 101.455C288.392 103.704 294.09 107.051 298.592 111.496C303.113 115.886 306.211 120.741 307.885 126.061C309.634 131.344 310.47 136.671 310.392 142.04C310.371 147.428 309.555 152.587 307.947 157.519L305.067 166.346L245.298 146.847C243.803 152.188 244.21 157.405 246.517 162.498C248.898 167.553 253.199 171.096 259.419 173.125C268.274 176.014 276.733 173.844 284.796 166.615L299.972 178.542C287.127 193.016 271.234 197.163 252.291 190.983C245.174 188.661 239.252 185.241 234.525 180.722C229.855 176.222 226.644 171.238 224.894 165.768C223.2 160.317 222.373 154.776 222.411 149.146ZM251.315 130.114L288.723 142.318C289.915 130.492 285.514 122.979 275.52 119.781C270.476 118.136 265.752 118.362 261.347 120.459C256.943 122.556 253.598 125.775 251.315 130.114Z" fill="black"/>
<path d="M300.952 244.248L340.717 122.356L362.07 129.322L359.162 138.232C361.386 136.168 364.76 134.664 369.284 133.722C373.864 132.798 378.62 133.14 383.552 134.749C396.273 138.899 404.727 146.153 408.913 156.509C413.118 166.81 412.989 178.797 408.528 192.472C404.067 206.146 397.102 215.903 387.632 221.742C378.162 227.582 367.066 228.427 354.344 224.276C350.085 222.887 346.287 220.655 342.949 217.582C339.685 214.471 337.484 211.335 336.345 208.173L322.304 251.214L300.952 244.248ZM357.896 154.375C352.698 157.764 348.727 163.661 345.985 172.068C343.261 180.418 342.989 187.522 345.171 193.38C347.408 199.257 351.441 203.146 357.269 205.047C363.154 206.967 368.741 206.186 374.032 202.703C379.378 199.239 383.396 193.387 386.083 185.149C388.789 176.855 388.995 169.76 386.702 163.866C384.483 157.933 380.431 154.007 374.547 152.087C368.718 150.186 363.168 150.948 357.896 154.375Z" fill="black"/>
<path d="M413.291 242.019L441.593 155.265L462.946 162.231L452.661 193.755L481.579 203.189L491.863 171.665L513.215 178.631L484.913 265.385L463.561 258.419L475.628 221.431L446.71 211.997L434.643 248.985L413.291 242.019Z" fill="black"/>
<path d="M520.28 264.459C515.139 253.419 514.68 241.426 518.903 228.48C523.145 215.478 530.588 206.063 541.232 200.235C551.951 194.369 564.064 193.639 577.57 198.045C591.132 202.469 600.484 210.202 605.625 221.242C610.84 232.245 611.327 244.247 607.086 257.249C602.862 270.194 595.391 279.6 584.673 285.467C574.028 291.295 561.925 291.997 548.363 287.572C534.856 283.166 525.496 275.462 520.28 264.459ZM553.292 218.865C547.705 222.685 543.696 228.322 541.264 235.775C538.832 243.229 538.746 250.145 541.005 256.525C543.265 262.905 547.701 267.173 554.314 269.331C560.983 271.506 567.083 270.675 572.613 266.837C578.2 263.017 582.209 257.38 584.641 249.926C587.072 242.473 587.159 235.556 584.9 229.176C582.696 222.815 578.26 218.546 571.591 216.371C564.978 214.213 558.878 215.045 553.292 218.865Z" fill="black"/>
<path d="M612.521 307.015L640.824 220.262L663.184 227.557L666.565 283.908L702.442 240.364L724.803 247.659L696.501 334.412L675.149 327.447L689.3 284.07L664.529 315.239L649.649 310.385L648.025 270.604L633.873 313.981L612.521 307.015Z" fill="black"/>
</svg>
