<svg width="193" height="248" viewBox="0 0 193 248" fill="none" xmlns="http://www.w3.org/2000/svg">
<path d="M142.548 48.3125C148.848 60.4213 148.536 74.7957 146.999 88.3479C146.543 92.4292 145.966 96.4904 145.458 100.588C144.363 101.668 143.252 102.695 142.14 103.723C143.672 87.3739 144.425 70.3508 137.181 55.7343C129.984 41.2742 115.318 31.1145 99.4451 28.3511C83.5727 25.5877 66.7795 29.8473 53.4833 38.9692C40.1871 48.0912 30.3075 61.8148 24.6782 76.9133C22.7456 82.1348 21.2546 87.6772 21.421 93.223C21.6202 101.1 25.0418 108.499 28.4351 115.621C30.2302 119.408 32.0253 123.196 33.8725 126.967C33.7242 127.413 33.6962 127.878 33.6843 128.396C33.5849 131.225 35.6524 133.672 38.1771 135.008L38.1931 135.06C36.5397 134.884 34.9224 134.64 33.3251 134.275C32.7951 133.296 32.265 132.317 31.751 131.39C27.0971 122.772 22.6718 113.969 20.0562 104.552C17.7621 96.1778 17.0128 87.4419 17.7804 78.8099C18.1884 74.5721 18.9775 70.274 20.8945 66.4851C22.1778 63.9766 23.9389 61.7207 25.7159 59.517C28.897 55.5672 32.0097 51.5812 35.1747 47.5793C45.1309 35.0314 56.1223 21.7649 71.6031 17.5099C80.9848 14.9624 90.8531 16.0345 100.513 17.1708C105.369 17.7309 110.345 18.3111 114.752 20.3802C119.075 22.3611 122.712 25.6384 126.228 28.8956C132.414 34.7002 138.628 40.7816 142.548 48.3125Z" fill="#2B2B2B"/>
<path d="M142.142 103.723C143.253 102.695 144.364 101.668 145.459 100.588C144.911 104.926 144.415 109.248 144.195 113.542C143.444 110.918 142.693 108.294 141.958 105.722C142.042 105.068 142.057 104.377 142.142 103.723Z" fill="#2B2B2B"/>
<path d="M40.6103 135.858C40.5621 135.701 40.5139 135.545 40.4496 135.336C40.4335 135.284 40.4335 135.284 40.4174 135.232C45.9315 135.704 51.5457 135.573 57.2039 135.029C68.1912 133.986 79.2502 131.322 89.9641 128.65C100.261 126.106 110.646 123.478 120.247 118.864C123.373 117.33 126.346 115.671 129.239 113.752C130.33 114.33 131.386 114.975 132.458 115.673C133.966 113.895 136.052 112.51 137.866 110.98C139.908 109.266 141.813 106.737 141.648 104.161C141.792 104.63 141.885 105.116 142.046 105.638C142.797 108.262 143.548 110.886 144.283 113.458C153.022 143.492 162.855 173.188 173.82 202.478L173.315 202.691C156.067 214.744 137.438 225.28 117.114 230.685C101.845 234.703 85.5247 235.676 70.2541 232.27C62.7453 206.598 55.0279 180.99 46.9974 155.479C45.5673 150.836 44.101 146.262 42.6186 141.636C41.8154 139.77 41.2209 137.84 40.6103 135.858Z" fill="#414E77"/>
<path d="M40.3792 135.301C40.327 135.317 40.2588 135.281 40.2066 135.297C39.5686 135.265 38.9144 135.181 38.2602 135.097C38.192 135.061 38.1399 135.077 38.1238 135.025C36.6301 132.401 35.1724 129.709 33.8191 126.984C34.3883 124.753 36.1574 122.894 37.8865 121.277C53.1313 106.985 73.1937 98.6917 93.506 93.805C101.214 91.9443 109.104 90.4849 117.034 91.0118C124.963 91.5388 132.914 94.1726 138.731 99.5198C139.61 100.334 140.453 101.217 140.947 102.264C141.14 102.89 141.296 103.584 141.489 104.21C141.505 104.262 141.505 104.262 141.505 104.262C137.61 107.747 133.477 111.019 129.148 113.837C120.499 109.306 110.04 108.358 100.281 110.051C88.9973 111.985 78.4688 117.113 68.4983 122.755C64.9996 124.746 61.4809 126.858 59.1785 130.138C58.1437 131.599 57.4138 133.309 57.1656 135.098C51.5235 135.694 45.9615 135.809 40.3792 135.301Z" fill="#2A2E36"/>
<path d="M141.507 104.262C141.672 106.838 139.767 109.367 137.725 111.081C135.911 112.611 133.809 113.944 132.317 115.774C131.297 115.061 130.205 114.483 129.098 113.853C133.531 111.003 137.627 107.799 141.507 104.262Z" fill="#414E77"/>
<path d="M129.166 113.889C126.257 115.756 123.3 117.466 120.174 119C110.641 123.651 100.24 126.226 89.8913 128.786C79.2296 131.443 68.1023 134.071 57.131 135.166C57.3953 133.428 58.1091 131.666 59.1439 130.205C61.4463 126.926 65.0172 124.798 68.4638 122.823C78.4343 117.181 88.9628 112.053 100.247 110.119C110.058 108.41 120.5 109.305 129.166 113.889Z" fill="#EFEFEF"/>
<path d="M42.4618 141.685C43.9442 146.311 45.3582 150.901 46.8406 155.528C41.7097 148.884 37.3693 141.654 33.3418 134.328C34.9752 134.625 36.5925 134.869 38.2099 135.113C39.4868 137.404 40.8519 139.611 42.3214 141.785L42.4779 141.737L42.4618 141.685Z" fill="#2B2B2B"/>
<path d="M33.8717 126.968C35.225 129.692 36.6827 132.384 38.1764 135.008C35.5995 133.689 33.5841 131.226 33.6835 128.397C33.6593 127.947 33.7395 127.466 33.8717 126.968Z" fill="#2B2B2B"/>
</svg>
