<svg width="213" height="251" viewBox="0 0 213 251" fill="none" xmlns="http://www.w3.org/2000/svg">
<path d="M107.226 213.712C105.3 212.99 103.133 212.268 101.207 211.546C99.0396 210.824 96.6319 206.974 98.0766 205.289C102.651 199.513 100.484 193.496 99.762 187.48C98.0766 174.243 96.3911 161.247 94.465 147.769C85.7971 147.047 80.7409 141.512 76.4069 134.773C73.5176 130.201 72.3138 125.387 72.7953 119.852C73.0361 117.205 72.7953 114.557 72.3138 111.91C71.8322 109.985 70.6284 108.541 68.2206 109.985C67.9799 109.985 67.9799 110.225 67.7391 110.225C56.4227 115.039 51.1257 114.076 42.2171 105.653C40.0501 103.727 39.8093 101.561 41.4948 99.6361C43.1802 97.4701 43.1802 95.0634 42.9394 92.4161C42.4578 85.6774 42.4578 78.9387 40.2909 72.2001C39.3278 68.8307 40.7724 67.6274 44.384 68.5901C45.8287 68.8307 47.5141 68.5901 49.1995 68.5901C51.848 68.5901 51.1257 66.4241 51.6072 64.9801C52.3296 62.8141 53.2927 61.8514 55.9412 62.3327C60.7566 63.5361 65.8129 64.4987 70.6284 65.9427C78.3331 68.1087 83.6301 73.6441 88.9272 79.1794C90.8533 81.1047 92.5388 83.2707 94.465 84.9554C98.3173 88.5654 100.244 88.5654 103.614 84.7147C107.226 80.6234 110.597 76.5321 113.968 72.2001C119.746 64.4987 127.451 61.3701 136.841 60.6481C142.138 60.1667 146.954 61.8514 150.806 64.9801C157.548 70.7561 164.049 76.7727 170.79 82.7894C171.513 83.5114 172.235 84.2334 173.198 85.4367C176.328 74.1254 178.495 63.2954 177.05 51.9841C176.569 48.374 176.328 44.764 177.773 41.154C182.107 28.88 186.681 16.8467 191.497 4.57267C192.219 2.888 194.145 1.444 195.59 0C197.035 0 198.72 0 200.165 0C204.499 0.962668 205.702 4.332 206.425 7.94201C208.351 16.606 210.277 25.27 211.962 34.1747C212.685 37.3034 213.407 40.9134 212.444 43.8014C210.277 51.5027 207.147 58.9634 204.499 66.6647C203.295 69.7934 202.332 72.9221 201.368 76.0507C200.887 78.2167 200.887 80.6234 200.646 83.0301C200.165 89.5281 198.238 95.3041 193.423 99.8768C189.33 103.968 185.477 108.3 181.384 112.873C180.421 113.835 179.94 115.279 179.699 116.483C178.977 122.74 178.495 129.238 178.254 135.495C177.773 143.678 177.532 151.861 181.143 159.321C184.274 165.819 185.718 172.799 185.959 179.778C186.2 186.276 186.922 193.015 184.514 199.513C182.829 203.845 180.421 206.252 175.846 206.492C173.679 206.492 172.716 205.53 173.439 203.364C174.161 200.957 175.365 198.55 176.569 196.144C179.94 189.646 178.495 181.222 172.716 176.168C172.476 176.649 172.476 177.371 172.235 177.853C168.864 186.517 163.085 193.978 161.4 203.364C160.918 206.733 157.548 208.899 153.936 209.38C151.288 209.862 149.121 208.899 147.917 206.492C146.713 204.086 149.121 202.882 150.565 201.679C151.047 201.198 151.528 200.957 152.01 200.716C154.418 199.032 156.103 196.866 156.103 193.737C156.103 188.442 156.344 183.148 156.103 177.853C156.103 176.168 155.381 174.243 154.658 172.558C152.01 166.782 149.361 161.247 146.713 155.711C144.305 150.657 143.583 145.363 143.824 139.587C144.064 134.051 143.824 128.757 143.824 123.703C143.824 123.703 143.583 124.425 143.342 124.906C141.657 132.367 138.045 138.383 131.544 142.715C130.581 143.437 129.859 144.159 128.896 144.881C125.043 147.769 123.117 151.861 122.395 156.674C120.228 170.873 117.82 184.832 117.82 199.272C117.82 204.808 114.931 209.862 109.874 212.99C108.671 213.712 107.948 213.712 107.226 213.712Z" fill="black"/>
</svg>
