<svg width="469" height="470" viewBox="0 0 469 470" fill="none" xmlns="http://www.w3.org/2000/svg">
<path d="M197.796 0.416748L468.175 193.896L270.665 469.907L0.286555 276.428L197.796 0.416748Z" fill="white"/>
<path d="M358.807 256.363C356.304 258.401 353.571 260.274 350.921 262.032C356.949 254.337 357.467 244.614 354.43 235.48C359.424 225.827 364.334 216.288 369.328 206.635C369.542 206.092 369.839 205.434 369.658 204.957C369.182 203.92 367.799 204.149 366.762 204.625C358.204 208.073 349.793 211.8 341.448 215.922C335.381 210.536 328.028 207.189 320.871 207.462C338.484 197.442 357.281 189.661 376.75 184.101C378.214 183.757 379.761 183.298 381.127 183.579C384.088 184.305 385.632 187.499 386.518 190.395C390.423 204.154 387.532 219.14 380.595 231.753C375.091 241.389 367.516 249.543 358.807 256.363Z" fill="black"/>
<path d="M311.825 264.858C310.856 262.077 309.427 258.966 308.063 256.25C305.615 251.888 302.443 248.051 298.661 244.823C293.58 240.491 287.561 237.228 280.981 235.478C275.996 234.174 270.501 234.07 265.137 234.756C258.192 235.704 251.313 238.264 245.502 241.763C245.122 243.754 244.972 245.909 244.955 246.419C244.738 250.614 245.82 254.696 247.743 258.333C249.813 262.251 253.035 265.775 256.603 268.329C263.707 273.238 272.722 274.99 281.377 274.571C284.915 274.492 288.47 273.903 291.909 273.231C298.952 271.658 305.684 268.818 311.825 264.858ZM208.325 148.506L208.112 147.832C207.824 137.532 207.141 127.297 206.458 117.063C206.181 113.558 205.839 109.659 203.406 107.221C202.797 106.612 202.107 106.118 201.284 106.051C199.524 105.836 198.288 107.562 197.415 109.026C187.974 124.894 179.422 141.224 171.56 158.048C171.395 158.278 171.346 158.591 171.296 158.903C171.328 160.318 173.335 160.189 174.57 159.68C185.45 154.935 196.805 151.227 208.325 148.506ZM215.2 234.002C218.195 233.709 221.075 233.333 224.102 233.237C225.653 227.908 227.089 222.496 227.587 216.936C227.621 215.916 227.77 214.978 227.803 213.958C227.973 207.64 226.892 201.124 223.853 195.642C221.109 190.72 216.851 186.455 211.999 183.505C208.266 181.182 203.397 179.96 198.149 179.511C190.547 178.944 182.155 179.726 175.342 181.464C175.441 180.839 175.343 180.247 174.883 179.917C174.307 179.505 173.253 180.492 173.911 180.788L174.141 180.953C173.894 181.298 173.532 181.561 173.17 181.824L173.318 182.104C173.993 181.891 174.667 181.677 175.457 181.547C175.49 181.744 175.408 181.859 175.325 181.974C174.035 190.101 174.144 198.706 176.474 206.638C177.393 209.732 178.509 212.794 180.103 215.674C185.623 225.716 195.851 233.557 207.253 234.406C209.803 234.491 212.518 234.345 215.2 234.002ZM208.853 270.358C214.514 269.014 219.962 266.995 225.147 264.614C219.918 260.002 213.487 257.315 206.973 254.742C207.035 260.007 207.607 265.289 208.853 270.358ZM162.618 146.951C164.134 143.859 165.766 140.849 167.479 137.725C167.347 138.153 167.215 138.58 167.084 139.008C162.682 149.781 166.968 138.926 166.968 138.926C167.265 138.268 167.562 137.61 167.743 136.87C169.491 132.725 171.353 128.663 173.331 124.683C178.948 116.347 185.914 108.801 193.899 102.507C187.151 105.857 181.634 111.133 177.302 117.431C183.81 105.903 191.355 95.1172 199.935 85.0724C200.956 83.8887 202.177 82.5515 203.658 82.9148C204.381 83.6065 205.152 84.1064 205.875 84.7981C206.023 85.078 206.286 85.4402 206.352 85.8351C214.138 102.197 221.857 119.381 223.587 137.151C223.617 141.001 223.164 127.388 223.194 131.238C223.444 127.241 223.929 141.051 223.587 137.151C223.509 131.179 223.432 125.206 223.387 119.431C223.308 115.894 223.311 112.241 223.034 108.737C223.46 110.086 223.887 111.436 224.314 112.785C227.464 124.437 228.359 136.563 229.057 148.723C229.171 150.023 229.17 151.24 229.284 152.54L229.102 153.28C243.727 156.436 257.393 164.824 269.793 173.522C275.63 177.526 281.188 181.677 286.779 186.026C286.779 186.026 286.779 186.026 286.894 186.108C296.432 193.455 305.607 201.064 314.535 209.019C315.11 209.431 315.603 209.958 316.097 210.485C316.82 211.177 317.626 211.754 318.349 212.445C317.626 211.754 316.902 211.062 316.097 210.485C317.66 209.516 319.872 207.728 321.551 206.842C329.398 204.407 337.603 209.317 343.67 214.702C339.078 216.985 332.131 220.915 327.571 223.395C331.414 231.888 334.515 240.735 335.742 249.967C336.183 253.241 336.975 257.058 340.15 257.242C342.7 257.327 344.181 254.642 345.401 252.208C348.301 246.452 353.35 237.428 356.25 231.672C359.287 240.806 370.079 241.099 364.051 248.794C366.702 247.036 365.114 250.379 358.757 256.675C341.267 277.225 322.921 297.511 300.696 312.759C289.123 320.663 276.498 327.117 263.266 331.744C237.163 340.737 207.298 342.338 182.858 329.548C150.31 312.522 134.332 273.07 135.744 236.315C136.904 204.776 148.413 175.072 162.618 146.951Z" fill="black"/>
<path d="M345.613 252.665C344.476 254.984 342.582 257.631 340.032 257.547C336.856 257.363 335.774 253.281 335.25 250.122C334.023 240.891 330.624 231.442 326.781 222.948C331.341 220.468 337.882 217.503 342.475 215.221C348.312 220.442 354.411 224.064 356.873 231.568C354.919 238.138 348.629 246.992 345.613 252.665Z" fill="#A2A1A2"/>
<path d="M369.246 206.75C364.252 216.403 359.812 225.94 354.819 235.593C352.357 228.088 347.17 221.06 341.333 215.839C349.596 211.833 358.089 207.99 366.648 204.543C367.602 204.182 369.182 203.92 369.543 204.875C369.872 205.632 369.575 206.29 369.246 206.75Z" fill="#A2A1A2"/>
<path d="M308.064 256.25C309.427 258.966 310.659 262.11 311.825 264.859C305.882 268.786 299.068 271.741 292.107 273.199C297.064 267 300.032 259.205 300.334 251.242C300.369 249.004 300.141 246.404 298.497 245.054L298.744 244.708C302.443 248.052 305.731 251.97 308.064 256.25Z" fill="white"/>
<path d="M298.415 245.169C300.059 246.519 300.485 249.086 300.253 251.357C299.835 259.237 296.867 267.033 292.025 273.314C288.503 274.1 285.031 274.574 281.493 274.653C272.921 274.958 263.906 273.206 256.719 268.411C252.953 265.89 249.846 262.449 247.859 258.416C249.446 248.414 256.15 239.289 265.285 235.036L265.252 234.839C270.699 234.037 276.112 234.256 281.097 235.561C287.562 237.228 293.696 240.574 298.777 244.906L298.415 245.169ZM252.827 259.013C259.528 253.54 264.141 245.877 269.741 239.268C261.347 242.486 254.809 250.163 252.827 259.013Z" fill="#C1B665"/>
<path d="M331.528 203.265C326.588 206.701 321.595 209.518 316.655 212.954C315.289 211.396 313.648 210.222 312.282 208.663C318.809 205.783 325.443 204.14 331.528 203.265Z" fill="black"/>
<path d="M269.823 239.153C264.223 245.762 259.61 253.425 252.909 258.898C254.808 250.163 261.347 242.485 269.823 239.153Z" fill="black"/>
<path d="M265.137 234.756C256.035 239.207 249.331 248.332 247.743 258.334C245.821 254.696 244.821 250.5 244.955 246.419C244.972 245.909 245.237 243.836 245.502 241.764C251.313 238.265 258.11 235.819 265.137 234.756Z" fill="white"/>
<path d="M206.973 254.742C213.487 257.315 219.918 260.002 225.147 264.614C219.88 267.11 214.399 268.931 208.853 270.357C207.607 265.289 207.035 260.007 206.973 254.742Z" fill="#D76460"/>
<path d="M286.118 186.312C280.643 182.046 274.887 177.927 269.132 173.809C256.733 165.11 243.066 156.723 228.442 153.567L228.623 152.827C228.509 151.527 228.51 150.309 228.396 149.009C237.64 152.144 246.143 157.532 254.167 163.1C265.037 170.531 275.66 178.306 286.118 186.312Z" fill="black"/>
<path d="M227.588 216.936C227.09 222.496 225.851 227.875 224.103 233.237C221.075 233.333 218.196 233.709 215.201 234.003C218.297 230.649 221.163 227.131 223.453 223.201C225.199 220.274 226.715 217.182 227.606 213.991C227.688 215.093 227.621 215.916 227.588 216.936Z" fill="white"/>
<path d="M198.978 191.243L198.173 190.666C191.094 194.477 185.117 200.641 181.541 207.828C188.619 204.017 194.547 198.165 198.978 191.243ZM223.452 223.2C221.162 227.131 218.296 230.649 215.2 234.002C212.403 234.263 209.688 234.409 207.023 234.242C195.621 233.392 185.311 225.666 179.873 215.51C178.279 212.629 177.08 209.683 176.244 206.474C180.958 195.751 188.534 186.379 198.034 179.429C203.397 179.96 208.349 181.067 211.884 183.423C216.736 186.372 220.961 190.44 223.738 195.56C226.777 201.041 227.858 207.558 227.688 213.875C226.633 217.297 225.199 220.273 223.452 223.2Z" fill="#C1B665"/>
<path d="M198.979 191.243C194.745 198.132 188.619 204.017 181.574 208.025C185.232 200.723 191.012 194.592 198.206 190.863L198.979 191.243Z" fill="black"/>
<path d="M197.951 179.544C188.419 186.297 180.876 195.866 176.162 206.589C173.947 198.739 173.723 190.052 175.013 181.925C175.096 181.81 175.063 181.612 175.145 181.497C181.876 179.875 190.35 178.978 197.951 179.544Z" fill="white"/>
<path d="M223.518 119.25C223.595 125.222 223.673 131.195 223.717 136.97C216.472 126.428 213.349 102.148 205.678 85.8694C205.785 85.2336 205.39 84.0532 205.242 83.7733C213.754 90.6885 219.799 98.6637 223.247 108.44C223.441 112.06 223.521 115.597 223.518 119.25Z" fill="black"/>
<path d="M208.552 147.64L208.767 148.329C197.011 151.142 185.621 154.931 174.479 159.609C173.218 160.133 171.053 160.188 171.142 158.826C171.194 158.506 171.245 158.187 171.414 157.951C179.195 140.888 188.05 124.059 197.724 107.816C198.619 106.318 199.884 104.55 201.679 104.766C202.517 104.831 203.337 105.418 203.839 105.955C206.229 108.556 206.768 112.506 206.923 116.003C207.622 126.66 208.204 137.234 208.552 147.64Z" fill="#A2A1A2"/>
<path d="M173.89 180.762L173.629 180.575C172.975 180.107 174.191 178.96 174.749 179.561C175.272 179.935 177.101 180.68 175.067 181.604C174.293 181.857 174.03 182.347 173.255 182.599L172.639 181.682C173.317 181.562 173.604 181.162 173.89 180.762Z" fill="black"/>
<path d="M220.527 95.457C222.038 99.6703 222.676 104.13 223.034 108.737C219.587 98.9606 213.883 92.0945 205.908 84.9959C205.465 84.1564 203.58 83.4085 203.658 82.9151C211.291 84.8965 217.95 87.8698 220.527 95.457Z" fill="black"/>
<path d="M166.968 138.926C167.1 138.498 167.232 138.07 167.364 137.643C167.529 137.412 167.578 137.1 167.743 136.87C167.562 137.61 167.265 138.268 166.968 138.926Z" fill="black"/>
<path d="M167.859 136.952C167.695 137.182 167.645 137.495 167.48 137.725C167.959 136.327 168.437 134.929 169.03 133.613C169.673 131.985 170.316 130.357 171.074 128.811C171.865 127.462 172.656 126.114 173.562 124.848C171.469 128.745 169.607 132.808 167.859 136.952Z" fill="black"/>
<path d="M193.899 102.507C185.914 108.801 178.948 116.347 173.446 124.765C174.665 122.331 175.967 119.782 177.302 117.431C181.634 111.133 187.15 105.857 193.899 102.507Z" fill="black"/>
</svg>
