<svg width="839" height="634" viewBox="0 0 839 634" fill="none" xmlns="http://www.w3.org/2000/svg">
<path d="M311.595 145.094C317.361 151.707 324.196 158.319 332.952 158.319C340.641 158.319 347.262 152.987 351.106 146.374C354.951 139.762 356.232 132.082 357.514 124.616C352.815 126.323 347.903 125.256 342.777 124.403C338.933 123.55 334.875 122.91 331.03 123.55C325.264 124.616 320.351 128.456 316.934 133.362C314.798 136.988 313.09 141.041 311.595 145.094ZM250.725 134.855C249.443 142.748 253.074 151.494 259.695 155.973C266.53 160.666 276.354 160.879 283.402 156.4C284.043 155.973 284.684 155.546 284.897 154.693C285.111 154.053 284.684 153.2 284.257 152.56C281.907 148.507 279.344 144.881 276.568 141.255C274.218 138.055 271.655 135.069 268.879 132.296C267.384 130.802 265.889 129.309 263.967 128.243C263.326 128.029 262.685 127.816 262.044 127.603C257.132 127.176 253.288 130.589 250.725 134.855ZM599.925 569.794C618.079 579.606 637.301 586.859 657.804 590.485C690.909 596.458 726.576 593.045 758.186 577.9C775.699 569.581 792.785 556.569 799.193 537.798C804.532 521.799 800.901 504.521 795.135 489.376C791.29 479.564 787.446 466.125 795.989 459.086C801.328 454.82 809.017 456.1 813.93 460.153C818.842 464.206 821.618 470.392 824.181 476.578C832.724 496.629 841.267 518.386 836.782 540.571C830.589 571.074 802.396 591.978 776.34 608.616C763.098 617.149 749.643 625.468 734.692 629.521C720.382 633.36 705.432 632.934 690.909 631.441C640.718 625.894 593.731 607.123 549.307 584.086C521.328 588.139 492.709 588.352 464.73 584.726C460.031 584.086 454.905 583.232 450.847 580.673C444.013 576.407 441.023 568.301 437.605 561.048C425.432 535.451 403.647 516.04 384.638 494.922C365.63 473.805 348.543 448.207 349.398 419.837C350.252 391.467 377.163 363.097 404.501 370.563C403.86 315.742 402.152 257.508 372.678 211.22C369.901 206.954 366.698 202.475 362.212 200.128C351.747 194.582 339.36 201.621 328.254 205.248C308.391 211.647 285.538 207.381 269.52 194.155C268.452 193.302 267.598 192.449 266.53 191.596C265.675 190.743 264.821 190.103 264.18 189.249C262.472 187.543 260.977 185.623 259.482 183.703C258.414 182.423 257.559 181.144 256.705 179.65C255.424 177.517 254.142 175.384 253.074 173.038C252.006 170.691 250.938 168.132 250.084 165.572C246.453 154.48 245.599 142.321 248.589 131.016C251.793 118.004 259.268 105.845 259.482 92.62C259.909 67.2362 234.493 42.4922 245.813 19.8814C265.462 29.907 274.432 54.4376 294.295 64.2498C309.032 71.7157 325.691 69.3693 341.495 63.1833C352.815 42.9189 365.416 23.5077 379.512 4.94972C381.862 1.75008 386.133 -1.66288 389.123 0.896838C388.269 20.948 391.045 41.2124 397.453 60.1969C401.724 65.5297 405.782 70.8624 410.054 75.9819C458.322 136.988 506.805 198.208 559.986 255.162C580.916 277.56 603.983 302.517 605.05 333.233C605.264 343.046 600.565 354.138 608.254 360.11C611.885 362.883 626.835 360.537 630.68 362.884C638.155 367.576 639.009 380.375 640.504 389.121C643.922 410.665 641.359 433.062 643.281 454.82C645.417 478.284 646.485 502.601 639.009 524.786C632.388 544.837 618.292 562.541 599.925 569.794Z" fill="black"/>
<path d="M357.513 124.83C356.231 132.296 354.95 139.975 351.106 146.587C347.261 153.2 340.427 158.533 332.952 158.533C324.408 158.533 317.36 151.92 311.594 145.308C313.089 141.255 314.797 137.202 317.147 133.789C320.35 128.883 325.263 124.83 331.243 123.977C328.466 129.736 329.748 137.628 331.029 143.814C331.243 144.668 331.456 145.521 332.097 145.947C332.952 146.587 334.019 146.587 335.087 146.161C338.718 144.881 341.281 141.468 342.349 137.628C343.203 134.215 343.417 128.669 343.203 124.83C347.902 125.47 352.814 126.536 357.513 124.83Z" fill="#D5BF4B"/>
<path d="M342.776 124.403C342.99 128.243 342.99 133.789 341.922 137.202C340.854 141.041 338.291 144.454 334.66 145.734C333.592 145.947 332.525 146.161 331.67 145.521C331.03 145.094 330.816 144.241 330.602 143.388C329.321 137.202 328.039 129.309 330.816 123.55C335.087 122.91 338.932 123.763 342.776 124.403Z" fill="black"/>
<path d="M284.043 152.773C284.47 153.413 284.683 154.053 284.683 154.906C284.47 155.546 283.829 156.186 283.188 156.613C276.14 161.092 266.316 160.879 259.481 156.186C252.86 151.493 249.23 142.961 250.511 135.068C253.288 130.802 257.132 127.176 261.831 128.242C262.471 128.456 263.112 128.669 263.753 128.882L263.539 129.309C261.403 133.149 259.481 137.201 259.268 141.681C259.268 146.16 261.403 150.853 265.461 152.56C269.092 154.053 274.645 146.587 276.354 141.894C279.344 145.094 281.907 148.934 284.043 152.773Z" fill="#D5BF4B"/>
<path d="M268.879 132.722C271.655 135.495 274.218 138.482 276.568 141.681C274.859 146.587 269.306 154.053 265.675 152.347C261.617 150.64 259.481 145.948 259.481 141.468C259.481 136.989 261.404 132.936 263.753 129.096L263.967 128.669C265.675 129.523 267.384 131.016 268.879 132.722Z" fill="black"/>
<path d="M266.529 192.023C267.384 192.876 268.451 193.729 269.519 194.582C257.345 202.901 244.531 209.941 230.862 215.487C230.007 215.913 228.94 216.127 228.512 215.273C228.085 214.634 228.512 213.994 228.726 213.354C233.852 204.395 243.89 199.275 253.287 194.796C256.918 193.089 260.549 191.383 264.393 189.676C264.821 190.53 265.675 191.383 266.529 192.023Z" fill="black"/>
<path d="M256.705 180.29C257.56 181.57 258.414 183.063 259.482 184.343C245.386 189.462 227.872 197.568 213.776 199.275C211.641 199.488 209.078 199.701 207.155 198.635C206.942 197.568 208.223 196.715 209.291 196.288C223.814 189.676 241.114 184.13 256.705 180.29Z" fill="black"/>
<path d="M250.084 166.212C250.938 168.772 252.006 171.118 253.074 173.678C238.764 175.384 221.892 176.451 207.795 175.384C206.3 175.171 204.592 175.171 203.524 174.104C209.077 169.412 216.766 168.345 224.027 167.705C232.57 166.852 241.327 166.212 250.084 166.212Z" fill="black"/>
<path d="M338.291 69.5828C339.359 67.663 340.427 65.7432 341.495 63.8234C352.814 43.559 365.415 24.1478 379.512 5.58986C381.861 2.39021 386.132 -1.02274 389.123 1.53697C388.268 21.5881 391.045 41.8525 397.452 60.8371C399.801 67.8763 402.578 74.7022 405.782 81.5281" stroke="black" stroke-width="1.0006" stroke-miterlimit="10"/>
<path d="M385.92 46.332C389.764 51.2382 393.609 55.931 397.453 60.8371C401.725 66.1698 405.783 71.5026 410.054 76.622C458.323 137.629 506.805 198.848 559.986 255.802C580.916 278.2 603.983 303.157 605.051 333.874C605.264 343.686 600.566 354.778 608.254 360.751C611.885 363.524 626.836 361.177 630.68 363.524C638.155 368.216 639.01 381.015 640.505 389.761C643.922 411.305 641.359 433.703 643.281 455.46C645.417 478.924 646.485 503.242 639.01 525.426C632.602 544.624 618.72 562.328 600.138 569.581C597.148 570.861 593.945 571.714 590.527 572.354" stroke="black" stroke-width="1.0006" stroke-miterlimit="10"/>
<path d="M364.134 51.4519C357.086 56.1447 349.397 60.6242 341.282 63.8238C325.69 70.2231 308.818 72.3562 294.081 64.8904C274.432 54.8648 265.248 30.5475 245.599 20.522C234.279 43.1328 259.481 67.8767 259.268 93.2606C259.054 106.699 251.579 118.644 248.375 131.656C245.599 142.962 246.239 155.12 249.87 166.213C250.725 168.772 251.792 171.119 252.86 173.678C253.928 176.025 255.21 178.158 256.491 180.291C257.345 181.571 258.2 183.064 259.268 184.344C260.763 186.264 262.258 188.183 263.966 189.89C264.821 190.743 265.461 191.383 266.316 192.236C267.17 193.09 268.238 193.943 269.306 194.796C285.324 207.808 308.177 212.287 328.04 205.888C339.359 202.262 351.533 195.436 361.999 200.769C366.484 203.115 369.687 207.381 372.464 211.861C402.151 258.149 403.646 316.383 404.287 371.203C376.949 363.737 350.038 392.108 349.184 420.478C348.33 448.848 365.629 474.445 384.424 495.563C403.433 516.68 425.218 536.092 437.392 561.689C440.809 568.941 443.799 577.047 450.633 581.313C454.691 583.873 459.604 584.726 464.516 585.366C492.495 588.992 521.114 588.779 549.093 584.726C549.306 584.726 549.52 584.726 549.733 584.726C552.296 584.3 555.287 583.446 555.927 580.887C556.354 578.327 551.229 577.474 551.869 580.033" stroke="black" stroke-width="1.0006" stroke-miterlimit="10"/>
<path d="M589.245 577.687C589.245 578.54 589.245 579.18 589.245 580.033" stroke="black" stroke-width="1.0006" stroke-miterlimit="10"/>
<path d="M538.842 578.966C542.259 580.886 545.89 582.592 549.307 584.512C593.731 607.55 640.718 626.534 690.909 631.867C705.432 633.36 720.169 633.787 734.693 629.947C749.429 625.894 763.098 617.575 776.34 609.043C802.397 592.405 830.589 571.5 836.783 540.997C841.268 518.6 832.725 497.055 824.182 477.004C821.619 471.031 818.842 464.632 813.93 460.579C809.018 456.526 801.329 455.247 795.989 459.513C787.446 466.339 791.291 479.777 795.135 489.803C800.902 504.948 804.746 522.012 799.193 538.224C792.999 556.995 775.7 570.007 758.186 578.326C726.363 593.471 690.696 596.884 657.805 590.912C637.515 587.285 618.079 580.033 599.925 570.22C588.605 564.248 577.927 556.995 567.888 549.316" stroke="black" stroke-width="1.0006" stroke-miterlimit="10"/>
<path d="M310.1 149.361C310.527 147.868 311.167 146.375 311.595 144.881C313.09 140.829 314.798 136.776 317.148 133.363C320.351 128.457 325.264 124.404 331.244 123.55C335.088 122.911 339.146 123.55 342.991 124.404C347.903 125.47 353.029 126.537 357.728 124.617C356.446 132.083 355.165 139.762 351.32 146.375C347.476 152.987 340.641 158.32 333.166 158.32C324.623 158.32 317.575 151.707 311.808 145.095C311.381 144.668 310.954 144.242 310.527 143.815" stroke="black" stroke-width="1.0006" stroke-miterlimit="10"/>
<path d="M331.243 123.55C328.466 129.31 329.748 137.202 331.029 143.388C331.243 144.241 331.456 145.095 332.097 145.521C332.951 146.161 334.019 146.161 335.087 145.734C338.718 144.455 341.281 141.042 342.349 137.202C343.203 133.789 343.417 128.243 343.203 124.403C343.203 123.977 343.203 123.55 343.203 123.337" stroke="black" stroke-width="1.0006" stroke-miterlimit="10"/>
<path d="M248.162 139.975C248.803 138.268 249.657 136.562 250.725 134.855C253.502 130.589 257.346 126.963 262.045 128.03C262.685 128.243 263.326 128.456 263.967 128.669C265.889 129.523 267.384 131.016 268.879 132.722C271.656 135.495 274.219 138.482 276.568 141.681C279.344 145.308 281.907 149.147 284.257 152.987C284.684 153.627 284.897 154.267 284.897 155.12C284.684 155.76 284.043 156.4 283.402 156.826C276.354 161.306 266.53 161.093 259.695 156.4C253.074 151.707 249.444 143.175 250.725 135.282C250.725 135.069 250.725 134.855 250.939 134.429" stroke="black" stroke-width="1.0006" stroke-miterlimit="10"/>
<path d="M263.539 129.096C261.403 132.936 259.481 136.989 259.268 141.468C259.268 145.948 261.403 150.64 265.461 152.347C269.092 153.84 274.645 146.374 276.354 141.681C276.567 141.042 276.781 140.402 276.781 139.762" stroke="black" stroke-width="1.0006" stroke-miterlimit="10"/>
<path d="M249.87 166.426C241.114 166.212 232.57 166.852 224.027 167.705C216.766 168.345 209.077 169.412 203.524 174.105C204.592 175.171 206.3 175.385 207.795 175.385C221.892 176.451 238.978 175.385 253.074 173.678C253.501 173.678 253.928 173.678 254.569 173.465" stroke="black" stroke-width="1.0006" stroke-miterlimit="10"/>
<path d="M258.627 179.864C257.986 180.078 257.346 180.078 256.705 180.291C241.114 184.13 223.814 189.677 209.291 196.076C208.223 196.502 206.941 197.356 207.155 198.422C209.077 199.489 211.426 199.275 213.776 199.062C227.872 197.356 245.385 189.463 259.481 184.13C260.976 183.491 262.472 183.064 263.967 182.637" stroke="black" stroke-width="1.0006" stroke-miterlimit="10"/>
<path d="M267.597 188.183C266.529 188.61 265.248 189.25 264.18 189.676C260.549 191.383 256.918 193.089 253.074 194.796C243.676 199.275 233.638 204.395 228.512 213.354C228.085 213.994 227.872 214.634 228.299 215.273C228.726 216.127 230.007 215.7 230.648 215.487C244.317 209.941 257.345 202.901 269.306 194.582C269.946 194.156 270.801 193.516 271.441 193.089" stroke="black" stroke-width="1.0006" stroke-miterlimit="10"/>
<path d="M454.478 568.301C429.703 528.625 385.065 501.108 338.505 495.349C313.303 492.362 287.674 495.349 262.258 495.775C236.842 496.202 210.359 493.642 188.574 480.417C182.38 476.577 176.613 472.098 170.206 468.472C146.499 454.82 117.239 455.886 89.9007 454.82C62.3492 453.967 32.2347 449.487 14.2942 428.796C5.96464 419.41 1.05235 407.038 0.411621 394.453C0.411621 393.173 0.411621 391.68 1.26593 390.827C2.12024 389.974 3.40171 389.76 4.4696 389.547C14.2942 388.267 24.9731 387.414 33.5162 392.32C42.2729 397.653 46.5444 408.105 53.8061 415.357C68.5429 430.289 92.2501 429.863 113.181 430.076C136.034 430.289 159.1 432.422 181.526 436.475C195.622 439.035 209.718 442.235 224.241 442.661C249.657 443.301 274.218 434.555 297.712 424.743C323.768 413.864 358.582 385.494 383.357 371.842" fill="black"/>
</svg>
