<svg width="363" height="211" viewBox="0 0 363 211" fill="none" xmlns="http://www.w3.org/2000/svg">
<path d="M317.594 181.723C316.753 175.186 313.953 168.904 309.556 164.037C310.76 164.207 311.964 164.461 313.169 164.716C313.477 164.773 313.757 164.829 314.065 164.886C314.793 165.027 315.521 165.14 316.249 165.225C316.501 165.254 316.781 165.282 317.033 165.282C328.964 166.074 340.95 165.14 352.853 164.207C356.606 168.197 361.339 173.715 362.543 178.836C363.215 181.61 363.103 184.524 362.487 187.297V187.326C361.087 193.778 359.742 196.155 356.998 199.692C356.326 200.541 355.654 201.418 354.673 201.899C353.833 202.323 352.853 202.38 351.901 202.437C338.178 203.229 324.427 203.229 310.704 202.465C310.564 202.465 310.396 202.437 310.256 202.437C310.004 202.437 309.78 202.408 309.528 202.38C314.821 199.946 317.426 193.495 317.79 187.524C317.902 185.6 317.846 183.647 317.594 181.723Z" fill="#B95447"/>
<path d="M317.594 181.723C317.846 183.647 317.902 185.6 317.79 187.552C317.454 193.523 314.821 199.975 309.528 202.408C307.652 202.295 305.803 202.182 303.927 202.041L303.871 202.097C303.843 202.069 303.843 202.069 303.815 202.041C303.255 201.361 303.087 200.456 302.891 199.607C302.414 197.287 301.966 194.938 301.574 192.589C302.806 191.684 303.955 190.665 305.047 189.618C307.567 187.213 313.057 183.902 317.594 181.723Z" fill="#F28BBB"/>
<path d="M297.906 159.622C297.066 159.736 296.226 159.934 295.414 160.245C291.157 161.773 288.02 165.565 286.228 169.725C284.435 173.913 283.847 178.497 283.287 182.996C282.671 188.175 282.307 194.032 285.639 198.022C285.751 198.164 285.863 198.305 286.004 198.418C285.976 198.447 285.976 198.475 285.948 198.475C284.547 199.975 282.447 200.484 280.43 200.654C279.898 200.71 279.338 200.71 278.806 200.739C276.986 198.956 275.697 196.579 274.969 194.117C273.933 190.552 274.017 186.76 274.493 183.081C275.613 174.167 275.697 169.894 281.046 162.707C281.523 162.084 284.435 159.028 284.995 158.491C285.92 157.642 287.852 156.198 288.804 156.17C294.013 155.972 299.25 156.114 304.459 156.595C306.196 156.764 307.988 156.962 309.584 157.698C312.469 159.028 314.542 162.396 316.278 165.169C315.55 165.084 314.822 164.971 314.093 164.829C313.281 163.414 311.797 162.311 310.313 161.745C308.968 161.235 307.54 160.896 306.112 160.613C303.395 159.707 300.623 159.226 297.906 159.622Z" fill="#5D5C5D"/>
<path d="M317.594 181.723C313.057 183.902 307.568 187.213 305.075 189.59C303.983 190.637 302.835 191.655 301.603 192.561C301.014 188.882 300.65 185.203 300.846 181.496C301.154 175.412 303.115 169.187 307.428 164.942C307.848 164.518 308.38 164.093 308.968 163.98C309.164 164.009 309.388 164.037 309.584 164.065C313.953 168.904 316.754 175.186 317.594 181.723Z" fill="#785755"/>
<path d="M310.256 202.437C310.396 202.437 310.564 202.465 310.704 202.465C310.032 202.663 309.36 202.918 308.688 203.144C308.071 203.116 307.483 203.116 306.867 203.116C307.483 203.087 308.127 202.946 308.716 202.72C308.912 202.663 309.08 202.578 309.276 202.493C309.612 202.493 309.92 202.465 310.256 202.437Z" fill="#5D5C5D"/>
<path d="M309.528 202.38C309.444 202.437 309.332 202.465 309.248 202.493C307.736 202.607 306.223 202.692 304.711 202.72C304.375 202.55 304.095 202.324 303.843 202.041L303.899 201.984C305.803 202.154 307.68 202.267 309.528 202.38Z" fill="#F28BBB"/>
<path d="M309.276 202.493C309.108 202.578 308.912 202.635 308.716 202.72C308.127 202.918 307.511 203.059 306.867 203.116C306.615 203.116 306.391 203.116 306.139 203.116C305.635 203.087 305.159 202.946 304.739 202.748C306.251 202.691 307.763 202.606 309.276 202.493Z" fill="#5D5C5D"/>
<path d="M306.868 203.116C307.484 203.116 308.072 203.144 308.688 203.144C308.184 203.342 307.68 203.512 307.176 203.71C301.715 205.549 295.805 205.096 290.092 204.644C289.168 204.559 288.244 204.502 287.348 204.389C289.168 204.191 290.96 203.965 292.781 203.766C297.234 203.314 301.687 203.087 306.168 203.116C306.392 203.116 306.616 203.116 306.868 203.116Z" fill="#5D5C5D"/>
<path d="M306.14 203.116C301.659 203.087 297.206 203.314 292.753 203.766C290.932 203.936 289.14 204.163 287.32 204.389C285.275 204.134 283.259 203.71 281.466 202.776C280.486 202.238 279.59 201.588 278.778 200.795C279.31 200.795 279.87 200.767 280.402 200.71C282.419 200.541 284.547 200.003 285.919 198.531C285.947 198.503 285.975 198.475 285.975 198.475C289.168 201.899 294.321 202.635 299.026 202.776C300.93 202.833 302.807 202.833 304.711 202.776C305.159 202.946 305.635 203.059 306.14 203.116Z" fill="#5D5C5D"/>
<path d="M303.87 202.069C304.122 202.352 304.402 202.578 304.738 202.748C302.834 202.805 300.958 202.805 299.053 202.748C294.348 202.607 289.195 201.871 286.002 198.447C286.507 197.881 286.899 197.23 287.487 196.777C288.943 195.617 291.043 196.042 292.892 196.013C296.085 195.957 298.997 194.514 301.602 192.561C301.966 194.91 302.442 197.258 302.918 199.579C303.086 200.428 303.282 201.333 303.842 202.012C303.842 202.012 303.842 202.041 303.87 202.069Z" fill="#F28BBB"/>
<path d="M281.466 202.748C283.287 203.71 285.275 204.135 287.32 204.361C285.639 204.559 283.931 204.729 282.251 204.842C269.116 205.747 255.925 203.059 242.818 204.106C237.357 204.531 231.476 205.549 226.631 202.946C231.672 201.559 236.713 200.145 241.754 198.758C245.787 197.626 249.876 196.522 254.077 196.494C262.45 196.438 270.488 200.824 278.806 200.739C279.59 201.559 280.486 202.21 281.466 202.748Z" fill="#F28BBB"/>
<path d="M219.125 200.399C219.825 201.361 219.265 202.804 218.285 203.455C217.305 204.106 216.044 204.163 214.896 204.219C207.167 204.672 199.437 206.285 191.735 206.2C195.432 206.2 199.129 205.634 202.658 204.559C208.063 202.889 213.328 199.946 218.957 200.399H219.125Z" fill="#F28BBB"/>
<path d="M171.851 194.117C173.083 194.938 173.867 196.664 173.139 197.966C172.215 199.607 169.89 199.437 168.07 199.069C158.52 197.202 148.802 196.381 139.084 196.551C135.947 196.608 131.914 196.806 129.254 198.475C125.417 197.456 121.608 196.268 117.799 195.108C113.29 193.721 108.641 192.25 104.973 189.25C103.208 187.807 101.612 185.798 101.724 183.534C101.78 182.176 102.452 180.902 103.096 179.714C104.132 177.818 105.169 175.894 106.177 173.998C105.897 177.28 107.017 180.789 109.79 182.459C110.91 183.138 112.17 183.449 113.43 183.76C120.488 185.543 127.517 187.326 134.575 189.109C138.552 190.127 142.556 191.118 146.589 191.74C153.507 192.816 160.564 192.759 167.566 193.127C169.078 193.184 170.618 193.297 171.851 194.117Z" fill="#050606"/>
<path d="M171.431 206.851C171.879 208.238 170.647 209.709 169.247 210.105C167.846 210.502 166.362 210.105 164.962 209.794C159.697 208.634 154.319 208.294 148.942 208.294C148.578 206.936 148.326 205.351 148.382 204.672C147.822 204.757 147.234 204.814 146.786 204.474C146.31 204.135 146.17 203.512 146.086 202.946C146.002 202.465 145.89 201.927 145.582 201.56C148.214 201.814 150.875 202.012 153.507 202.295C158.38 202.861 163.197 203.795 168.014 204.757C169.387 205.04 170.983 205.493 171.431 206.851Z" fill="#F28BBB"/>
<path d="M149.25 125.015C145.721 128.241 142.221 131.438 138.692 134.664C137.208 136.022 135.723 137.381 134.407 138.88C133.231 140.239 132.166 141.739 130.906 143.04C129.002 145.021 126.649 146.521 124.073 147.426C123.961 147.115 123.821 146.832 123.681 146.549C127.489 142.672 132.278 138.711 136.115 134.975C140.064 131.07 144.181 127.194 149.25 125.015Z" fill="#3B3C3B"/>
<path d="M78.1708 159.991C78.787 160.67 79.4311 161.349 80.0752 162.028C79.4311 161.292 78.787 160.613 78.1708 159.991ZM87.3848 155.35C87.3568 155.435 87.3288 155.491 87.2728 155.576C85.6764 154.812 84.1081 154.02 82.5118 153.256C81.5595 152.803 80.6073 152.322 79.5711 152.096C78.5069 151.841 77.4147 151.869 76.3505 152.067C76.8266 153.567 77.6667 154.954 78.759 156.057C79.3751 156.68 80.0752 157.246 80.6914 157.84C82.6238 159.736 83.856 162.198 85.3403 164.462C85.3964 164.546 85.4524 164.631 85.5644 164.688C85.7884 164.773 85.9845 164.518 86.0685 164.32C87.3848 161.575 86.8247 158.349 87.3848 155.35ZM105.953 153.369C107.129 152.35 108.025 151.049 108.389 149.549C108.109 149.775 107.745 149.917 107.381 149.973C106.625 150.058 105.897 149.832 105.141 149.634C104.636 149.52 104.104 149.436 103.572 149.407C102.788 149.351 102.004 149.379 101.248 149.52C100.576 149.634 99.9314 149.832 99.3433 150.143C98.9512 150.341 98.5871 150.567 98.2511 150.85C97.971 151.077 97.719 151.331 97.4949 151.614C96.4027 152.973 96.0386 154.84 96.0946 156.595C97.4669 156.425 98.8672 156.284 100.211 156.001C95.0584 158.123 90.6895 162.169 87.1327 166.584C94.1342 161.434 101.752 157.189 109.761 153.935C109.761 153.935 109.789 153.935 109.789 153.907C110.714 153.68 111.61 153.341 112.422 152.803C114.551 151.869 116.595 150.709 117.967 148.841C118.331 148.841 118.723 148.841 119.087 148.841C117.463 151.813 115.727 154.784 113.262 157.104C112.73 157.614 112.142 158.095 111.582 158.547C111.358 158.604 111.134 158.632 110.91 158.689C107.633 159.283 104.272 159.028 100.94 159.396C100.436 159.453 99.8194 159.566 99.5954 160.047C102.592 160.811 105.729 160.981 108.809 160.613C108.333 160.981 107.857 161.349 107.381 161.717C102.592 165.707 99.3993 171.621 98.6432 177.875C99.8754 175.271 101.108 172.64 102.816 170.319C105.841 166.131 110.098 163.103 113.766 159.481C114.607 159.198 115.419 158.887 116.231 158.519C117.827 157.783 119.452 156.793 120.208 155.18C120.544 154.473 120.684 153.652 121.188 153.058C121.664 152.435 123.26 152.039 123.764 152.633C123.68 152.944 123.568 153.227 123.456 153.539C123.4 153.708 123.316 153.907 123.26 154.076C122.588 155.944 121.832 157.953 120.236 159.113C118.751 160.189 116.791 160.33 115.139 161.151C112.478 162.424 110.91 165.197 109.509 167.801C108.389 169.866 107.269 171.932 106.177 173.998C105.141 175.894 104.104 177.818 103.096 179.714C102.452 180.931 101.78 182.176 101.724 183.534C101.612 185.826 103.208 187.835 104.972 189.25C108.641 192.25 113.29 193.693 117.799 195.108C121.608 196.268 125.417 197.457 129.254 198.475C133.707 199.664 138.187 200.682 142.752 201.248C143.257 201.305 143.761 201.362 144.265 201.418C144.685 201.475 145.105 201.503 145.553 201.56C145.861 201.928 145.973 202.465 146.057 202.946C146.141 203.512 146.281 204.135 146.757 204.474C147.205 204.786 147.822 204.729 148.354 204.672C148.298 205.352 148.55 206.964 148.914 208.294C143.257 208.294 137.571 208.634 131.914 208.691C121.412 208.832 110.91 208.011 100.52 206.314V206.031C96.3467 204.616 92.0058 203.116 89.0371 199.862C86.7687 197.4 85.3403 194.004 82.3717 192.476C80.7754 191.656 78.899 191.486 77.2747 190.665C75.6503 189.844 74.306 187.92 75.0622 186.279C75.4543 185.43 76.4065 184.723 76.2664 183.76C76.0984 182.713 74.7821 182.374 73.8019 182.063C72.7937 181.723 71.7575 180.478 72.5416 179.742C70.9173 179.572 70.4692 177.422 70.4132 175.781C70.3572 174.394 69.9371 172.668 68.8449 172.13C70.5532 172.3 72.2616 170.602 72.5416 168.791C72.8497 166.725 71.9255 164.688 71.0293 162.792C70.0771 160.783 69.1249 158.802 68.1727 156.793C66.9685 154.274 65.7922 151.247 67.2485 148.87C67.5286 148.389 67.9207 147.823 68.0887 147.285C68.2287 147.653 68.3968 147.992 68.5368 148.332C71.0293 153.935 74.25 156.114 78.1148 159.991C75.3983 156.906 73.2698 153.482 72.4576 149.464C76.9946 149.577 81.7276 149.719 85.7884 151.813C86.7406 152.294 87.7489 152.916 88.7851 152.718C88.9531 152.69 89.1492 152.633 89.2892 152.548C89.7373 152.35 90.1294 151.982 90.4094 151.53C91.1096 150.964 91.8377 150.454 92.5939 150.03C95.3104 148.445 98.3631 147.483 101.108 145.927C101.304 145.813 101.528 145.672 101.752 145.559C102.116 145.332 102.508 145.106 102.872 144.88C105.645 143.21 108.613 141.456 111.414 142.248C111.106 143.125 110.994 144.087 111.134 145.021C111.134 145.049 111.134 145.106 111.162 145.134C111.218 145.219 111.33 145.219 111.414 145.191C111.946 145.106 112.478 145.021 113.01 144.936C113.206 144.908 113.374 144.88 113.57 144.851C114.046 144.766 114.579 144.653 114.859 144.257C115.055 144.37 115.251 144.455 115.447 144.512C116.259 144.795 117.127 144.823 117.995 144.766C118.583 144.738 119.171 144.682 119.732 144.653C120.18 144.653 120.628 144.653 121.076 144.738C121.412 144.795 121.748 144.908 122.056 145.049C122.14 145.078 122.224 145.134 122.308 145.191C122.868 145.53 123.316 146.012 123.652 146.549C123.82 146.832 123.96 147.115 124.045 147.426C124.185 147.794 124.269 148.19 124.325 148.587C123.344 148.587 121.776 148.785 121.076 148.275L121.02 148.247C121.076 148.049 121.132 147.823 121.272 147.681C122.252 146.776 121.132 144.568 119.956 145.502C118.275 145.813 118.023 144.993 116.483 145.757C115.559 146.21 114.971 147.172 114.438 148.049C114.382 148.162 114.326 148.275 114.326 148.389C114.354 148.587 114.607 148.643 114.831 148.672C115.363 148.728 115.923 148.756 116.455 148.785C115.083 149.747 113.878 151.784 112.562 152.69C112.506 152.718 112.45 152.775 112.394 152.803C111.526 153.199 110.63 153.539 109.761 153.907C108.025 154.331 106.177 154.444 104.412 154.755C104.104 154.812 103.824 154.869 103.516 154.925C103.684 154.84 103.852 154.784 103.992 154.699C104.188 154.586 104.356 154.501 104.552 154.388C105.085 154.076 105.533 153.737 105.953 153.369Z" fill="#121313"/>
<path d="M159.557 141.484C152.835 146.747 144.462 149.831 135.976 150.199C132.083 150.369 128.134 149.973 124.297 150.567C124.381 150.114 124.409 149.662 124.381 149.209C135.528 144.823 148.747 146.634 159.557 141.484Z" fill="#3B3C3B"/>
<path d="M139.617 113.186C138.861 114.205 138.189 115.252 137.516 116.327C131.719 125.524 125.866 134.834 122.365 145.134L122.337 145.191C122.253 145.134 122.169 145.106 122.085 145.049C121.777 144.908 121.441 144.794 121.105 144.738C124.802 133.164 131.579 122.354 139.617 113.186Z" fill="#3B3C3B"/>
<path d="M136.396 161.405C137.572 163.188 138.664 164.999 139.728 166.838C137.32 162.876 132.503 161.009 129.702 157.302C129.226 156.651 128.806 155.972 128.246 155.406C127.014 154.189 125.221 153.764 123.485 153.482C123.597 153.17 123.681 152.887 123.793 152.576C123.877 152.293 123.961 152.01 124.045 151.727C127.574 153.34 131.186 155.066 133.819 157.924C134.799 159 135.611 160.188 136.396 161.405Z" fill="#3B3C3B"/>
<path d="M119.984 125.609C120.32 124.958 123.932 119.015 124.661 119.185C123.232 122.411 118.975 130.957 118.527 134.438C118.079 137.89 118.359 141.484 119.76 144.653C119.171 144.681 118.611 144.738 118.023 144.766C116.707 141.88 115.979 137.664 116.567 134.607C117.155 131.438 118.499 128.467 119.984 125.609Z" fill="#3B3C3B"/>
<path d="M124.297 150.567C124.241 150.964 124.157 151.36 124.045 151.756C123.961 152.039 123.877 152.322 123.793 152.605C123.288 152.011 121.692 152.435 121.216 153.029C120.74 153.652 120.572 154.444 120.236 155.152C119.48 156.765 117.855 157.755 116.259 158.491C115.447 158.859 114.635 159.17 113.794 159.453C114.243 159.028 114.663 158.576 115.083 158.123C115.559 157.614 116.007 157.048 116.399 156.425C117.491 155.633 118.415 154.642 119.004 153.426C119.732 151.982 119.956 150.369 120.236 148.785C120.46 148.756 120.656 148.7 120.824 148.558C120.936 148.473 120.992 148.36 121.02 148.219L121.076 148.247C121.776 148.756 123.344 148.558 124.325 148.558C124.353 148.756 124.381 148.954 124.381 149.181C124.409 149.662 124.353 150.115 124.297 150.567Z" fill="#994656"/>
<path d="M116.483 148.784C115.951 148.756 115.391 148.728 114.859 148.671C114.663 148.643 114.41 148.586 114.354 148.388C114.326 148.275 114.382 148.162 114.466 148.048C114.999 147.171 115.587 146.209 116.511 145.756C118.023 144.992 118.303 145.813 119.984 145.502C121.188 144.54 122.28 146.747 121.3 147.681C121.16 147.822 121.104 148.048 121.048 148.247C121.02 148.388 120.964 148.501 120.852 148.586C120.684 148.728 120.488 148.784 120.264 148.813C120.264 148.728 120.292 148.671 120.292 148.586C120.264 148.671 120.208 148.728 120.18 148.813C120.096 148.813 119.984 148.813 119.9 148.841C119.62 148.841 119.368 148.841 119.087 148.869C118.723 148.869 118.331 148.869 117.967 148.869C117.491 148.841 116.987 148.813 116.483 148.784Z" fill="#A54A5B"/>
<path d="M120.293 148.586C120.293 148.672 120.265 148.729 120.265 148.814C120.237 148.814 120.208 148.814 120.18 148.814C120.208 148.729 120.265 148.672 120.293 148.586Z" fill="#A54A5B"/>
<path d="M120.18 148.813C120.208 148.813 120.236 148.813 120.264 148.813C119.984 150.397 119.76 152.01 119.032 153.454C118.416 154.67 117.519 155.661 116.427 156.453C117.94 154.133 119.004 151.275 120.18 148.813Z" fill="#121313"/>
<path d="M119.9 148.841C119.984 148.841 120.068 148.841 120.18 148.813C119.004 151.275 117.968 154.133 116.4 156.453C114.999 157.472 113.291 158.151 111.583 158.547C112.171 158.094 112.731 157.613 113.263 157.104C115.727 154.784 117.436 151.812 119.088 148.841C119.368 148.841 119.648 148.841 119.9 148.841Z" fill="#3B3C3B"/>
<path d="M116.483 148.785C116.987 148.813 117.491 148.841 117.968 148.841C116.595 150.709 114.551 151.869 112.422 152.803C112.478 152.775 112.534 152.746 112.59 152.69C113.907 151.812 115.111 149.747 116.483 148.785Z" fill="#3B3C3B"/>
<path d="M111.582 158.547C113.291 158.151 114.999 157.472 116.4 156.453C116.007 157.048 115.559 157.614 115.083 158.151C114.663 158.604 114.215 159.057 113.795 159.481C112.171 160.019 110.518 160.387 108.838 160.585C109.734 159.906 110.686 159.255 111.582 158.547Z" fill="#3B3C3B"/>
<path d="M114.859 144.228C114.579 144.625 114.047 144.738 113.571 144.823C113.375 144.851 113.206 144.879 113.01 144.908C112.73 144.738 112.478 144.483 112.31 144.2C111.946 143.663 111.806 143.012 111.722 142.389L111.75 142.333C111.946 142.417 112.17 142.502 112.366 142.587C113.234 143.04 113.991 143.776 114.859 144.228Z" fill="#F2E03D"/>
<path d="M110.911 158.689C111.135 158.66 111.359 158.604 111.583 158.547C110.687 159.255 109.734 159.905 108.81 160.613C105.729 160.981 102.593 160.811 99.5962 160.047C99.8202 159.566 100.408 159.453 100.94 159.396C104.245 159.028 107.634 159.255 110.911 158.689Z" fill="#994656"/>
<path d="M109.79 153.906C110.658 153.567 111.554 153.199 112.423 152.803C111.61 153.34 110.714 153.68 109.79 153.906Z" fill="#3B3C3B"/>
<path d="M102.088 155.491C102.565 155.35 103.013 155.152 103.461 154.953C103.489 154.953 103.517 154.925 103.545 154.925C103.853 154.869 104.133 154.812 104.441 154.755C106.205 154.444 108.082 154.359 109.79 153.906C109.79 153.906 109.762 153.906 109.762 153.935C101.724 157.189 94.1068 161.462 87.1333 166.584C90.69 162.169 95.059 158.123 100.212 156.001C100.828 155.859 101.472 155.718 102.088 155.491Z" fill="#3B3C3B"/>
<path d="M113.795 159.481C110.126 163.075 105.841 166.131 102.844 170.319C101.164 172.639 99.9317 175.271 98.6714 177.874C99.3995 171.621 102.592 165.706 107.409 161.716C107.857 161.32 108.333 160.952 108.838 160.613C110.518 160.386 112.17 160.019 113.795 159.481Z" fill="#3B3C3B"/>
<path d="M104.889 150.737C105.337 151.218 105.897 152.52 105.953 153.369C105.533 153.737 105.057 154.076 104.58 154.359C104.636 154.02 104.468 153.227 104.328 152.916C104.02 152.18 103.684 151.445 103.18 150.822C102.676 150.2 102.004 149.69 101.22 149.577V149.492C101.976 149.351 102.76 149.322 103.544 149.379C104.02 149.832 104.468 150.284 104.889 150.737Z" fill="#F2E03D"/>
<path d="M101.248 149.605C102.032 149.718 102.704 150.228 103.209 150.85C103.713 151.473 104.021 152.209 104.357 152.944C104.497 153.256 104.665 154.048 104.609 154.387C104.441 154.501 104.245 154.614 104.049 154.699C103.209 154.953 101.5 153.737 100.772 153.256C100.044 152.774 99.5398 151.926 99.4558 151.02C99.4558 150.907 99.3998 150.482 99.3438 150.143C99.9319 149.86 100.576 149.662 101.248 149.52V149.605Z" fill="#050606"/>
<path d="M100.744 153.256C101.472 153.737 103.18 154.953 104.021 154.699C103.853 154.784 103.713 154.869 103.544 154.925C102.9 155.067 102.284 155.236 101.668 155.463C100.688 155.321 99.4556 154.784 98.8955 154.416C98.0833 153.878 97.6352 152.831 97.8593 151.869C97.9153 151.586 98.0833 151.162 98.2514 150.85C98.5874 150.567 98.9515 150.341 99.3436 150.143C99.3996 150.482 99.4556 150.935 99.4556 151.02C99.5116 151.926 100.016 152.746 100.744 153.256Z" fill="#F2E03D"/>
<path d="M102.901 144.88C102.509 145.106 102.145 145.332 101.781 145.559C101.221 145.53 100.016 144.455 99.6803 144.002C98.7001 142.559 97.6359 141.059 96.0956 140.239C95.6755 140.012 95.2274 139.843 94.8353 139.588C94.0231 139.022 93.519 137.466 93.519 136.305C95.5635 137.409 97.6079 138.513 99.6523 139.616C101.053 140.38 102.481 142.927 102.901 144.88Z" fill="#F4C8D7"/>
<path d="M101.752 145.558C101.528 145.672 101.332 145.813 101.108 145.926C98.3634 147.483 95.3387 148.445 92.5941 150.029C91.838 150.482 91.0818 150.963 90.4097 151.529C90.7178 151.076 90.8858 150.511 90.9698 149.973C91.1098 148.728 90.7738 147.483 90.5497 146.266C89.8216 142.559 90.0736 138.654 91.2499 135.06C92.006 135.456 92.7622 135.881 93.5183 136.277C93.5183 137.437 94.0504 139.022 94.8346 139.559C95.2267 139.842 95.6748 139.984 96.0949 140.21C97.6352 141.031 98.6714 142.531 99.6796 143.974C99.9877 144.455 101.192 145.53 101.752 145.558Z" fill="#050606"/>
<path d="M34.65 96.0379C38.7108 99.2355 44.2 101.018 48.4009 104.244C53.5259 108.178 56.6066 114.233 59.0991 120.204C61.0875 124.986 62.8239 129.91 64.2802 134.89C64.6443 137.833 64.9804 140.805 65.3444 143.748C65.4285 144.483 65.5965 145.332 66.2686 145.615C66.6607 145.785 67.1368 145.728 67.5289 145.842C67.6969 146.323 67.893 146.775 68.061 147.228C67.893 147.766 67.5009 148.332 67.2208 148.813C65.7645 151.162 66.9408 154.218 68.145 156.736C69.0972 158.745 70.0494 160.726 71.0016 162.735C71.8978 164.631 72.822 166.669 72.5139 168.734C72.2339 170.545 70.5255 172.243 68.8172 172.073C68.6211 171.96 68.3691 171.904 68.117 171.904C68.3411 171.989 68.5931 172.045 68.8172 172.073C69.9094 172.611 70.3295 174.366 70.3855 175.724C70.4415 177.365 70.8896 179.516 72.5139 179.685C71.7298 180.421 72.766 181.666 73.7742 182.006C74.7824 182.345 76.0987 182.657 76.2387 183.704C76.3788 184.638 75.4546 185.345 75.0345 186.222C74.2783 187.863 75.6226 189.816 77.2469 190.608C78.8713 191.429 80.7477 191.57 82.344 192.419C85.3126 193.947 86.7409 197.343 89.0094 199.805C92.0061 203.059 96.347 204.587 100.492 205.974V206.257C94.9467 205.323 89.4295 204.163 83.9964 202.72C83.8843 202.691 83.7723 202.663 83.6323 202.635C80.5796 201.758 77.7791 199.126 74.9505 197.315C71.8138 195.277 68.173 194.089 64.9243 192.25C60.5274 189.788 56.9147 186.166 53.3299 182.572C46.9446 176.177 40.4472 169.612 35.4621 162.141C33.3617 159 31.5133 155.661 30.057 152.124C29.4409 150.652 28.8808 149.124 27.8445 147.936C27.0044 147.002 25.7441 146.351 24.5118 146.436C24.2038 146.464 23.8957 146.521 23.5876 146.662C26.8643 139.22 25.6321 135.853 24.9879 132.344C24.9319 131.636 24.8479 130.929 24.7359 130.25C24.7639 130.985 24.8759 131.665 24.9879 132.344C25.436 138.626 22.9715 144.936 19.5548 150.313C20.0309 149.86 20.395 149.492 20.703 149.181C16.5862 153.737 13.9256 159.651 13.1975 165.763C13.1695 165.65 13.1695 165.508 13.1414 165.395C13.0854 164.971 13.0014 164.546 12.7494 164.207C12.5533 163.952 12.3013 163.811 12.0772 163.584C11.8252 163.329 11.6291 163.018 11.4611 162.679C10.5649 161.009 9.86476 159.255 9.36065 157.415C9.1086 157.896 8.40845 157.953 7.96036 157.67C7.51226 157.387 7.2322 156.878 7.00816 156.397C6.28 154.869 5.66387 153.284 5.15977 151.643L4.87971 151.671C3.53543 140.946 -1.14156 129.882 0.258737 118.987C1.88308 106.282 12.6934 95.3588 25.24 93.6326C20.0589 85.1433 14.8218 76.5975 11.4331 67.231C7.98836 57.8079 6.47605 47.4227 8.91256 37.6883C12.0492 25.1808 21.2632 15.2201 30.8972 6.73082C30.9532 6.67422 31.0372 6.61763 31.0932 6.56104C31.0932 6.56104 31.0932 6.56103 31.1212 6.58933C31.2893 6.75912 31.3173 7.0138 31.3453 7.24018C31.4573 8.40038 31.5693 9.53228 31.7094 10.6925C31.7374 10.9755 31.7654 11.2584 31.6814 11.5131C31.5133 11.9659 31.0652 12.1922 30.7011 12.5035C30.3091 12.8714 30.029 13.3524 29.945 13.8901L30.085 14.2014C26.3042 17.5971 23.3916 22.0398 21.5152 26.7655C17.9865 35.6509 17.5944 45.4985 17.8464 55.063C18.0145 61.1753 18.4066 67.3725 20.2829 73.1735C23.0835 81.8042 28.9088 89.0484 34.65 96.0379Z" fill="#F28BBB"/>
<path d="M87.2727 155.576C87.3007 155.491 87.3287 155.434 87.3847 155.349C86.8526 158.349 87.3847 161.575 86.0965 164.348C85.9845 164.546 85.8164 164.801 85.5924 164.716C85.4803 164.688 85.4243 164.574 85.3683 164.489C83.884 162.226 82.6517 159.764 80.7193 157.868C80.1032 157.245 79.4031 156.708 78.7869 156.085C77.6947 154.953 76.8545 153.595 76.3784 152.095C77.4426 151.869 78.5349 151.869 79.5991 152.123C80.6353 152.35 81.5875 152.831 82.5397 153.284C84.1081 154.019 85.7044 154.812 87.2727 155.576Z" fill="#F4C8D7"/>
<path d="M67.5846 145.87C67.1925 145.757 66.7164 145.813 66.3244 145.643C65.6522 145.361 65.4842 144.483 65.4002 143.776C65.0361 140.805 64.672 137.862 64.3359 134.919C64.42 135.23 64.504 135.513 64.588 135.824C65.5402 139.163 66.3804 142.587 67.5846 145.87Z" fill="#121313"/>
<path d="M60.3872 27.6427C60.2472 27.7842 60.1072 27.8974 59.9391 27.9823C59.379 28.2652 58.6509 28.2086 58.1468 27.8125C57.3626 27.1899 57.0825 25.8882 56.1023 25.7185C56.1583 24.8412 56.4384 23.964 56.9425 23.2283C57.5306 22.4642 58.0067 21.587 58.2588 20.6532C59.379 16.5783 57.1946 12.0507 53.6938 9.73034C50.1931 7.40994 45.6841 7.04207 41.5953 7.94759C37.2544 8.88141 33.3615 11.1169 30.0849 14.1448L29.9448 13.8335C30.0288 13.2958 30.3089 12.8148 30.701 12.4469C31.0651 12.1356 31.5132 11.9092 31.6812 11.4565C31.7652 11.2018 31.7372 10.9188 31.7092 10.6359C31.5972 9.47566 31.4851 8.34375 31.3451 7.18355C31.3171 6.95717 31.2891 6.7025 31.1211 6.53271C31.1211 6.53271 31.1211 6.53271 31.0931 6.50441C33.5856 4.3255 36.2181 2.17489 39.3548 1.15617C44.5079 -0.541679 50.1091 1.07128 55.2061 2.93892C59.7991 4.60848 64.7842 6.98547 66.4645 11.598C68.4249 16.9745 65.0082 22.8321 61.0874 27.0201C60.8913 27.2465 60.6953 27.4446 60.4713 27.671L60.3872 27.6427Z" fill="#121313"/>
<path d="M60.3875 27.6425L60.4715 27.7274C58.147 30.1044 55.4304 32.2267 52.2097 32.6511C48.681 33.1039 44.5921 30.6703 44.5361 27.0765C44.5361 26.3691 44.7042 25.605 45.2923 25.2089C46.2165 24.5863 47.4207 25.3221 48.457 25.8031C51.3976 27.1614 54.9823 25.8031 56.9707 23.2563C56.4666 23.9921 56.1866 24.8693 56.1306 25.7465C57.1108 25.888 57.3908 27.218 58.175 27.8406C58.6791 28.2367 59.4073 28.2933 59.9674 28.0103C60.1074 27.8972 60.2474 27.784 60.3875 27.6425Z" fill="#F28BBB"/>
<path d="M32.5217 196.098C32.9698 196.324 33.2779 196.947 32.9978 197.343C32.8018 197.654 32.3537 197.711 31.9896 197.739C31.1494 197.824 30.3093 197.881 29.4411 197.966C29.021 197.994 28.5729 198.05 28.2088 197.881C27.7327 197.683 27.4246 197.23 27.1446 196.805C26.3324 195.589 25.4922 194.372 24.9041 193.013C24.232 191.514 23.8679 189.901 23.5038 188.288C22.2716 182.798 21.0113 177.308 20.0031 171.762C19.471 168.904 19.0229 165.961 19.611 163.131C20.1991 160.245 21.8235 157.67 23.0837 155.038C24.372 152.378 25.3522 149.35 24.54 146.492V146.464C25.7443 146.379 27.0326 147.03 27.8727 147.964C28.937 149.152 29.4971 150.68 30.0852 152.152C31.5415 155.689 33.3899 159 35.4903 162.169C29.7771 169.357 26.6125 178.553 26.6685 187.778C26.6685 189.42 26.8085 191.118 27.4527 192.646C28.1248 194.145 29.4131 195.475 31.0094 195.758C31.5415 195.872 32.0736 195.872 32.5217 196.098Z" fill="#AD648D"/>
<path d="M25.0438 132.4C25.6879 135.909 26.8922 139.276 23.6435 146.718C23.0834 146.973 22.6073 147.398 22.1592 147.822C21.6831 148.275 21.235 148.756 20.7869 149.237C20.4788 149.548 20.1148 149.916 19.6387 150.369C23.0274 144.992 25.5199 138.682 25.0438 132.4Z" fill="#AD648D"/>
<path d="M23.4754 197.031C24.6796 197.428 25.7999 198.871 25.0157 199.89C22.4671 199.21 19.3025 201.899 17.4541 200.003C16.922 199.465 16.7259 198.729 16.5299 198.022C14.3454 190.297 10.5926 182.996 5.55159 176.77C4.54338 175.525 3.45115 174.28 3.05906 172.724C2.47094 170.432 3.50716 168.083 4.2073 165.819C5.6076 161.207 5.6076 156.509 4.96346 151.755L5.24352 151.727C5.74763 153.368 6.36376 154.953 7.09191 156.481C7.31596 156.962 7.59602 157.471 8.04411 157.754C8.49221 158.037 9.19235 157.981 9.44441 157.5C9.94851 159.311 10.6487 161.094 11.5449 162.763C11.7129 163.074 11.9089 163.414 12.161 163.669C12.385 163.895 12.6371 164.065 12.8331 164.291C13.0852 164.631 13.1692 165.055 13.2252 165.48C13.2532 165.593 13.2532 165.734 13.2812 165.848C13.1692 166.725 13.1132 167.63 13.1132 168.508C13.0012 173.063 13.9534 177.563 15.1296 181.977C16.2218 186.052 17.5101 190.099 18.9944 194.032C19.2185 194.654 19.4985 195.305 19.9746 195.786C20.8708 196.607 22.2711 196.635 23.4754 197.031Z" fill="#121313"/>
<path d="M24.792 130.306C24.904 131.014 25.016 131.693 25.044 132.4C24.932 131.721 24.82 131.014 24.792 130.306Z" fill="#F28BBB"/>
</svg>
