<svg width="677" height="286" viewBox="0 0 677 286" fill="none" xmlns="http://www.w3.org/2000/svg">
<path d="M0.323242 127.748L645.917 0.469052L677 158.13L31.4061 285.409L0.323242 127.748Z" fill="white"/>
<path d="M117.872 251.675L93.4031 129.118L123.567 123.095L133.17 171.192L163.47 115.129L200.641 107.707L162.738 173.933L228.317 229.625L191.264 237.022L136.49 187.818L148.037 245.653L117.872 251.675Z" fill="black"/>
<path d="M253.048 208.139C239.497 198.413 230.897 184.406 227.245 166.117C223.578 147.749 226.141 131.513 234.933 117.408C243.788 103.209 257.756 94.2045 276.836 90.395C295.996 86.5697 312.351 89.5201 325.901 99.2462C339.514 108.877 348.155 122.877 351.822 141.245C355.473 159.533 352.871 175.777 344.016 189.977C335.224 204.081 321.248 213.046 302.088 216.872C283.008 220.681 266.661 217.77 253.048 208.139ZM261.837 131.549C257.733 139.86 256.732 149.28 258.835 159.81C260.937 170.34 265.478 178.654 272.459 184.752C279.439 190.85 287.601 192.966 296.943 191.101C306.364 189.22 313.087 184.132 317.112 175.837C321.215 167.526 322.216 158.105 320.114 147.575C318.011 137.046 313.47 128.732 306.489 122.633C299.588 116.519 291.427 114.403 282.005 116.284C272.663 118.149 265.94 123.237 261.837 131.549Z" fill="black"/>
<path d="M353.758 103.934L348.613 78.1638L444.45 59.0294L449.595 84.7997L416.818 91.3439L436.142 188.131L405.978 194.154L386.654 97.3663L353.758 103.934Z" fill="black"/>
<path d="M478.695 139.007C475.039 132.245 472.453 125.063 470.935 117.463C469.418 109.862 469.048 102.239 469.827 94.5914C470.669 86.8492 472.69 79.4478 475.89 72.3873C479.154 65.2317 484.326 58.9714 491.405 53.6062C498.548 48.1461 507.147 44.4123 517.201 42.4048C526.94 40.4606 535.988 40.6298 544.347 42.9126C552.691 45.1162 559.648 48.8314 565.22 54.0582C570.855 59.19 575.429 64.9865 578.942 71.4477C582.534 77.893 585.025 84.5992 586.416 91.5663L588.906 104.036L504.469 120.894C506.272 128.273 510.26 134.228 516.433 138.758C522.67 143.193 530.182 144.534 538.971 142.779C551.48 140.282 560.119 132.012 564.89 117.969L591.013 122.015C585.4 147.917 569.213 163.539 542.453 168.881C532.398 170.889 523.033 170.783 514.357 168.563C505.76 166.328 498.581 162.534 492.82 157.18C487.137 151.811 482.429 145.753 478.695 139.007ZM500.416 96.8815L553.263 86.3304C546.745 71.4133 536.447 65.4011 522.37 68.2939C515.245 69.7166 509.757 73.1585 505.908 78.6197C502.059 84.0809 500.228 90.1682 500.416 96.8815Z" fill="black"/>
</svg>
