<svg width="511" height="506" viewBox="0 0 511 506" fill="none" xmlns="http://www.w3.org/2000/svg">
<path d="M94.2866 129.784C86.2431 138.416 77.9182 146.718 69.3129 154.758C66.8541 157.046 64.3603 159.301 61.9005 161.519C64.2487 163.707 66.5618 165.862 68.9099 168.05C75.9406 161.207 82.5848 153.936 88.7394 146.277C90.0316 144.68 90.4895 142.783 89.7031 140.957C88.9877 139.265 87.1009 137.917 85.1672 138.165C82.6464 138.482 80.2053 139.555 78.5041 141.592C77.0404 143.303 75.9974 145.406 75.6816 147.572C75.3658 149.738 75.3285 152.027 76.1529 154.093C76.7271 155.585 77.3647 156.658 78.3849 157.882C79.2289 158.873 80.2774 159.645 81.3941 160.344C82.3365 160.949 83.3452 161.342 84.4229 161.731C85.4657 162.088 86.5425 162.408 87.6514 162.553C89.9395 162.908 92.3268 162.946 94.6412 162.711C98.9935 162.256 103.372 161.211 107.431 159.525C109.873 158.521 112.278 157.345 114.576 155.933C116.943 154.517 119.065 152.872 121.185 151.089C122.074 150.346 122.638 148.616 122.588 147.545C122.504 146.441 122.213 145.487 121.545 144.659C120.067 142.872 117.326 142.3 115.236 143.701C108.073 148.507 101.337 154.189 95.5461 160.615C93.3998 162.989 91.3625 165.737 90.1246 168.752C88.6851 172.194 87.8754 176.155 89.239 179.681C89.7412 180.969 90.2746 182.013 91.1546 183.106C91.9646 184.134 92.8057 184.918 93.9233 185.686C95.9142 187.063 98.0708 187.91 100.433 188.608C103.559 189.539 106.784 190.084 110.038 190.315C117.276 190.84 124.495 190.118 131.555 187.882C134.999 186.786 138.439 185.344 141.595 183.502C143.311 182.504 144.886 181.306 146.424 180.006C147.963 178.706 149.187 177.181 150.34 175.522C152.679 172.099 153.519 167.824 152.565 163.929C151.681 160.03 148.871 157.002 145.591 154.971C142.556 153.099 138.704 152.243 135.042 152.589C131.001 152.992 127.113 154.494 123.579 156.6C122.104 157.481 120.7 158.496 119.366 159.576C117.894 160.733 116.458 161.923 115.163 163.313C112.777 165.874 110.779 168.932 109.857 172.31C108.738 176.392 109.8 180.663 112.711 183.512C115.867 186.589 120.789 187.28 125.14 186.756C132.876 185.832 140.615 182.656 146.948 177.897C148.66 176.622 150.335 175.176 151.906 173.701C149.321 171.908 146.701 170.082 144.116 168.288C142.019 171.664 140.305 175.26 139.146 179.033C138.019 182.561 137.451 186.474 137.917 190.119C138.227 192.527 138.81 194.642 139.878 196.798C140.875 198.821 142.353 200.677 144.103 202.102C147.883 205.283 152.68 206.951 157.602 207.642C162.697 208.357 167.847 208.1 172.972 208.433C172.556 208.387 172.175 208.374 171.725 208.365C174.115 208.541 176.472 208.893 178.799 209.557C179.911 209.91 181.462 209.51 182.456 208.865C183.519 208.216 184.505 206.947 184.73 205.722C184.955 204.497 184.901 203.148 184.195 202.08C183.453 200.979 182.44 200.309 181.155 199.931C174.8 198.109 167.993 198.668 161.449 198.243C161.865 198.288 162.245 198.301 162.695 198.311C159.89 198.089 157.082 197.659 154.406 196.737C154.788 196.888 155.205 197.003 155.588 197.155C153.919 196.556 152.317 195.816 150.85 194.79C151.2 195.048 151.549 195.305 151.933 195.526C150.884 194.754 149.973 193.905 149.129 192.913C149.41 193.244 149.692 193.574 149.939 193.941C149.234 193.011 148.598 192.008 148.098 190.928C148.276 191.299 148.42 191.706 148.599 192.077C148.098 190.928 147.804 189.697 147.58 188.463C147.655 188.874 147.694 189.253 147.735 189.701C147.506 188.121 147.518 186.492 147.737 184.851C147.674 185.27 147.644 185.653 147.616 186.105C147.929 183.731 148.553 181.375 149.387 179.145C149.22 179.535 149.087 179.959 148.92 180.349C149.955 177.692 151.269 175.158 152.757 172.718C153.366 171.713 153.516 170.076 153.19 169.021C152.864 167.965 152.264 167.133 151.356 166.492C149.33 165.083 146.776 165.505 144.967 167.235C144.216 167.971 143.43 168.674 142.609 169.344C142.951 169.047 143.293 168.751 143.669 168.487C140.865 170.794 137.779 172.77 134.479 174.274C134.857 174.079 135.27 173.917 135.648 173.723C132.486 175.219 129.179 176.238 125.799 176.914C126.213 176.822 126.592 176.765 127.041 176.705C125.247 177.015 123.416 177.223 121.616 177.117C122.032 177.163 122.413 177.176 122.862 177.185C121.893 177.101 120.922 176.948 119.983 176.621C120.366 176.772 120.783 176.887 121.165 177.039C120.539 176.797 119.912 176.486 119.319 176.139C119.669 176.396 120.018 176.653 120.402 176.874C119.947 176.519 119.528 176.196 119.175 175.731C119.457 176.062 119.738 176.392 119.985 176.759C119.633 176.294 119.35 175.825 119.1 175.32C119.279 175.691 119.423 176.098 119.601 176.469C119.386 175.927 119.241 175.45 119.164 174.9C119.239 175.312 119.279 175.691 119.319 176.139C119.242 175.519 119.234 174.966 119.294 174.339C119.231 174.758 119.202 175.141 119.173 175.593C119.301 174.823 119.464 174.086 119.765 173.342C119.597 173.732 119.465 174.156 119.297 174.546C119.764 173.273 120.474 172.089 121.254 170.971C120.982 171.333 120.71 171.695 120.474 172.089C121.73 170.389 123.162 168.922 124.804 167.582C124.462 167.879 124.121 168.175 123.744 168.439C126.035 166.542 128.467 164.845 131.182 163.548C130.804 163.743 130.391 163.905 130.014 164.099C131.595 163.386 133.247 162.807 134.938 162.469C134.524 162.562 134.144 162.618 133.695 162.678C134.972 162.432 136.25 162.325 137.531 162.426C137.116 162.38 136.735 162.367 136.285 162.358C137.393 162.434 138.469 162.684 139.547 163.074C139.164 162.922 138.747 162.807 138.365 162.656C139.443 163.045 140.522 163.573 141.466 164.247C141.116 163.989 140.767 163.732 140.383 163.511C141.221 164.087 141.992 164.806 142.626 165.601C142.345 165.271 142.063 164.94 141.816 164.573C142.379 165.234 142.769 165.94 143.16 166.714C142.982 166.343 142.838 165.936 142.66 165.565C142.946 166.241 143.164 166.991 143.278 167.712C143.203 167.301 143.163 166.922 143.123 166.474C143.237 167.264 143.248 168.026 143.155 168.828C143.219 168.409 143.248 168.026 143.276 167.574C143.184 168.376 142.987 169.149 142.686 169.894C142.853 169.503 142.986 169.08 143.153 168.689C142.786 169.646 142.246 170.577 141.669 171.407C141.941 171.045 142.213 170.683 142.449 170.288C141.533 171.553 140.407 172.691 139.21 173.694C139.552 173.397 139.894 173.101 140.271 172.837C138.287 174.474 136.091 175.707 133.754 176.81C134.131 176.615 134.544 176.453 134.922 176.258C130.97 178.111 126.836 179.385 122.627 180.178C123.041 180.085 123.421 180.029 123.87 179.969C119.695 180.725 115.478 180.964 111.288 180.682C111.704 180.728 112.085 180.741 112.534 180.75C108.795 180.477 105.015 179.825 101.47 178.641C101.853 178.792 102.269 178.907 102.652 179.059C101.435 178.608 100.286 178.084 99.2036 177.349C99.5531 177.606 99.9026 177.863 100.286 178.084C99.6223 177.602 98.9914 177.014 98.4638 176.386C98.7451 176.717 99.0265 177.047 99.2737 177.414C98.8512 176.884 98.567 176.346 98.2818 175.738C98.4599 176.109 98.604 176.517 98.7821 176.888C98.532 176.313 98.385 175.698 98.2722 175.046C98.3471 175.457 98.387 175.836 98.4278 176.284C98.349 175.596 98.3394 174.903 98.4339 174.24C98.3706 174.659 98.3413 175.042 98.313 175.494C98.4368 174.448 98.6998 173.463 99.067 172.506C98.8995 172.897 98.767 173.32 98.5995 173.711C99.2677 172.01 100.145 170.436 101.231 168.919C100.959 169.281 100.688 169.643 100.451 170.037C102.012 167.87 103.888 165.928 105.729 164.022C108.014 161.709 110.44 159.528 112.936 157.412C112.594 157.708 112.252 158.005 111.875 158.269C114.543 156.039 117.316 153.976 120.195 152.08C118.224 149.629 116.218 147.144 114.246 144.692C114.144 144.802 114.041 144.842 113.939 144.952C114.28 144.656 114.622 144.359 114.999 144.095C112.126 146.475 108.937 148.492 105.569 150.069C105.947 149.874 106.36 149.712 106.738 149.518C103.404 151.058 99.9598 152.154 96.3718 152.843C96.7857 152.75 97.1654 152.694 97.6142 152.634C95.1645 153.084 92.7118 153.327 90.2534 153.155C90.6691 153.201 91.0498 153.214 91.4996 153.223C90.1492 153.126 88.7968 152.891 87.5107 152.444C87.8933 152.596 88.3101 152.711 88.6927 152.862C87.7541 152.535 86.8487 152.101 86.0105 151.525C86.36 151.782 86.7095 152.04 87.093 152.26C86.4291 151.778 85.8683 151.256 85.3407 150.627C85.622 150.958 85.9034 151.288 86.1506 151.656C85.8333 151.223 85.55 150.754 85.3359 150.281C85.514 150.652 85.6581 151.06 85.8362 151.431C85.586 150.856 85.4041 150.208 85.3263 149.589C85.4012 150 85.441 150.379 85.4819 150.827C85.4031 150.139 85.3935 149.447 85.453 148.75C85.3896 149.17 85.3603 149.552 85.332 150.004C85.3915 149.308 85.5552 148.641 85.823 148.002C85.6555 148.392 85.523 148.816 85.3555 149.206C85.5893 148.604 85.8931 148.067 86.232 147.563C85.9603 147.925 85.6886 148.287 85.452 148.681C85.7237 148.319 86.0645 147.953 86.4063 147.657C86.0645 147.953 85.7227 148.25 85.3459 148.514C85.6536 148.254 85.9963 148.027 86.3741 147.832C85.9963 148.027 85.5835 148.189 85.2057 148.383C85.5494 148.225 85.9282 148.1 86.2729 148.011C85.8591 148.104 85.4793 148.16 85.0305 148.22C85.1687 148.212 85.3411 148.168 85.4793 148.16C84.2997 145.421 83.0859 142.718 81.9062 139.979C75.7517 147.638 69.1415 154.872 62.0767 161.751C60.1993 163.555 60.2825 167.05 62.1731 168.675C63.1184 169.487 64.3714 170.04 65.6499 169.933C67.0315 169.785 68.0617 169.241 69.0861 168.283C77.8666 160.405 86.3667 152.267 94.5855 143.798C96.9041 141.38 99.2227 138.962 101.506 136.511C103.279 134.609 103.371 131.278 101.41 129.588C99.2048 127.738 96.1953 127.736 94.2866 129.784Z" fill="white"/>
<path d="M71.2252 234.99C76.9025 235.292 80.4892 229.545 80.6263 224.479C80.7575 218.998 76.8918 214.644 71.5875 213.802C66.4565 212.984 61.1916 214.98 56.768 217.76C51.7269 220.922 47.0801 225.065 43.4098 229.777C37.0546 237.933 30.3209 251.202 38.0212 260.154C41.8538 264.614 47.9099 264.79 53.3946 263.682C58.4655 262.667 63.4907 260.858 68.2347 258.718C79.5433 253.538 90.2566 245.343 93.228 232.668C91.2396 233.959 89.2853 235.213 87.297 236.504C94.4539 238.731 101.837 239.802 109.414 239.892C108.542 236.892 107.739 233.889 106.867 230.89C98.6818 236.793 91.943 244.728 87.7473 253.939C83.719 262.759 80.2248 275.152 89.753 281.229C97.745 286.284 108.513 282.035 116.453 278.363C125.286 274.294 133.585 269.112 142.605 265.967C147.149 264.393 150.7 263.533 155.193 263.278C157.82 263.129 159.032 263.165 161.286 263.556C162.395 263.771 163.505 263.985 164.582 264.305C164.582 264.305 166.077 264.809 165.242 264.51C165.868 264.751 166.425 264.997 167.017 265.275C169.803 266.572 173.31 265.057 174.13 261.858C175.344 257.112 173.653 252.462 170.459 249.144C167.194 245.691 162.436 244.333 157.698 244.428C152.961 244.524 148.175 246.146 143.844 248.124C139.032 250.337 134.468 252.986 130.329 256.374C123.455 261.995 114.717 270.459 116.753 280.078C117.864 285.281 123.055 287.932 128.097 287.369C133.106 286.842 137.956 284.869 142.455 282.57C152.21 277.582 160.368 269.74 168.184 262.126C169.959 260.431 169.952 257.418 168.475 255.7C166.892 253.815 164.398 253.541 162.166 254.741C154.681 258.769 149.58 267.546 150.112 275.969C150.65 284.808 156.636 292.367 164.974 294.943C172.27 297.231 179.953 294.959 186.791 291.696C190.09 290.123 193.247 288.281 196.403 286.37C197.878 285.489 199.353 284.609 200.829 283.798C201.516 283.412 202.237 283.06 202.925 282.743C201.997 283.177 203.441 282.541 203.475 282.504C204.059 282.229 204.644 282.022 205.264 281.779C207.018 281.091 208.844 280.537 210.671 280.121C210.741 280.118 212.259 279.824 211.258 279.984C211.879 279.88 212.466 279.812 213.053 279.744C213.917 279.66 214.815 279.609 215.715 279.628C215.853 279.62 217.239 279.749 216.165 279.637C216.65 279.678 217.17 279.753 217.62 279.831C217.967 279.881 218.28 279.967 218.661 280.049C218.939 280.103 219.182 280.193 219.426 280.283C218.904 280.07 218.87 280.107 219.426 280.283C220.157 280.623 220.888 280.962 221.586 281.408C220.608 280.77 221.726 281.538 221.866 281.669C222.287 282.061 222.707 282.453 223.094 282.881C224.358 284.265 226.782 284.404 228.362 283.622C230.286 282.681 231.163 281.038 231.341 278.949C231.795 274.246 228.763 270.192 224.997 267.98C221.056 265.675 216.042 265.855 211.705 267.418C207.128 269.098 203.052 271.996 199.291 275.189C195.599 278.309 192.332 282.166 190.526 286.634C187.181 294.861 189.03 305.946 197.559 309.793C206.331 313.73 217.155 308.509 225.26 304.307C235.014 299.25 243.875 292.2 251.058 283.859C248.473 282.065 245.853 280.239 243.269 278.446C236.967 287.949 230.665 297.453 224.363 306.956C223.007 308.973 223.983 311.932 225.764 313.182C227.545 314.363 230.66 314.464 232.153 312.439C235.311 308.137 239.231 304 243.168 301.04C247.413 297.82 251.837 295.109 256.452 293.6C257.485 293.264 258.519 292.998 259.588 292.764C258.932 292.905 260.106 292.7 260.278 292.655C260.934 292.583 261.556 292.548 262.179 292.513C262.49 292.53 262.836 292.51 263.112 292.495C263.112 292.495 263.909 292.553 263.424 292.512C263.146 292.458 264.395 292.664 264.603 292.722C264.88 292.775 265.888 293.099 265.158 292.829C265.714 293.005 266.203 293.324 266.76 293.57C267.526 293.942 266.513 293.272 267.179 293.892C267.389 294.088 267.635 294.317 267.845 294.513C267.88 294.545 268.373 295.141 268.055 294.709C267.704 294.313 268.196 294.908 268.197 294.978C268.34 295.247 268.482 295.516 268.693 295.781C268.728 295.814 269.014 296.49 268.835 296.05C268.656 295.61 269.088 296.833 269.053 296.8C269.56 298.434 269.514 300.1 269.156 301.748C269.027 302.379 268.828 303.014 268.629 303.649C268.464 304.178 268.63 303.718 268.664 303.612C268.497 304.072 268.261 304.536 268.06 304.963C267.421 306.281 266.644 307.607 265.761 308.835C265.286 309.486 263.959 311.051 263.142 311.998C262.086 313.201 260.961 314.408 259.871 315.578C262.219 317.766 264.532 319.922 266.88 322.11C274.052 313.007 283.298 306.247 294.075 302.621C294.832 302.371 295.521 302.124 296.279 301.942C296.624 301.853 296.969 301.764 297.313 301.676C297.9 301.538 297.969 301.535 297.624 301.623C298.142 301.559 298.66 301.495 299.179 301.501C298.763 301.455 298.867 301.484 299.456 301.554C300.046 301.694 300.081 301.726 299.596 301.615C299.139 301.122 298.965 301.028 298.851 300.307C298.859 300.86 298.859 300.86 298.885 300.27C298.719 300.799 298.754 300.832 298.954 300.266C298.587 301.222 297.976 302.088 297.435 302.951C293.606 308.676 289.705 314.267 285.841 319.96C284.01 322.628 286.173 326.42 288.948 326.955C307.191 330.355 324.051 318.936 338.222 308.155C336.593 305.407 334.894 302.662 333.265 299.914C327.483 304.572 322.471 309.811 318.232 315.906C314.535 321.208 310.611 327.528 310.252 334.027C310.054 337.26 311.174 340.627 313.691 342.562C316.558 344.756 320.227 344.894 323.743 344.002C328.672 342.717 332.872 338.772 335.126 334.245C337.818 328.826 338.075 322.437 335.029 317.344C332.848 319.685 330.633 322.062 328.451 324.403C333.046 326.429 337.843 328.097 342.771 329.273C347.526 330.423 352.659 331.379 357.637 331.166C362.477 330.961 367.613 329.596 371.264 326.028C375.393 321.949 376.661 313.631 370.641 311.097C366.048 309.14 360.6 312.879 356.656 315.355C352.815 317.721 349.084 320.6 346.227 324.088C343.132 327.901 341.185 332.099 340.767 336.904C340.346 341.432 341.864 346.126 344.508 349.683C351.314 359.032 362.589 361.338 373.574 362.759C376.173 363.062 378.852 361.663 379.505 358.923C380.094 356.465 378.565 353.468 375.931 353.133C371.911 352.598 367.857 352.101 364.002 351.038C362.37 350.61 361.328 350.254 359.83 349.542C358.995 349.174 358.263 348.765 357.496 348.323C357.077 348.07 356.658 347.816 356.309 347.559C356.973 348.041 355.959 347.233 355.819 347.171C355.189 346.653 354.629 346.13 354.033 345.575C353.788 345.346 353.611 345.114 353.366 344.885C352.383 343.832 353.791 345.623 352.979 344.387C352.554 343.719 352.096 343.086 351.705 342.381C351.563 342.112 351.421 341.843 351.279 341.574C351.67 342.348 351.135 341.166 351.098 340.995C350.846 340.282 350.662 339.495 350.547 338.705C350.664 339.634 350.539 338.082 350.573 338.045C350.568 337.699 350.598 337.386 350.559 337.076C350.573 335.586 350.462 337.532 350.588 336.693C350.618 336.311 350.716 335.924 350.814 335.537C350.88 335.256 350.979 334.939 351.044 334.658C351.244 334.093 351.244 334.093 351.077 334.552C351.212 334.268 351.346 333.983 351.447 333.735C351.749 333.129 352.086 332.486 352.458 331.876C352.661 331.518 352.865 331.229 353.102 330.904C352.559 331.628 353.068 330.94 353.17 330.831C354.362 329.481 355.589 328.164 356.956 326.978C356.307 327.535 357.128 326.865 357.298 326.682C357.606 326.422 357.983 326.158 358.291 325.898C358.975 325.374 359.695 324.883 360.38 324.428C361.785 323.482 363.26 322.602 364.772 321.823C365.492 321.401 366.248 321.012 366.969 320.659C368.377 319.921 366.11 321.02 367.52 320.42C368.104 320.145 367.867 320.539 367.588 320.347C367.171 320.232 366.789 320.15 366.373 320.035C365.606 319.663 365.218 319.096 365.104 318.375C364.965 318.313 365.399 317.215 365.036 318.448C364.739 319.469 364.902 318.733 365.003 318.554C364.869 318.839 364.699 319.091 364.53 319.343C364.869 318.839 364.834 318.875 364.425 319.314C364.391 319.351 363.536 320.057 364.426 319.383C364.119 319.643 363.81 319.834 363.432 320.029C363.261 320.142 362.333 320.576 363.089 320.256C362.78 320.377 362.47 320.499 362.161 320.62C360.37 321.207 359.334 321.335 357.294 321.416C355.288 321.461 354.318 321.308 352.031 321.022C349.709 320.703 347.454 320.242 345.198 319.712C340.859 318.676 337.244 317.426 333.276 315.642C329.064 313.767 324.149 318.48 326.698 322.701C326.875 323.003 327.053 323.374 327.23 323.675C326.77 322.905 327.194 323.574 327.339 324.05C327.448 324.425 327.488 324.804 327.596 325.11C327.741 325.587 327.558 324.869 327.557 324.8C327.561 325.077 327.599 325.317 327.602 325.525C327.642 325.904 327.578 326.254 327.618 326.633C327.621 326.91 327.457 327.508 327.651 326.527C327.619 326.702 327.621 326.91 327.589 327.085C327.428 327.891 327.197 328.701 326.931 329.478C327.231 328.664 326.997 329.266 326.795 329.694C326.594 330.121 326.391 330.479 326.155 330.873C326.053 331.052 325.41 332.024 325.817 331.447C326.19 330.906 325.409 331.955 325.272 332.101C325 332.394 324.761 332.65 324.488 332.942C324.318 333.125 324.112 333.276 323.942 333.458C324.01 333.385 324.696 332.931 324.25 333.199C323.906 333.357 323.633 333.649 323.325 333.84C322.913 334.071 322.087 334.395 322.982 334.067C322.569 334.229 322.156 334.391 321.742 334.484C321.57 334.528 321.398 334.573 321.191 334.654C321.26 334.65 322.055 334.57 321.502 334.602C321.018 334.629 320.604 334.722 320.119 334.68C319.531 334.679 320.084 334.647 320.188 334.676C319.877 334.659 319.564 334.573 320.084 334.647C320.188 334.676 320.889 335.329 320.153 334.643C320.188 334.676 320.613 335.345 320.364 334.839C320.08 334.37 320.436 335.043 320.437 335.112C320.365 334.909 320.293 334.705 320.256 334.534C320.179 333.984 320.258 334.672 320.293 334.705C320.29 334.497 320.252 334.257 320.249 334.049C320.246 333.841 320.277 333.597 320.274 333.389C320.247 333.911 320.242 333.564 320.307 333.284C320.438 332.722 320.534 332.197 320.7 331.668C320.766 331.456 320.867 331.208 320.933 330.996C320.9 331.102 320.665 331.635 320.9 331.102C321.435 329.824 322.041 328.612 322.716 327.396C323.963 325.004 325.384 322.706 326.944 320.47C329.963 316.176 334.462 311.348 338.533 308.103C340.62 306.425 341.758 303.728 340.272 301.318C339.033 299.275 335.766 298.213 333.575 299.861C326.832 304.99 319.982 309.882 312.39 313.674C311.016 314.375 313.249 313.313 311.839 313.913C311.393 314.111 310.98 314.273 310.533 314.472C309.536 314.909 308.504 315.314 307.47 315.65C305.612 316.31 303.682 316.835 301.716 317.258C302.544 317.073 301.405 317.311 301.164 317.359C300.715 317.419 300.266 317.479 299.817 317.539C298.781 317.667 297.744 317.726 296.672 317.752C296.223 317.743 295.773 317.734 295.323 317.725C295.254 317.729 293.834 317.636 294.735 317.724C293.661 317.611 292.621 317.462 291.546 317.281C292.582 319.613 293.617 321.944 294.653 324.276C298.144 319.124 301.637 314.041 305.128 308.889C306.586 306.762 308.079 304.668 308.666 302.14C309.384 299.051 308.438 295.709 306.024 293.733C301.265 289.846 294.345 292.213 289.081 294.278C283.852 296.307 278.804 298.984 274.214 302.293C268.94 306.056 264.193 310.518 260.182 315.595C258.517 317.734 258.281 320.657 260.279 322.519C262.171 324.282 265.351 324.102 267.192 322.127C271.896 317.148 276.596 311.824 278.613 305.161C280.465 299.028 279.471 292.225 275.29 287.577C271.425 283.293 265.113 282.126 259.418 283.038C253.171 284.051 247.294 286.844 241.912 290.371C235.571 294.507 229.902 299.817 225.386 305.928C227.971 307.722 230.591 309.548 233.176 311.341C239.478 301.838 245.78 292.334 252.081 282.831C253.437 280.814 252.462 277.855 250.68 276.605C248.794 275.326 245.925 275.454 244.291 277.349C239.015 283.503 233.512 288.284 226.791 292.545C223.706 294.522 220.238 296.416 217.144 297.769C215.39 298.527 213.635 299.216 211.88 299.835C211.019 300.126 210.158 300.417 209.332 300.672C208.987 300.761 208.642 300.85 208.333 300.971C208.333 300.971 206.816 301.335 207.54 301.19C206.713 301.375 205.814 301.426 204.984 301.473C204.639 301.493 204.293 301.512 203.946 301.463C204.778 301.554 203.183 301.298 203.183 301.298C203.114 301.302 202.281 301.072 202.941 301.277C202.593 301.158 202.245 300.97 201.931 300.815C201.687 300.655 200.953 300.108 201.688 300.725C201.372 300.431 201.057 300.137 200.706 299.81C199.725 298.896 200.99 300.279 200.565 299.61C200.353 299.276 200.142 299.011 199.964 298.64C199.821 298.371 199.679 298.102 199.537 297.833C199.929 298.607 199.535 297.694 199.463 297.49C199.246 296.81 199.064 296.162 198.95 295.441C199.067 296.37 198.908 294.854 198.942 294.818C198.935 294.333 198.963 293.881 198.957 293.396C198.955 293.258 199.082 292.489 198.955 293.258C198.984 292.875 199.082 292.489 199.181 292.102C199.279 291.715 199.378 291.329 199.511 290.975C199.842 289.916 199.745 290.372 199.643 290.551C200.379 288.708 201.327 287.268 202.349 286.102C204.798 283.122 207.022 281.368 210.21 279.282C211.787 278.222 213.434 277.297 214.639 276.848C215.121 276.682 215.638 276.549 216.12 276.383C216.946 276.128 215.98 276.321 216.878 276.201C217.224 276.181 217.569 276.162 217.88 276.11C218.985 275.978 217.636 275.95 218.537 276.107C218.988 276.185 219.37 276.268 219.786 276.383C218.987 276.116 219.961 276.477 220.205 276.636C220.483 276.759 220.728 276.918 220.937 277.045C219.96 276.407 221.219 277.445 221.359 277.506C221.845 277.686 220.967 276.731 221.464 277.604C221.571 277.84 222.07 278.921 221.71 277.902C221.783 278.175 221.89 278.411 221.963 278.684C221.707 277.694 221.901 279.173 221.906 279.519C224.689 278.218 227.438 276.884 230.222 275.583C225.41 270.347 217.955 269.073 211.019 270.263C203.807 271.538 197.452 274.774 191.173 278.49C188.223 280.251 185.273 282.012 182.179 283.435C182.97 283.078 182.076 283.476 181.87 283.557C181.526 283.715 181.147 283.84 180.803 283.998C180.081 284.282 179.358 284.565 178.67 284.812C177.982 285.059 177.258 285.273 176.5 285.455C176.052 285.584 175.638 285.677 175.224 285.77C176.19 285.576 174.844 285.826 174.706 285.834C173.981 285.909 173.255 285.985 172.564 286.024C172.149 286.048 171.699 286.039 171.25 286.03C170.316 286.048 171.007 286.009 171.18 286.034C169.24 285.797 168.025 285.485 166.875 284.892C166.527 284.704 166.178 284.516 165.83 284.328C165.794 284.295 164.537 283.396 165.306 283.976C164.676 283.458 164.081 282.972 163.519 282.38C163.274 282.151 163.098 281.919 162.852 281.69C163.485 282.417 162.5 281.225 162.499 281.156C161.935 280.357 161.473 279.517 161.046 278.64C161.332 279.317 161.01 278.538 160.974 278.436C160.792 277.789 160.611 277.21 160.429 276.562C160.21 275.743 160.319 276.118 160.357 276.358C160.244 275.706 160.235 275.083 160.261 274.423C160.256 274.077 160.286 273.764 160.282 273.487C160.309 272.896 160.343 272.86 160.279 273.279C160.31 272.966 160.409 272.648 160.439 272.335C160.539 272.017 160.569 271.704 160.668 271.386C160.7 271.211 161.299 269.514 160.964 270.296C161.332 269.409 161.77 268.518 162.277 267.692C162.447 267.44 162.615 267.119 162.784 266.866C162.242 267.659 163.193 266.358 163.329 266.212C163.602 265.919 163.874 265.627 164.147 265.334C164.385 265.078 164.625 264.891 164.864 264.635C165.273 264.266 165.342 264.192 165.103 264.448C164.556 264.895 165.823 263.957 165.789 263.994C166.337 263.616 166.886 263.308 167.469 262.963C165.498 260.511 163.492 258.027 161.52 255.575C155.719 261.239 150.496 266.282 143.985 270.67C140.694 272.866 137.537 274.638 134.233 275.865C132.512 276.517 130.79 277.03 128.996 277.409C127.996 277.639 128.548 277.469 128.755 277.458C128.237 277.522 127.753 277.549 127.269 277.577C126.301 277.631 126.819 277.567 127.027 277.556C126.437 277.416 126.402 277.383 126.819 277.567C126.261 277.253 126.227 277.289 126.82 277.637C126.645 277.473 126.47 277.31 126.295 277.147C127.172 278.032 126.323 276.695 126.719 277.816C126.647 277.612 126.609 277.371 126.502 277.135C126.827 278.121 126.505 277.343 126.499 276.927C126.499 276.927 126.62 275.673 126.491 276.373C126.398 277.106 126.622 275.812 126.622 275.812C126.686 275.462 126.786 275.144 126.919 274.79C127.018 274.473 126.984 274.509 126.818 274.969C126.918 274.721 127.052 274.436 127.153 274.188C127.455 273.513 127.792 272.87 128.198 272.223C128.198 272.223 128.977 271.036 128.502 271.686C128.061 272.3 128.876 271.215 128.876 271.215C130.27 269.507 131.805 267.931 133.34 266.423C138.7 261.304 145.87 256.982 153.139 254.872C154.138 254.573 154.966 254.388 155.449 254.291C156.485 254.163 157.453 254.108 158.49 254.049C160.045 253.996 158.108 253.967 159.009 254.054C159.598 254.125 160.153 254.232 160.743 254.372C162.199 254.636 160.394 254.184 161.124 254.454C161.611 254.634 161.995 254.855 162.447 255.072C163.214 255.444 162.622 255.166 162.446 255.003C162.901 255.358 163.287 255.717 163.707 256.109C164.372 256.66 163.882 256.272 163.706 256.04C164.023 256.472 164.307 256.941 164.59 257.41C164.731 257.61 164.878 258.225 164.624 257.374C164.696 257.577 165.065 259.219 164.911 258.119C164.949 258.36 164.919 258.673 164.957 258.914C164.93 259.435 164.965 259.468 164.991 258.877C164.926 259.158 164.894 259.402 164.829 259.683C167.2 258.544 169.571 257.405 171.942 256.266C164.283 252.751 155.876 252.638 147.563 254.392C138.974 256.161 131.006 260.216 123.209 264.226C119.19 266.29 115.207 268.387 111.322 270.097C109.362 270.936 107.333 271.778 105.3 272.413C103.096 273.093 102.199 273.282 99.9871 273.408C99.5032 273.435 98.9843 273.43 98.4653 273.425C97.0467 273.401 99.1254 273.63 97.738 273.362C97.4255 273.276 97.1139 273.259 96.8014 273.173C96.6972 273.144 95.3069 272.668 96.2114 273.033C95.7937 272.849 95.4101 272.628 94.9925 272.444C93.8427 271.851 95.5542 273.035 94.642 272.117C94.0102 271.46 94.3976 271.958 94.5378 272.088C94.4317 271.921 93.6501 270.441 93.8671 271.122C93.3999 269.866 93.3778 268.274 93.5697 267.154C93.9897 265.017 94.5829 262.905 95.3154 260.854C98.2755 252.337 104.7 244.178 111.96 238.916C116.104 235.944 114.36 229.945 109.413 229.914C102.874 229.834 96.2167 228.688 89.789 226.662C87.3218 225.866 84.4473 228.108 83.8579 230.497C83.0074 234.01 81.3898 237.081 79.1763 239.597C78.4956 240.398 77.7448 241.133 76.9941 241.869C76.5841 242.239 76.2082 242.572 75.7983 242.941C75.0124 243.644 75.4224 243.274 75.5928 243.092C73.8819 244.436 72.0659 245.682 70.2129 246.757C66.576 248.904 63.3783 250.298 59.282 251.742C57.4232 252.402 55.5284 252.96 53.5986 253.485C51.4964 254.055 50.6337 254.208 48.3865 254.3C47.073 254.375 48.9775 254.509 47.7283 254.234C47.2775 254.155 46.8267 254.077 46.3399 253.897C47.1052 254.2 46.1998 253.766 46.0255 253.672C45.3635 253.329 46.6583 254.398 45.7811 253.513C45.6059 253.35 44.831 252.354 45.4667 253.288C45.2545 252.954 45.0072 252.587 44.8291 252.216C45.2905 253.056 44.83 252.285 44.757 252.012C44.7201 251.841 44.3883 250.37 44.54 251.331C44.1131 247.995 45.0092 245.277 46.4915 242.421C50.3638 234.822 56.5318 228.132 64.3313 224.33C63.4034 224.763 64.8474 224.127 64.8815 224.09C65.3975 223.888 65.9136 223.685 66.4306 223.552C66.8094 223.427 67.1541 223.338 67.5679 223.245C66.6711 223.435 68.3624 223.165 68.5698 223.154C68.708 223.146 70.0594 223.312 69.0537 223.126C69.4694 223.172 69.8861 223.287 70.3028 223.402C69.2951 223.078 70.5822 223.594 70.7215 223.655C70.2318 223.267 70.2318 223.267 70.6163 223.557C70.9678 223.953 70.9668 223.884 70.4752 223.357C70.6523 223.659 70.9414 224.544 70.6154 223.488C70.7243 223.863 70.8324 224.169 70.8723 224.547C70.6485 223.382 70.8031 224.551 70.806 224.759C70.7787 225.28 70.7787 225.28 70.8382 224.584C70.807 224.828 70.7407 225.04 70.6755 225.321C70.5137 226.127 70.6404 225.288 70.7768 225.142C70.0327 226.362 71.2578 224.907 70.6083 225.463C70.8137 225.313 70.9851 225.199 71.1555 225.016C70.7095 225.284 70.8478 225.276 71.5002 224.928C71.0182 225.094 71.0873 225.09 71.7767 224.912C71.5352 224.96 71.2928 224.939 71.0504 224.918C68.4196 224.791 66.211 227.653 66.2447 230.076C66.289 233.261 68.5593 234.829 71.2252 234.99Z" fill="white"/>
<path d="M422.163 351.862C422.198 351.826 422.232 351.789 422.266 351.752C421.994 352.114 421.722 352.476 421.486 352.871C425.422 347.381 429.812 342.178 434.307 337.073C439.108 331.57 444.049 326.197 448.955 320.791C453.52 315.751 458.049 310.609 462.334 305.308C467.298 299.068 471.981 292.566 475.966 285.619C479.884 278.815 483.103 271.495 485.108 263.933C485.338 263.054 485.567 262.106 485.796 261.227C486.188 259.541 485.713 257.732 484.487 256.589C483.33 255.511 481.351 254.966 479.768 255.61C465.115 261.568 454.363 274.442 446.036 287.525C438.251 299.815 432.383 313.139 425.852 326.12C422.15 333.467 418.203 340.723 413.629 347.6C412.985 348.572 412.904 350.205 413.196 351.297C413.489 352.458 414.44 353.686 415.554 354.177C416.668 354.668 418.02 354.903 419.225 354.454C419.602 354.259 420.015 354.097 420.393 353.903C421.146 353.306 421.725 352.684 422.163 351.862C427.619 343.688 432.133 334.979 436.473 326.176C440.813 317.373 444.978 308.475 449.736 299.856C452.402 295.097 455.277 290.396 458.467 285.919C458.195 286.281 457.923 286.643 457.686 287.037C461.929 281.15 466.727 275.508 472.336 270.893C471.995 271.19 471.653 271.487 471.276 271.75C474.456 269.11 477.884 266.837 481.596 265.102C481.218 265.297 480.805 265.459 480.427 265.654C481.011 265.378 481.665 265.098 482.284 264.856C480.251 262.961 478.254 261.1 476.221 259.206C475.439 262.645 474.413 265.995 473.144 269.254C473.311 268.863 473.444 268.44 473.611 268.05C470.306 276.656 465.541 284.721 460.146 292.268C460.418 291.906 460.69 291.544 460.926 291.149C455.395 298.842 449.164 306.021 442.863 313.064C436.39 320.222 429.813 327.35 423.55 334.704C420.045 338.817 416.679 343.062 413.558 347.465C412.879 348.405 412.834 350.139 413.125 351.162C413.418 352.324 414.369 353.551 415.483 354.043C416.597 354.534 417.949 354.769 419.154 354.319C419.531 354.125 419.944 353.963 420.322 353.768C421.146 353.306 421.725 352.684 422.163 351.862Z" fill="white"/>
<path d="M399.902 367.952C397.088 369.567 394.802 371.879 392.972 374.547C391.208 377.072 389.937 380.192 389.841 383.247C389.783 384.081 389.934 384.973 390.256 385.752C390.507 386.327 390.688 386.905 391.075 387.403C391.851 388.468 392.341 388.856 393.388 389.559C394.575 390.323 396 390.831 397.388 391.099C400.059 391.675 402.963 391.51 405.614 390.632C411.124 388.864 415.485 384.044 416.616 378.333C417.166 375.565 417.123 372.518 416.085 369.979C415.225 367.88 413.987 365.906 411.794 364.956C409.776 364.101 407.735 364.113 405.563 364.617C403.977 364.984 402.397 365.767 400.955 366.541C399.718 367.166 398.588 367.957 397.493 368.851C394.689 371.158 392.27 373.824 390.585 377.038C390.012 378.144 389.824 379.541 390.152 380.735C390.445 381.896 391.396 383.124 392.51 383.615C394.877 384.659 397.84 383.867 399.155 381.402C399.593 380.58 400.067 379.791 400.61 379.067C400.338 379.429 400.067 379.791 399.83 380.186C400.882 378.706 402.11 377.458 403.477 376.272C403.135 376.568 402.793 376.865 402.417 377.129C403.751 376.048 405.191 375.135 406.737 374.389C406.359 374.584 405.946 374.746 405.569 374.941C406.462 374.544 407.391 374.179 408.322 373.953C407.908 374.046 407.529 374.102 407.08 374.162C407.563 374.065 408.047 374.038 408.531 374.08C408.116 374.034 407.735 374.021 407.285 374.012C407.597 374.029 407.84 374.119 408.153 374.205C407.77 374.054 407.353 373.939 406.971 373.787C407.214 373.877 407.423 374.004 407.633 374.131C407.283 373.873 406.934 373.616 406.55 373.395C406.795 373.555 406.97 373.718 407.146 373.95C406.865 373.62 406.583 373.289 406.336 372.922C406.652 373.286 406.901 373.722 407.08 374.162C406.902 373.791 406.758 373.384 406.579 373.013C406.867 373.758 407.085 374.508 407.165 375.335C407.09 374.924 407.051 374.545 407.01 374.097C407.125 374.956 407.138 375.856 407.012 376.764C407.076 376.345 407.105 375.962 407.133 375.51C407.008 376.487 406.814 377.399 406.48 378.319C406.648 377.928 406.78 377.505 406.948 377.114C406.581 378.071 406.109 378.998 405.464 379.831C405.735 379.47 406.007 379.108 406.244 378.713C405.7 379.437 405.087 380.095 404.403 380.688C404.745 380.392 405.087 380.095 405.464 379.831C404.745 380.392 404.025 380.883 403.201 381.276C403.579 381.082 403.991 380.92 404.369 380.725C403.441 381.159 402.511 381.454 401.476 381.651C401.89 381.558 402.27 381.502 402.719 381.442C401.787 381.599 400.819 381.654 399.884 381.603C400.3 381.649 400.681 381.662 401.131 381.671C400.265 381.616 399.398 381.423 398.598 381.156C398.981 381.308 399.398 381.423 399.78 381.574C399.189 381.365 398.597 381.087 398.074 380.736C398.423 380.993 398.773 381.25 399.156 381.471C399.016 381.34 398.876 381.21 398.701 381.047C398.982 381.377 399.263 381.707 399.51 382.075C399.404 381.907 399.264 381.777 399.192 381.573C399.37 381.944 399.514 382.351 399.692 382.722C399.62 382.519 399.548 382.315 399.51 382.075C399.585 382.486 399.625 382.865 399.666 383.313C399.627 383.003 399.623 382.726 399.654 382.413C399.59 382.832 399.561 383.215 399.533 383.667C399.659 382.828 399.89 382.018 400.19 381.205C400.023 381.595 399.89 382.018 399.723 382.409C400.224 381.168 400.831 380.025 401.611 378.907C401.339 379.269 401.068 379.63 400.831 380.025C401.645 378.87 402.599 377.846 403.694 376.952C403.352 377.249 403.01 377.545 402.634 377.809C403.352 377.249 404.106 376.721 404.861 376.263C407.125 374.956 407.978 371.582 406.599 369.478C405.114 367.137 402.338 366.532 399.902 367.952Z" fill="white"/>
</svg>
