<svg width="219" height="285" viewBox="0 0 219 285" fill="none" xmlns="http://www.w3.org/2000/svg">
<path d="M113.148 0L219.073 51.4309L105.925 284.467L-4.23405e-05 233.036L113.148 0Z" fill="white"/>
<path d="M44.455 220.094C41.3871 211.236 42.01 202.365 46.3235 193.481C50.696 184.475 57.3116 178.439 66.1701 175.371C75.0877 172.181 84.0493 172.773 93.0549 177.145C102.061 181.518 108.068 188.194 111.076 197.174C114.144 206.033 113.492 214.965 109.119 223.971C104.806 232.855 98.2198 238.83 89.3613 241.898C80.5028 244.966 71.5707 244.314 62.5651 239.941C53.5595 235.569 47.5228 228.953 44.455 220.094ZM108.005 89.209C104.937 80.3505 105.56 71.4793 109.873 62.5953C114.246 53.5897 120.862 47.553 129.72 44.4852C138.638 41.2957 147.599 41.8872 156.605 46.2598C165.611 50.6324 171.618 57.3088 174.626 66.289C177.694 75.1475 177.042 84.0796 172.669 93.0852C168.356 101.969 161.77 107.945 152.911 111.013C144.053 114.081 135.121 113.428 126.115 109.056C117.11 104.683 111.073 98.0675 108.005 89.209Z" fill="black"/>
</svg>
