<svg width="799" height="804" viewBox="0 0 799 804" fill="none" xmlns="http://www.w3.org/2000/svg">
<g clip-path="url(#clip0)">
<path d="M784.99 248.834C782.092 259.464 778.227 270.094 774.362 280.241C775.812 246.902 757.938 218.878 731.369 199.551C726.055 162.829 720.742 126.592 715.428 89.8704C714.945 87.9377 714.462 85.5218 713.012 84.5555C709.631 82.6228 706.249 86.005 704.317 89.3872C687.41 115.962 671.468 143.019 656.493 171.043C628.958 168.144 601.906 173.459 582.583 188.438C611.567 125.625 648.281 66.678 691.274 12.5627C694.656 8.69727 698.037 4.34871 702.385 2.41602C712.046 -1.44936 722.674 4.34871 730.886 10.63C769.049 41.0699 790.787 88.4208 796.584 137.221C800.448 174.909 795.618 212.596 784.99 248.834Z" fill="black"/>
<path d="M671.469 365.762C663.257 359.964 653.112 354.166 643.934 349.334C628.476 342.087 612.051 337.738 595.144 336.289C572.439 334.356 549.252 337.255 527.514 345.469C511.089 351.75 495.631 362.38 482.105 374.942C464.715 391.37 450.705 412.147 441.527 433.406C444.426 439.688 448.29 445.969 449.256 447.418C456.985 459.498 468.096 468.678 480.656 474.959C494.182 481.724 510.123 485.106 525.098 485.106C554.566 484.623 583.067 471.577 606.254 453.216C615.916 445.969 624.611 437.272 632.823 428.575C649.248 410.214 662.291 388.954 671.469 365.762ZM153.134 248.351L151.201 246.901C129.946 218.877 107.725 191.82 85.5035 164.762C77.7744 155.582 69.0791 145.435 57.4854 143.502C54.587 143.019 51.6885 143.019 49.2732 144.469C43.9594 147.368 43.9594 154.615 44.4425 160.414C49.7562 223.226 58.4515 285.555 70.0452 347.885C70.0452 348.851 70.5283 349.817 71.0114 350.784C73.9098 354.649 79.2236 350.301 81.6389 346.435C102.411 311.647 126.565 278.791 153.134 248.351ZM342.014 472.06C349.744 465.296 356.99 458.531 365.202 452.25C358.922 434.373 352.159 416.495 342.497 400.067C340.565 397.168 339.116 394.269 337.184 391.37C325.107 373.493 309.166 357.548 289.843 348.368C272.452 340.154 252.163 336.772 232.84 338.221C217.865 339.188 201.924 345.469 186.465 354.649C164.244 368.178 142.506 387.022 127.048 405.382C126.082 403.45 124.632 402 122.7 402C120.285 402 119.319 406.832 121.734 406.349H122.7C122.7 407.798 122.217 409.248 121.734 410.697L122.7 411.18C124.149 409.248 125.598 407.315 127.531 405.382C128.014 405.865 128.014 406.349 128.014 406.832C140.574 431.957 157.964 455.632 180.186 473.027C188.881 479.791 198.059 486.072 208.204 490.904C243.468 507.815 287.427 509.264 320.759 488.971C328.005 484.139 335.251 478.341 342.014 472.06ZM396.601 585.606C409.644 570.627 420.755 554.2 430.416 537.289C406.746 534.873 383.559 540.188 360.371 545.986C370.999 560.481 383.075 574.01 396.601 585.606ZM23.1873 334.839C21.255 323.243 19.8058 311.647 18.3566 299.567C18.8397 301.017 19.3227 302.466 19.8058 303.916C28.9842 342.57 19.3227 303.916 19.3227 303.916C18.8397 301.5 18.3566 299.084 17.3905 296.668C14.009 281.69 11.1105 266.712 8.69518 251.733C7.72904 217.428 12.0767 182.639 21.7381 149.301C9.66132 172.01 4.83061 197.618 5.31368 223.709C0.482967 178.774 -0.000104189 133.839 3.86447 88.9039C4.34754 83.589 5.08059 77.4508 9.9113 75.5181C13.2928 76.0012 16.4243 75.8582 19.8058 76.3414C20.772 76.8246 22.2212 77.3077 23.1873 78.2741C77.2913 108.231 132.845 140.603 172.939 186.505C180.669 197.135 152.376 160.239 160.105 170.869C152.859 159.273 181.635 196.651 172.939 186.505C160.863 170.077 148.786 153.649 137.192 137.704C129.946 128.041 122.7 117.894 114.971 108.714C118.835 111.613 122.7 114.512 126.565 117.411C158.447 143.502 185.016 175.392 211.102 207.764C214.001 211.147 216.416 214.529 219.314 217.911L220.28 220.327C267.138 200.034 321.725 196.168 373.414 195.685C397.568 195.202 421.238 195.685 445.392 196.651C445.392 196.651 445.392 196.651 445.875 196.651C486.936 198.101 527.514 201 568.092 205.349C570.507 205.349 572.922 205.832 575.338 206.315C578.719 206.798 582.101 206.798 585.482 207.281C582.101 206.798 578.719 206.315 575.338 206.315C577.753 200.517 580.341 191.161 583.24 185.362C600.185 163.014 632.707 160.342 660.242 163.241C652.03 178.703 640.552 203.416 632.823 219.361C660.358 235.305 686.536 253.707 708.274 276.899C716.003 285.113 725.78 294.14 734.958 288.342C742.204 283.51 740.982 273.112 739.532 263.932C736.151 242.189 732.24 207.105 728.859 185.362C755.428 204.689 785.964 184.061 784.514 217.4C788.379 207.254 790.614 219.689 785.474 249.801C777.745 341.603 767.117 434.373 735.718 520.861C719.293 565.796 697.072 608.798 669.537 647.935C614.95 724.76 535.243 788.538 442.01 801.584C317.861 818.978 195.161 741.188 126.082 636.339C66.6637 546.469 39.6117 441.137 23.1873 334.839Z" fill="black"/>
<path d="M741.033 264.779C742.482 273.476 742.482 284.589 735.236 289.421C726.057 295.219 714.947 286.039 707.218 278.308C685.479 255.116 657.281 235.634 629.746 219.689C637.475 203.744 649.743 182.517 657.955 167.055C684.524 169.954 708.645 167.892 730.383 183.837C738.008 205.958 738.134 243.036 741.033 264.779Z" fill="#A2A1A2"/>
<path d="M715.428 90.3535C720.742 127.075 727.357 162.372 732.671 199.093C710.933 183.148 682.58 173.942 656.011 171.043C670.986 143.502 686.927 115.962 703.835 89.3871C705.767 86.4881 709.632 82.6227 712.53 84.5554C714.945 86.0049 715.428 88.4208 715.428 90.3535Z" fill="#A2A1A2"/>
<path d="M643.935 349.334C653.113 354.166 662.775 360.447 671.47 365.762C662.775 388.471 649.732 410.214 633.307 428.091C634.756 401.034 627.51 373.493 612.535 350.784C608.187 344.502 602.391 337.738 595.145 337.255V335.805C612.052 337.738 628.96 342.086 643.935 349.334Z" fill="white"/>
<path d="M595.145 337.738C602.391 338.222 608.671 344.503 612.536 351.267C627.028 373.976 634.274 401.517 633.308 428.575C625.095 437.755 616.4 445.969 606.739 453.217C583.551 471.094 555.05 484.14 525.583 485.106C510.124 485.589 494.666 482.207 481.14 474.96C465.682 444.037 466.165 405.383 483.072 375.426L482.589 374.943C496.115 361.897 511.574 351.75 527.998 345.469C549.253 337.255 572.924 334.356 595.628 336.289L595.145 337.738ZM496.115 466.746C503.844 438.238 501.429 407.799 503.844 378.325C486.937 403.933 484.038 438.238 496.115 466.746Z" fill="#C1B665"/>
<path d="M603.825 155.613C596.938 174.967 588.675 192.708 581.789 212.061C574.902 210.448 568.016 210.448 561.13 208.836C573.525 187.869 588.675 170.128 603.825 155.613Z" fill="black"/>
<path d="M503.844 377.841C501.429 407.315 503.844 437.755 496.115 466.262C484.038 438.238 486.937 403.933 503.844 377.841Z" fill="black"/>
<path d="M482.106 374.942C465.682 405.382 465.199 444.036 480.657 474.959C468.097 468.678 456.987 459.015 449.257 447.418C448.291 445.969 444.91 439.688 441.528 433.406C450.707 412.147 464.716 391.853 482.106 374.942Z" fill="white"/>
<path d="M360.37 545.985C383.558 540.187 406.745 534.872 430.415 537.288C420.754 554.683 409.16 570.627 396.6 585.606C383.074 574.01 370.998 560.481 360.37 545.985Z" fill="#D76460"/>
<path d="M444.126 198.761C420.455 197.794 396.301 197.794 372.148 197.794C320.459 198.277 265.872 202.143 219.014 222.436L218.048 220.02C215.15 216.638 212.734 213.256 209.836 209.874C241.719 200.21 276.017 198.277 309.349 197.794C354.274 196.828 399.2 197.311 444.126 198.761Z" fill="black"/>
<path d="M342.498 400.067C352.159 416.495 359.406 433.89 365.202 452.25C356.99 458.531 349.744 465.296 342.015 472.06C343.947 456.599 344.913 441.137 343.464 425.676C342.498 414.079 340.566 402.483 336.701 391.854C339.117 394.753 340.566 397.168 342.498 400.067Z" fill="white"/>
<path d="M212.067 385.572H208.686C196.609 410.214 192.261 439.204 196.609 466.262C208.686 441.62 213.516 413.596 212.067 385.572ZM343.462 425.675C344.912 441.137 343.946 456.599 342.013 472.06C334.767 478.341 327.521 484.139 319.792 488.971C286.46 509.264 242.501 508.298 207.236 490.904C197.092 486.072 187.914 480.274 179.218 473.026C171.006 433.889 173.421 392.82 185.981 354.649C201.923 345.469 217.864 338.704 232.356 338.221C251.679 336.772 271.485 339.671 289.359 348.368C308.681 357.548 324.623 373.493 336.699 391.37C340.564 402.966 342.496 414.079 343.462 425.675Z" fill="#C1B665"/>
<path d="M212.068 385.572C214 413.113 208.686 441.62 197.092 466.745C192.745 439.204 196.609 410.697 209.169 386.055L212.068 385.572Z" fill="black"/>
<path d="M185.983 355.132C172.94 392.82 171.008 434.373 179.22 473.51C157.482 456.115 139.608 432.44 127.048 407.315C127.048 406.832 126.565 406.349 126.565 405.865C142.024 387.988 163.762 368.661 185.983 355.132Z" fill="white"/>
<path d="M137.192 136.942C149.269 153.37 161.346 169.797 172.94 185.742C131.896 170.869 75.0052 109.665 21.3843 79.7084C20.4185 77.7305 16.9769 75.2385 16.0107 74.7554C53.3686 77.0438 85.9868 87.1748 114.971 107.468C122.7 117.132 129.946 126.795 137.192 136.942Z" fill="black"/>
<path d="M152.039 245.496L154.005 246.98C126.965 278.149 102.875 311.296 81.2433 346.423C78.7851 350.381 72.8855 354.833 70.4273 350.876C69.9357 349.886 69.4441 348.897 69.4441 347.907C57.1532 285.075 48.3037 220.759 42.8957 156.443C42.4041 150.506 42.4041 143.085 47.8121 140.117C50.2703 138.633 53.7117 138.633 56.1699 139.127C67.9692 141.601 77.3102 151.496 84.6848 160.896C107.792 189.096 130.407 217.296 152.039 245.496Z" fill="#A2A1A2"/>
<path d="M121.622 406.316H120.525C117.781 406.316 118.879 400.717 121.622 401.277C123.816 401.277 130.372 399.712 126.56 406.316C124.914 408.556 125.156 410.439 123.51 412.679L119.976 411.356C121.622 409.676 121.622 407.996 121.622 406.316Z" fill="black"/>
<path d="M81.6401 76.8244C94.2 85.5215 104.828 96.6345 114.972 108.714C85.9878 88.4205 56.5204 80.6898 20.29 76.8244C17.3916 75.3749 10.6745 77.0435 9.91211 75.5179C35.0318 65.8544 59.4188 60.8797 81.6401 76.8244Z" fill="black"/>
<path d="M19.3219 303.916C18.8389 302.467 18.3558 301.017 17.8727 299.567C17.8727 298.601 17.3896 297.635 17.3896 296.668C18.3558 299.084 18.8389 301.5 19.3219 303.916Z" fill="black"/>
<path d="M17.8733 296.668C17.8733 297.635 18.3564 298.601 18.3564 299.568C16.9072 294.736 15.458 289.904 14.4918 285.072C13.0426 279.274 11.5934 273.476 10.6273 267.678C10.1442 262.363 9.66113 257.048 9.66113 251.733C11.5934 266.712 14.4918 281.69 17.8733 296.668Z" fill="black"/>
<path d="M21.7375 149.301C12.076 182.64 7.72839 217.428 9.1776 251.733C7.72839 242.553 6.27917 232.89 5.31303 223.709C4.82996 197.618 9.66067 172.01 21.7375 149.301Z" fill="black"/>
</g>
<defs>
<clipPath id="clip0">
<rect width="799" height="804" fill="white"/>
</clipPath>
</defs>
</svg>
