<svg width="799" height="804" viewBox="0 0 799 804" fill="none" xmlns="http://www.w3.org/2000/svg">
<g clip-path="url(#clip0)">
<path d="M784.99 248.834C782.091 259.464 778.227 270.093 774.362 280.24C775.811 246.901 757.938 218.877 731.369 199.55C726.055 162.829 720.741 126.591 715.428 89.8699C714.945 87.9372 714.461 85.5213 713.012 84.555C709.631 82.6223 706.249 86.0045 704.317 89.3867C687.409 115.961 671.468 143.019 656.493 171.043C628.958 168.144 601.906 173.459 582.583 188.437C611.567 125.625 648.281 66.6776 691.274 12.5622C694.656 8.69678 698.037 4.34823 702.385 2.41553C712.046 -1.44985 722.674 4.34823 730.886 10.6295C769.048 41.0694 790.787 88.4203 796.583 137.221C800.448 174.908 795.617 212.596 784.99 248.834Z" fill="black"/>
<path d="M671.469 365.762C663.257 359.964 653.112 354.165 643.934 349.334C628.476 342.086 612.051 337.738 595.144 336.288C572.44 334.355 549.252 337.254 527.514 345.468C511.089 351.75 495.631 362.379 482.105 374.942C464.715 391.37 450.706 412.146 441.527 433.406C444.426 439.687 448.29 445.968 449.256 447.418C456.985 459.497 468.096 468.677 480.656 474.959C494.182 481.723 510.123 485.105 525.099 485.105C554.566 484.622 583.067 471.577 606.255 453.216C615.916 445.968 624.611 437.271 632.823 428.574C649.248 410.214 662.291 388.954 671.469 365.762ZM153.134 248.351L151.201 246.901C129.946 218.877 107.725 191.819 85.5035 164.762C77.7744 155.581 69.0791 145.435 57.4854 143.502C54.587 143.019 51.6885 143.019 49.2732 144.468C43.9594 147.367 43.9594 154.615 44.4425 160.413C49.7563 223.226 58.4515 285.555 70.0452 347.884C70.0452 348.851 70.5283 349.817 71.0114 350.783C73.9098 354.649 79.2236 350.3 81.639 346.435C102.411 311.646 126.565 278.79 153.134 248.351ZM342.014 472.06C349.744 465.295 356.99 458.531 365.202 452.25C358.922 434.372 352.159 416.495 342.498 400.067C340.565 397.168 339.116 394.269 337.184 391.37C325.107 373.492 309.166 357.548 289.843 348.367C272.452 340.153 252.163 336.771 232.84 338.221C217.865 339.187 201.924 345.468 186.465 354.649C164.244 368.177 142.506 387.021 127.048 405.382C126.082 403.449 124.632 402 122.7 402C120.285 402 119.319 406.831 121.734 406.348H122.7C122.7 407.798 122.217 409.247 121.734 410.697L122.7 411.18C124.149 409.247 125.598 407.314 127.531 405.382C128.014 405.865 128.014 406.348 128.014 406.831C140.574 431.956 157.964 455.632 180.186 473.026C188.881 479.79 198.059 486.072 208.204 490.903C243.468 507.814 287.427 509.264 320.759 488.971C328.005 484.139 335.251 478.341 342.014 472.06ZM396.602 585.605C409.644 570.627 420.755 554.199 430.417 537.288C406.746 534.872 383.559 540.187 360.371 545.985C370.999 560.48 383.076 574.009 396.602 585.605ZM23.1873 334.839C21.255 323.242 19.8058 311.646 18.3566 299.567C18.8397 301.016 19.3228 302.466 19.8058 303.915C28.9842 342.569 19.3228 303.915 19.3228 303.915C18.8397 301.5 18.3566 299.084 17.3905 296.668C14.009 281.689 11.1105 266.711 8.69518 251.733C7.72904 217.427 12.0767 182.639 21.7381 149.3C9.66132 172.009 4.83061 197.617 5.31368 223.709C0.482967 178.774 -0.000104427 133.838 3.86447 88.9034C4.34754 83.5885 5.08059 77.4503 9.9113 75.5176C13.2928 76.0008 16.4243 75.8577 19.8058 76.3409C20.772 76.8241 22.2212 77.3072 23.1873 78.2736C77.2913 108.23 132.845 140.603 172.939 186.504C180.669 197.134 152.376 160.239 160.105 170.869C152.859 159.272 181.635 196.651 172.939 186.504C160.863 170.076 148.786 153.649 137.192 137.704C129.946 128.04 122.7 117.894 114.971 108.713C118.835 111.613 122.7 114.512 126.565 117.411C158.447 143.502 185.016 175.391 211.102 207.764C214.001 211.146 216.416 214.528 219.314 217.911L220.28 220.326C267.138 200.033 321.725 196.168 373.414 195.685C397.568 195.201 421.238 195.685 445.392 196.651C445.392 196.651 445.392 196.651 445.875 196.651C486.936 198.101 527.514 201 568.092 205.348C570.507 205.348 572.923 205.831 575.338 206.314C578.719 206.798 582.101 206.798 585.482 207.281C582.101 206.798 578.719 206.314 575.338 206.314C577.753 200.516 580.341 191.16 583.24 185.362C600.185 163.013 632.707 160.342 660.242 163.241C652.03 178.702 640.553 203.415 632.823 219.36C660.359 235.305 686.536 253.707 708.274 276.899C716.003 285.113 725.78 294.139 734.958 288.341C742.204 283.509 740.982 273.112 739.533 263.931C736.151 242.188 732.24 207.105 728.859 185.362C755.428 204.689 785.964 184.061 784.514 217.4C788.379 207.253 790.614 219.688 785.474 249.8C777.745 341.603 767.117 434.372 735.718 520.86C719.293 565.795 697.072 608.798 669.537 647.935C614.95 724.759 535.243 788.538 442.01 801.584C317.861 818.978 195.161 741.187 126.082 636.339C66.6637 546.468 39.6118 441.137 23.1873 334.839Z" fill="black"/>
<path d="M741.033 264.779C742.482 273.476 742.482 284.589 735.236 289.42C726.057 295.218 714.947 286.038 707.218 278.307C685.479 255.115 657.281 235.633 629.746 219.688C637.475 203.744 649.743 182.516 657.955 167.055C684.524 169.954 708.645 167.892 730.383 183.836C738.008 205.958 738.134 243.036 741.033 264.779Z" fill="#A2A1A2"/>
<path d="M715.429 90.353C720.742 127.074 727.357 162.371 732.671 199.093C710.933 183.148 682.58 173.942 656.011 171.043C670.986 143.502 686.927 115.961 703.835 89.3866C705.767 86.4876 709.632 82.6222 712.53 84.5549C714.945 86.0044 715.429 88.4203 715.429 90.353Z" fill="#A2A1A2"/>
<path d="M643.935 349.334C653.113 354.165 662.775 360.446 671.47 365.761C662.775 388.471 649.732 410.213 633.307 428.091C634.756 401.033 627.51 373.492 612.535 350.783C608.187 344.502 602.391 337.737 595.145 337.254V335.805C612.052 337.737 628.96 342.086 643.935 349.334Z" fill="white"/>
<path d="M595.145 337.738C602.391 338.221 608.671 344.502 612.536 351.267C627.028 373.976 634.274 401.517 633.308 428.574C625.095 437.755 616.4 445.969 606.739 453.216C583.551 471.094 555.05 484.139 525.583 485.106C510.124 485.589 494.666 482.207 481.14 474.959C465.682 444.036 466.165 405.382 483.072 375.425L482.589 374.942C496.115 361.897 511.574 351.75 527.998 345.469C549.253 337.255 572.924 334.356 595.628 336.288L595.145 337.738Z" fill="#C1B665"/>
<path d="M603.825 155.613C596.938 174.966 588.675 192.707 581.789 212.061C574.902 210.448 568.016 210.448 561.13 208.835C573.525 187.869 588.675 170.128 603.825 155.613Z" fill="black"/>
<path d="M589.242 439.869C590.417 410.32 586.724 380.009 593.249 351.201C606.493 378.693 605.038 413.089 589.242 439.869Z" fill="black"/>
<path d="M482.107 374.942C465.683 405.382 465.2 444.036 480.658 474.959C468.098 468.677 456.988 459.014 449.258 447.418C448.292 445.968 444.911 439.687 441.529 433.406C450.708 412.146 464.717 391.853 482.107 374.942Z" fill="white"/>
<path d="M360.37 545.985C383.558 540.187 406.745 534.872 430.415 537.288C420.754 554.682 409.16 570.627 396.6 585.605C383.074 574.009 370.998 560.48 360.37 545.985Z" fill="#D76460"/>
<path d="M444.126 198.76C420.455 197.794 396.302 197.794 372.148 197.794C320.459 198.277 265.872 202.142 219.014 222.436L218.048 220.02C215.15 216.638 212.734 213.255 209.836 209.873C241.719 200.21 276.017 198.277 309.349 197.794C354.274 196.827 399.2 197.311 444.126 198.76Z" fill="black"/>
<path d="M342.498 400.067C352.159 416.495 359.406 433.889 365.202 452.25C356.99 458.531 349.744 465.295 342.015 472.06C343.947 456.598 344.913 441.137 343.464 425.675C342.498 414.079 340.566 402.483 336.701 391.853C339.117 394.752 340.566 397.168 342.498 400.067Z" fill="white"/>
<path d="M343.463 425.675C344.912 441.137 343.946 456.599 342.013 472.06C334.767 478.341 327.521 484.139 319.792 488.971C286.46 509.264 242.501 508.298 207.236 490.904C197.092 486.072 187.914 480.274 179.218 473.026C171.006 433.889 173.421 392.82 185.981 354.649C201.923 345.469 217.864 338.704 232.356 338.221C251.679 336.772 271.485 339.671 289.359 348.368C308.681 357.548 324.623 373.493 336.699 391.37C340.564 402.966 342.496 414.079 343.463 425.675Z" fill="#C1B665"/>
<path d="M311.921 462.551C302.653 436.547 300.103 407.66 304.511 380.341C316.106 405.695 320.051 434.191 314.583 461.305L311.921 462.551Z" fill="black"/>
<path d="M185.983 355.132C172.94 392.819 171.008 434.372 179.22 473.509C157.482 456.115 139.608 432.44 127.048 407.315C127.048 406.831 126.565 406.348 126.565 405.865C142.024 387.988 163.762 368.661 185.983 355.132Z" fill="white"/>
<path d="M137.192 136.941C149.269 153.369 161.346 169.797 172.94 185.742C131.896 170.869 75.0052 109.665 21.3843 79.7079C20.4185 77.73 16.9769 75.2381 16.0107 74.7549C53.3686 77.0433 85.9868 87.1744 114.971 107.468C122.7 117.131 129.946 126.795 137.192 136.941Z" fill="black"/>
<path d="M152.039 245.496L154.005 246.98C126.965 278.148 102.875 311.296 81.2433 346.422C78.7851 350.38 72.8855 354.833 70.4273 350.875C69.9357 349.886 69.4441 348.896 69.4441 347.907C57.1532 285.075 48.3037 220.759 42.8957 156.443C42.4041 150.506 42.4041 143.085 47.8121 140.116C50.2703 138.632 53.7117 138.632 56.1699 139.127C67.9692 141.601 77.3102 151.495 84.6848 160.895C107.792 189.096 130.407 217.296 152.039 245.496Z" fill="#A2A1A2"/>
<path d="M121.622 406.316H120.525C117.781 406.316 118.879 400.716 121.622 401.276C123.816 401.276 130.372 399.711 126.56 406.316C124.914 408.556 125.156 410.439 123.51 412.679L119.976 411.356C121.622 409.676 121.622 407.996 121.622 406.316Z" fill="black"/>
<path d="M81.6391 76.8239C94.199 85.521 104.827 96.634 114.971 108.713C85.9868 88.42 56.5194 80.6893 20.2891 76.8239C17.3906 75.3744 10.6735 77.043 9.91113 75.5174C35.0308 65.8539 59.4178 60.8792 81.6391 76.8239Z" fill="black"/>
<path d="M19.3219 303.916C18.8389 302.466 18.3558 301.017 17.8727 299.567C17.8727 298.601 17.3896 297.634 17.3896 296.668C18.3558 299.084 18.8389 301.5 19.3219 303.916Z" fill="black"/>
<path d="M17.8733 296.668C17.8733 297.634 18.3564 298.601 18.3564 299.567C16.9072 294.735 15.458 289.904 14.4918 285.072C13.0426 279.274 11.5934 273.476 10.6273 267.678C10.1442 262.363 9.66113 257.048 9.66113 251.733C11.5934 266.711 14.4918 281.69 17.8733 296.668Z" fill="black"/>
<path d="M21.7375 149.3C12.076 182.639 7.72839 217.428 9.1776 251.733C7.72839 242.553 6.27917 232.889 5.31303 223.709C4.82996 197.618 9.66067 172.009 21.7375 149.3Z" fill="black"/>
</g>
<defs>
<clipPath id="clip0">
<rect width="799" height="804" fill="white"/>
</clipPath>
</defs>
</svg>
