<svg width="473" height="342" viewBox="0 0 473 342" fill="none" xmlns="http://www.w3.org/2000/svg">
<path d="M70.6221 0L472.082 200.715L401.46 341.97L8.87171e-05 141.254L70.6221 0Z" fill="white"/>
<path d="M41.9827 102.384L66.6301 53.5271L78.6549 59.5934L63.4413 89.7502L95.414 68.0481L108.528 74.6637L83.8802 123.52L71.8554 117.454L87.069 87.2974L55.049 108.976L41.9827 102.384Z" fill="black"/>
<path d="M104.432 125.871C102.717 118.987 103.683 111.932 107.329 104.705C110.975 97.4771 116.076 92.5076 122.631 89.7961C129.185 87.0846 136.281 87.6554 143.919 91.5086C154.966 97.0813 160.018 105.47 159.077 116.676L146.133 115.61C146.189 108.907 143.715 104.313 138.713 101.829C135.02 99.9662 131.519 99.9221 128.208 101.697C124.929 103.487 122.167 106.607 119.922 111.058C117.677 115.508 116.809 119.583 117.317 123.285C117.857 127.002 119.974 129.792 123.666 131.654C128.653 134.17 133.825 133.414 139.183 129.386L147.733 139.163C139.28 146.579 129.53 147.5 118.484 141.928C110.846 138.074 106.162 132.722 104.432 125.871Z" fill="black"/>
<path d="M166.688 116.893L171.871 106.619L210.076 125.893L204.893 136.166L191.827 129.575L172.362 168.158L160.337 162.092L179.802 123.508L166.688 116.893Z" fill="black"/>
<path d="M200.985 174.64C198.939 167.629 199.755 160.478 203.433 153.188C207.127 145.865 212.393 140.96 219.232 138.47C226.118 135.966 233.364 136.632 240.97 140.469C248.608 144.322 253.45 149.754 255.496 156.765C257.589 163.76 256.789 170.919 253.095 178.241C249.417 185.532 244.135 190.429 237.249 192.934C230.41 195.423 223.172 194.741 215.534 190.888C207.928 187.051 203.078 181.635 200.985 174.64ZM224.69 150.608C221.032 152.365 218.144 155.343 216.026 159.54C213.908 163.738 213.23 167.83 213.99 171.817C214.751 175.803 216.993 178.736 220.717 180.615C224.473 182.51 228.164 182.57 231.791 180.797C235.449 179.039 238.337 176.062 240.454 171.864C242.572 167.667 243.251 163.574 242.49 159.588C241.762 155.617 239.519 152.684 235.763 150.79C232.039 148.911 228.348 148.85 224.69 150.608Z" fill="black"/>
<path d="M242.481 228.357L277.112 159.712L289.137 165.778L286.605 170.796C288.111 169.774 290.247 169.189 293.014 169.041C295.813 168.908 298.601 169.543 301.378 170.944C308.543 174.558 312.896 179.625 314.437 186.144C315.995 192.631 314.831 199.725 310.946 207.426C307.061 215.127 302.047 220.279 295.904 222.881C289.761 225.483 283.107 224.977 275.943 221.363C273.544 220.153 271.495 218.486 269.795 216.361C268.143 214.221 267.122 212.162 266.734 210.185L254.506 234.424L242.481 228.357ZM284.39 180.25C281.001 181.787 278.112 184.923 275.724 189.657C273.352 194.36 272.546 198.546 273.308 202.217C274.101 205.903 276.139 208.574 279.421 210.23C282.735 211.902 286.118 211.946 289.57 210.361C293.054 208.793 295.966 205.689 298.306 201.049C300.663 196.378 301.429 192.192 300.604 188.489C299.827 184.772 297.781 182.077 294.467 180.405C291.185 178.749 287.826 178.697 284.39 180.25Z" fill="black"/>
<path d="M309.748 237.467L334.396 188.61L346.42 194.677L331.207 224.834L363.179 203.131L376.293 209.747L351.646 258.604L339.621 252.537L354.834 222.381L322.814 244.059L309.748 237.467Z" fill="black"/>
<path d="M359.694 262.664L383.438 247.383C380.933 244.971 379.394 242.175 378.821 238.995C378.294 235.8 378.859 232.561 380.515 229.279C382.569 225.207 385.78 222.65 390.147 221.606C394.545 220.578 399.064 221.235 403.704 223.575L422.357 232.985L397.709 281.842L385.684 275.776L396.336 254.661L394.963 253.969L372.476 269.112L359.694 262.664ZM397.859 233.514C395.271 232.209 393.371 232.755 392.161 235.154C390.967 237.521 391.664 239.357 394.252 240.663L401.543 244.341L405.149 237.192L397.859 233.514Z" fill="black"/>
</svg>
