<svg width="100%" height="100%" viewBox="0 0 19203 1080" fill="none" xmlns="http://www.w3.org/2000/svg">
<g clip-path="url(#clip0)">
<rect width="19203" height="1080" fill="white"/>
<path d="M17076 -2H19339V538V1155L17076 1078V-2Z" fill="#FF7B7B"/>
<path d="M15628 0H17988.3L18003.7 147.526C18035.9 458.233 18211.5 736.015 18478.4 898.437L18867 1135H15628V567.5V0Z" fill="white"/>
<rect x="3660" y="-35" width="1920" height="1115" fill="#FF7B7B"/>
<path d="M4620 258.677C4620 -505.611 4226.57 -36.5836 3906 -36.5836C3890 -36.5838 3311.5 -36.5833 3406.5 130.336L2997 13.135L3024 1080H4049.54V1079.9C4365.47 1072.38 4620 707.59 4620 258.677Z" fill="black"/>
<path d="M1350 -35H3854V522.5V1080H1350V-35Z" fill="black"/>
<path d="M0 -35H1920.93L1936.21 142.666C1960.9 429.736 2108.22 692.205 2340.41 862.811L2636 1080H0V-35Z" fill="#FF7B7B"/>
<path d="M9598 -2H16064.7L16076.8 38.5397C16181.7 389.315 16469.9 654.736 16828.1 730.463L18472 1078H9598V-2Z" fill="white"/>
<path d="M11217.3 544.928C11874.8 -908.433 9826.72 -526.732 9268.49 -526.732C8843.54 -526.732 8479.78 -310.505 8330.44 -4.32812H7504.69L7500 1139.22H9285.84V1139.12C9835.99 1131.49 10761.4 1552.53 11217.3 544.928Z" fill="#D8B451"/>
<path d="M5580 -110.5L7537.5 -50L7553.9 138.319C7579.79 435.517 7737.01 705.639 7982.65 874.932L8300.5 1094L5580 1078V-110.5Z" fill="white"/>
</g>
<defs>
<clipPath id="clip0">
<rect width="19203" height="1080" fill="white"/>
</clipPath>
</defs>
</svg>
