<svg width="380" height="233" viewBox="0 0 380 233" fill="none" xmlns="http://www.w3.org/2000/svg">
<rect x="38.7109" width="366.285" height="105.416" transform="rotate(21.544 38.7109 0)" fill="white"/>
<path d="M55.7896 90.2315L74.9981 42.2388L87.3774 47.1935L87.2114 79.1758L109.111 55.8921L121.49 60.8467L102.282 108.839L90.461 104.108L100.065 80.1119L84.904 96.8125L76.6666 93.5156L77.2147 70.9663L67.6104 94.9627L55.7896 90.2315Z" fill="black"/>
<path d="M128.052 63.4731L139.966 68.2415L139.093 102.8L161.607 76.9028L173.428 81.634L121.68 139.156L110.232 134.574L127.524 115.381L128.052 63.4731Z" fill="black"/>
<path d="M164.019 117.417L175.254 120.241C174.72 122.473 174.767 124.47 175.394 126.232C176.02 127.993 177.358 129.284 179.405 130.103C181.36 130.886 183.172 130.856 184.841 130.013C186.51 129.17 187.754 127.726 188.573 125.68C189.417 123.571 189.525 121.636 188.899 119.875C188.284 118.082 187.062 116.82 185.231 116.087C183.649 115.454 181.936 115.236 180.093 115.433L177.329 106.827L190.136 99.3818L176.314 93.8497L180.129 84.3162L209.588 96.1068L208.136 99.7342L190.601 109.82C190.999 109.907 191.585 110.105 192.361 110.416C196.177 111.943 198.687 114.44 199.891 117.908C201.126 121.387 200.868 125.313 199.119 129.685C197.158 134.583 193.96 137.853 189.523 139.494C185.118 141.148 180.541 141.025 175.794 139.125C171.234 137.3 167.811 134.383 165.528 130.376C163.244 126.369 162.741 122.049 164.019 117.417Z" fill="black"/>
<path d="M208.138 133.456C208.398 130.287 209.124 127.215 210.316 124.238C211.507 121.262 213.101 118.537 215.099 116.063C217.141 113.571 219.514 111.464 222.219 109.741C224.968 108 228.176 106.999 231.843 106.741C235.554 106.463 239.379 107.113 243.319 108.69C247.136 110.218 250.235 112.321 252.618 115.002C255.013 117.651 256.586 120.511 257.337 123.581C258.132 126.632 258.408 129.674 258.166 132.707C257.955 135.752 257.304 138.639 256.212 141.367L254.258 146.25L221.169 133.006C220.126 135.97 220.164 138.935 221.281 141.9C222.441 144.846 224.743 147.008 228.187 148.387C233.089 150.349 237.954 149.436 242.781 145.649L250.926 152.956C243.127 160.661 233.983 162.415 223.497 158.218C219.556 156.64 216.333 154.487 213.826 151.757C211.35 149.04 209.718 146.102 208.93 142.945C208.172 139.801 207.909 136.638 208.138 133.456ZM225.189 123.771L245.899 132.06C247.009 125.418 244.797 121.007 239.262 118.828C236.47 117.711 233.789 117.663 231.22 118.685C228.651 119.707 226.641 121.402 225.189 123.771Z" fill="black"/>
<path d="M256.465 170.549L275.673 122.557L287.494 127.288L275.638 156.911L303.969 133.882L316.86 139.041L297.652 187.034L285.831 182.303L297.687 152.679L269.309 175.69L256.465 170.549ZM292.51 107.606L301.166 111.07C300.856 111.845 300.828 112.59 301.082 113.303C301.38 113.998 301.902 114.494 302.646 114.792C303.422 115.102 304.142 115.103 304.806 114.793C305.513 114.465 306.022 113.913 306.332 113.138L314.988 116.602C313.847 119.455 311.827 121.488 308.929 122.702C306.063 123.929 302.938 123.865 299.556 122.512C296.206 121.171 293.9 119.061 292.641 116.183C291.412 113.317 291.368 110.458 292.51 107.606Z" fill="black"/>
</svg>
