<svg width="2014" height="1080" viewBox="0 0 2014 1080" fill="none" xmlns="http://www.w3.org/2000/svg">
<path d="M479 0H2014V1080H0L458.695 661.5L479 0Z" fill="black"/>
<path d="M1024.01 564V513.609H1036.41V531.92H1053.21V513.609H1065.61V564H1053.21V542.516H1036.41V564H1024.01ZM1078.5 547.936C1077.59 544.973 1077.13 541.93 1077.13 538.805C1077.13 535.68 1077.59 532.636 1078.5 529.674C1079.44 526.679 1080.83 523.912 1082.65 521.373C1084.51 518.801 1087.04 516.734 1090.27 515.172C1093.52 513.577 1097.22 512.779 1101.35 512.779C1105.36 512.779 1108.92 513.561 1112.04 515.123C1115.17 516.653 1117.63 518.671 1119.42 521.178C1121.24 523.652 1122.59 526.305 1123.47 529.137C1124.38 531.969 1124.84 534.817 1124.84 537.682V542.809H1090.12C1090.25 545.868 1091.36 548.538 1093.44 550.816C1095.56 553.062 1098.42 554.186 1102.04 554.186C1107.18 554.186 1111.25 551.598 1114.24 546.422L1124.25 550.084C1119.99 559.882 1112.35 564.781 1101.35 564.781C1097.22 564.781 1093.52 564 1090.27 562.438C1087.04 560.875 1084.51 558.808 1082.65 556.236C1080.83 553.665 1079.44 550.898 1078.5 547.936ZM1090.41 532.994H1112.14C1110.74 526.581 1107.15 523.391 1101.35 523.424C1098.42 523.424 1095.98 524.352 1094.03 526.207C1092.07 528.062 1090.87 530.325 1090.41 532.994ZM1131.09 524.205V513.609H1170.49V524.205H1157.02V564H1144.61V524.205H1131.09Z" fill="white"/>
</svg>
