<svg width="778" height="659" viewBox="0 0 778 659" fill="none" xmlns="http://www.w3.org/2000/svg">
<path d="M18.4264 413.487C64.9129 390.894 77.6259 366.419 75.5361 345.776C71.5641 307.147 56.4857 295.44 65.1426 256.525C72.1583 225.134 79.6147 214.985 102.106 183.404C118.509 160.365 137.804 139.419 160.361 123.882C189.758 103.675 223.447 93.558 256.812 87.1625C278.883 82.8929 301.175 80.198 323.108 81.3091C358.544 83.1897 392.06 94.9497 424.851 107.398C529.782 147.071 637.402 197.949 698.089 297.532C717.578 329.562 731.22 372.706 712.411 408.686C706.035 420.865 696.543 430.859 686.546 439.754C625.617 493.715 544.117 508.572 469.647 502.524C395.177 496.476 324.615 471.981 252.075 456.453C221.707 449.957 148.879 411.766 131.809 408.426C97.6733 401.944 53.7089 406.899 18.4264 413.487Z" fill="black"/>
</svg>
