<svg width="705" height="357" viewBox="0 0 705 357" fill="none" xmlns="http://www.w3.org/2000/svg">
<rect x="40.7383" width="708.256" height="116.332" transform="rotate(20.4986 40.7383 0)" fill="white"/>
<path d="M41.7639 29.6403L53.6922 34.258L53.1394 68.9021L75.3589 42.6456L87.194 47.2272L36.1047 105.57L24.6424 101.133L41.7153 81.6661L41.7639 29.6403Z" fill="black"/>
<path d="M65.4931 94.4269L69.4291 84.2594C72.2248 85.3417 74.49 85.6259 76.2248 85.1122C77.9906 84.6105 79.4754 83.1739 80.6792 80.8025L95.9539 50.6183L130.993 64.1828L112.274 112.537L100.439 107.955L115.222 69.7687L103.014 65.0427L90.2399 89.4602C88.8409 92.1513 87.2748 94.167 85.5415 95.5073C83.8392 96.8598 81.8464 97.5789 79.5629 97.6647C77.3105 97.7625 75.179 97.5479 73.1684 97.021C71.1578 96.4941 68.5994 95.6294 65.4931 94.4269Z" fill="black"/>
<path d="M130.465 117.586C129.536 115.466 129.512 113.266 130.395 110.985C131.29 108.674 132.795 107.047 134.909 106.106C137.036 105.134 139.249 105.092 141.547 105.982C143.846 106.872 145.454 108.392 146.371 110.543C147.301 112.663 147.318 114.879 146.424 117.19C145.541 119.471 144.042 121.081 141.928 122.023C139.813 122.964 137.606 122.99 135.308 122.1C133.009 121.21 131.395 119.705 130.465 117.586Z" fill="black"/>
<path d="M182.493 139.72L201.212 91.3659L240.631 106.626L221.912 154.98L210.077 150.398L224.86 112.212L209.111 106.115L194.328 144.302L182.493 139.72Z" fill="black"/>
<path d="M227.377 179.616L253.678 111.677L265.513 116.258L263.59 121.225C264.911 120.12 266.863 119.367 269.447 118.967C272.062 118.578 274.736 118.913 277.47 119.971C284.521 122.701 289.065 127.064 291.102 133.06C293.15 139.025 292.699 145.819 289.748 153.441C286.798 161.062 282.557 166.389 277.026 169.42C271.495 172.451 265.204 172.601 258.153 169.871C255.792 168.957 253.718 167.58 251.93 165.739C250.186 163.878 249.042 162.034 248.499 160.208L239.212 184.198L227.377 179.616ZM262.365 130.341C259.323 132.108 256.896 135.335 255.082 140.02C253.28 144.675 252.902 148.695 253.949 152.081C255.027 155.479 257.181 157.804 260.411 159.055C263.673 160.317 266.852 160.039 269.949 158.221C273.077 156.415 275.53 153.216 277.308 148.624C279.097 144.001 279.438 139.985 278.329 136.574C277.264 133.145 275.1 130.799 271.838 129.536C268.608 128.285 265.45 128.554 262.365 130.341Z" fill="black"/>
<path d="M291.339 181.856L310.058 133.502L321.893 138.084L310.339 167.93L338.387 144.469L351.294 149.466L332.575 197.82L320.74 193.238L332.294 163.392L304.199 186.835L291.339 181.856Z" fill="black"/>
<path d="M345.575 202.853L364.294 154.498L376.688 159.297L376.817 191.349L398.448 167.72L410.843 172.518L392.124 220.872L380.289 216.291L389.648 192.114L374.678 209.054L366.431 205.862L366.77 183.257L357.41 207.434L345.575 202.853Z" fill="black"/>
<path d="M409.693 209.949C409.924 206.769 410.62 203.68 411.781 200.682C412.942 197.683 414.507 194.931 416.477 192.425C418.491 189.9 420.839 187.756 423.521 185.993C426.247 184.211 429.438 183.165 433.094 182.856C436.793 182.528 440.614 183.128 444.56 184.655C448.38 186.134 451.492 188.201 453.893 190.854C456.307 193.477 457.902 196.321 458.68 199.388C459.5 202.435 459.804 205.48 459.591 208.522C459.408 211.577 458.785 214.478 457.721 217.227L455.817 222.147L422.688 209.322C421.675 212.306 421.74 215.276 422.881 218.233C424.066 221.17 426.382 223.306 429.83 224.64C434.738 226.54 439.583 225.56 444.363 221.7L452.555 228.912C444.846 236.739 435.741 238.62 425.242 234.555C421.297 233.028 418.062 230.913 415.536 228.212C413.041 225.522 411.386 222.6 410.57 219.447C409.786 216.306 409.494 213.14 409.693 209.949ZM426.613 200.012L447.348 208.039C448.394 201.369 446.147 196.979 440.605 194.869C437.81 193.787 435.135 193.775 432.582 194.834C430.029 195.893 428.039 197.619 426.613 200.012Z" fill="black"/>
<path d="M468.691 206.604L472.628 196.437L510.23 210.993L506.294 221.161L493.433 216.182L478.651 254.369L466.815 249.787L481.598 211.601L468.691 206.604Z" fill="black"/>
<path d="M500.55 262.847L519.269 214.492L531.104 219.074L524.302 236.645L540.331 242.85L547.133 225.279L558.968 229.861L540.249 278.215L528.414 273.633L536.395 253.017L520.366 246.812L512.385 267.428L500.55 262.847Z" fill="black"/>
<path d="M555.794 268.231C557.656 263.421 561.038 260.312 565.941 258.906C570.843 257.499 576.338 257.974 582.426 260.331L590.441 263.434L591.257 261.325C593.095 256.577 591.212 253.136 585.609 251.003C581.353 249.356 577.875 250.128 575.175 253.321L566.046 247.147C568.382 243.418 571.674 240.957 575.922 239.764C580.17 238.571 584.717 238.913 589.563 240.789C603.045 246.008 607.167 255.38 601.931 268.905L590.758 297.768L581.02 293.998L582.184 287.391C576.648 290.528 570.82 290.912 564.701 288.543C560.445 286.895 557.44 284.277 555.686 280.689C553.944 277.069 553.98 272.917 555.794 268.231ZM568.261 272.842C567.765 274.123 567.755 275.394 568.231 276.656C568.75 277.898 569.817 278.832 571.433 279.457C574.353 280.588 577.287 280.664 580.237 279.687C583.219 278.722 585.283 276.756 586.432 273.788L586.795 272.851L578.874 269.785C573.407 267.668 569.869 268.687 568.261 272.842Z" fill="black"/>
<path d="M597.142 300.239L618.048 283.603C615.478 281.567 613.781 279.078 612.955 276.136C612.173 273.175 612.41 270.071 613.668 266.822C615.228 262.792 618.01 260.08 622.015 258.685C626.05 257.302 630.351 257.495 634.918 259.262L653.276 266.369L634.557 314.724L622.722 310.142L630.812 289.245L629.461 288.722L609.722 305.109L597.142 300.239ZM630.329 269.177C627.782 268.191 626.049 268.885 625.13 271.259C624.223 273.602 625.043 275.266 627.59 276.253L634.766 279.03L637.505 271.955L630.329 269.177Z" fill="black"/>
</svg>
