<svg width="336" height="336" viewBox="0 0 336 336" fill="none" xmlns="http://www.w3.org/2000/svg">
<circle cx="168" cy="168" r="168" fill="black"/>
<path d="M105 100.238C107.771 85.2175 114.863 72.756 126.278 62.8536C137.693 52.9512 152.266 48 169.997 48C189.059 48 204.297 52.8956 215.712 62.6867C227.237 72.4779 233 85.6069 233 102.074C233 114.869 229.287 124.772 221.862 131.781C214.548 138.791 202.579 145.522 185.956 151.975C174.652 156.537 167.005 160.32 163.016 163.324C159.026 166.217 157.031 169.944 157.031 174.506C157.031 178.178 158.195 181.071 160.522 183.185C162.96 185.299 165.897 186.356 169.332 186.356C178.642 186.356 185.125 181.126 188.782 170.668L218.704 182.016C214.825 192.92 208.619 201.543 200.086 207.885C191.663 214.116 181.412 217.231 169.332 217.231C155.48 217.231 144.176 213.17 135.421 205.048C126.666 196.926 122.288 186.411 122.288 173.505C122.288 153.255 134.59 138.401 159.192 128.944C172.38 123.937 181.301 119.431 185.956 115.425C190.721 111.309 193.104 106.413 193.104 100.739C193.104 94.953 191.054 90.6694 186.953 87.8878C182.964 84.995 177.644 83.5486 170.995 83.5486C156.255 83.5486 146.614 91.1701 142.07 106.413L105 100.238ZM141.073 263.962C141.073 255.951 143.843 249.164 149.384 243.601C154.926 238.037 161.575 235.256 169.332 235.256C177.09 235.256 183.739 238.093 189.281 243.767C194.822 249.331 197.592 256.062 197.592 263.962C197.592 271.75 194.877 278.37 189.447 283.822C184.016 289.274 177.312 292 169.332 292C161.353 292 154.648 289.274 149.218 283.822C143.788 278.37 141.073 271.75 141.073 263.962Z" fill="#FF7B7B"/>
</svg>
