<svg width="500" height="502" viewBox="0 0 500 502" fill="none" xmlns="http://www.w3.org/2000/svg">
<path d="M0 201.19L294.497 -7.58437e-05L499.879 300.633L205.382 501.823L0 201.19Z" fill="white"/>
<path d="M386.414 332.82L386.655 333.166C383.69 335.163 380.689 337.066 377.725 339.064C372.448 332.656 367.769 325.802 363.724 318.599C366.223 317.105 368.722 315.612 371.257 314.214C376.365 320.467 381.342 326.662 386.414 332.82Z" fill="#D9D9D9"/>
<path d="M365.522 306.886C367.434 309.329 369.441 311.735 371.389 314.272C368.89 315.766 366.355 317.164 363.856 318.658C363.543 318.121 363.266 317.68 363.049 317.107C362.037 315.307 360.99 313.41 359.239 312.546L358.481 311.413C360.752 309.897 363.119 308.344 365.522 306.886Z" fill="black"/>
<path d="M377.724 339.064C376.589 339.822 375.453 340.58 374.281 341.243C369.698 334.353 365.115 327.464 360.531 320.574C361.607 319.948 362.684 319.321 363.724 318.599C367.805 325.898 372.484 332.751 377.724 339.064Z" fill="black"/>
<path d="M360.531 320.574C359.742 321.092 359.012 321.478 358.223 321.995C356.384 319.744 354.641 317.456 352.898 315.169C354.727 313.929 356.556 312.69 358.385 311.45L359.142 312.582C360.989 313.411 362.037 315.307 362.952 317.144C363.265 317.681 363.542 318.122 363.759 318.695C362.683 319.321 361.607 319.948 360.531 320.574Z" fill="black"/>
<path d="M352.886 290.6C357.022 296.021 361.254 301.406 365.485 306.791C363.118 308.344 360.715 309.801 358.384 311.45C356.555 312.689 354.726 313.929 352.897 315.169C350.132 311.63 347.427 307.96 344.721 304.29C348.958 303.338 351.315 298.295 352.273 293.891C352.521 292.814 352.674 291.773 352.886 290.6Z" fill="#D9D9D9"/>
<path d="M358.223 321.995C359.012 321.478 359.742 321.092 360.531 320.574C365.114 327.464 369.697 334.353 374.281 341.243C371.28 343.146 368.375 345.012 365.374 346.914C360.504 340.133 356.231 332.908 352.09 325.741C354.146 324.524 356.167 323.212 358.223 321.995Z" fill="#D9D9D9"/>
<path d="M352.887 290.6C352.734 291.641 352.522 292.814 352.273 293.891C351.316 298.295 348.959 303.339 344.721 304.29C340.681 298.833 336.737 293.339 332.888 287.809C333.32 288.082 333.848 288.319 334.244 288.496C336.127 289.42 338.561 290.354 340.126 288.996C341.189 288.047 341.316 286.36 341.324 284.938C341.254 281.578 341.185 278.219 340.828 274.969C344.855 280.104 348.823 285.37 352.887 290.6Z" fill="black"/>
<path d="M284.385 194.26C302.358 221.736 321.181 248.564 340.887 274.837C341.148 278.124 341.35 281.542 341.383 284.806C341.375 286.228 341.249 287.915 340.185 288.864C338.62 290.222 336.222 289.384 334.303 288.364C333.871 288.091 333.379 287.95 332.947 287.677C326.453 278.345 320.341 268.868 314.384 259.223C311.109 261.557 307.738 263.927 304.463 266.261C284.715 238.147 266.258 209.106 249.164 179.33C253.032 174.806 256.431 169.913 259.435 164.842C269.412 172.963 277.756 183.996 284.385 194.26Z" fill="#D9D9D9"/>
<path d="M352.898 315.169C354.641 317.456 356.48 319.708 358.223 321.995C356.167 323.212 354.051 324.56 352.03 325.873C351.994 325.777 351.958 325.682 351.958 325.682C350.742 323.631 349.527 321.58 348.311 319.529L347.794 318.742C349.491 317.443 351.164 316.372 352.898 315.169Z" fill="black"/>
<path d="M365.41 347.01C364.525 347.564 363.736 348.081 362.852 348.635C358.173 341.782 353.362 334.869 348.683 328.016C349.818 327.258 350.99 326.595 352.03 325.873C356.267 333.003 360.54 340.229 365.41 347.01Z" fill="black"/>
<path d="M289.715 359.879C288.137 360.914 286.559 361.95 284.944 362.889C281.656 364.901 278.368 366.912 275.044 368.828C271.971 370.539 268.802 372.287 265.692 373.903C263.644 369.656 261.5 365.446 259.164 361.308C259.319 361.139 259.475 360.971 259.726 360.767C262.685 357.024 260.981 351.663 259.22 347.307C255.299 337.545 251.342 327.688 247.325 317.962C252.431 327.384 258.421 336.252 265.356 344.434C267.495 346.9 269.73 349.329 272.728 350.594C275.726 351.86 279.629 351.472 281.67 349.06C284.26 345.784 282.773 340.997 281.001 337.191C276.938 327.92 272.816 318.78 268.657 309.545C274.792 318.795 283.139 326.66 292.821 332.272C295.208 333.66 298.111 334.962 300.863 334.137C303.711 333.275 305.367 330.135 305.538 327.122C305.709 324.108 304.623 321.244 303.573 318.475C301.943 314.178 300.314 309.881 298.721 305.68C302.999 310.611 307.779 315.132 312.989 319.054C317.298 322.335 322.96 325.429 327.997 323.41C332.806 321.368 334.765 315.274 333.72 310.21C332.676 305.145 329.489 300.784 326.375 296.613C322.611 291.597 318.848 286.581 315.18 281.528C321.642 287.596 327.971 293.605 334.432 299.674C337.123 302.148 340.208 304.8 343.825 304.521C344.148 304.508 344.435 304.399 344.663 304.422C347.368 308.092 350.038 311.667 352.839 315.3C351.106 316.504 349.468 317.671 347.735 318.874C342.882 322.243 338.161 325.672 333.439 329.101C327.332 333.492 321.26 337.978 315.188 342.465C310.276 345.966 305.363 349.467 300.414 352.873C296.875 355.089 293.313 357.532 289.715 359.879Z" fill="#6C6B6C"/>
<path d="M348.647 327.92C353.326 334.774 358.136 341.686 362.815 348.54C358.392 351.309 353.872 354.115 349.353 356.921C345.561 350.387 341.009 341.847 337.241 335.085C341.067 332.76 344.857 330.34 348.647 327.92Z" fill="#D9D9D9"/>
<path d="M344.722 304.29C344.434 304.399 344.207 304.376 343.883 304.389C340.303 304.764 337.086 302.053 334.491 299.542C328.03 293.474 321.7 287.464 315.239 281.396C313.459 279.013 311.776 276.594 310.128 274.27C317.544 279.102 325.175 283.635 332.984 287.772C336.737 293.339 340.681 298.833 344.722 304.29Z" fill="black"/>
<path d="M348.646 327.92C344.857 330.34 341.067 332.76 337.277 335.18C335.989 332.939 334.809 330.983 333.739 329.314L333.462 328.873C338.183 325.445 343 321.98 347.757 318.647L348.275 319.433C349.49 321.484 350.706 323.535 351.922 325.586C351.958 325.682 351.994 325.777 351.994 325.777C350.954 326.499 349.818 327.257 348.646 327.92Z" fill="black"/>
<path d="M314.288 259.259C320.245 268.904 326.452 278.345 332.851 287.713C325.042 283.576 317.411 279.043 309.995 274.211C308.107 271.541 306.219 268.872 304.331 266.202C307.774 264.023 311.049 261.689 314.288 259.259Z" fill="#6C6B6C"/>
<path d="M315.143 281.433C318.81 286.485 322.574 291.501 326.337 296.518C329.451 300.688 332.734 305.013 333.683 310.114C334.727 315.179 332.769 321.273 327.959 323.315C322.959 325.429 317.297 322.334 312.951 318.959C307.742 315.037 302.962 310.515 298.683 305.585C297.307 301.957 295.895 298.233 294.387 294.545C299.617 301.408 306.198 307.213 313.601 311.723C315.725 312.992 318.65 314.067 320.394 312.314C321.11 311.605 321.431 310.719 321.488 309.715C322.241 305.061 319.474 300.649 316.887 296.716C310.957 287.716 305.121 278.68 299.442 269.476C301.115 268.404 302.657 267.274 304.331 266.202C306.219 268.872 308.107 271.541 309.995 274.211C311.715 276.725 313.495 279.109 315.143 281.433Z" fill="black"/>
<path d="M349.389 357.017C348.505 357.571 347.524 358.161 346.544 358.751C342.056 351.825 337.568 344.899 333.045 337.878C334.468 337.01 335.758 336.084 337.181 335.217C341.141 341.906 345.693 350.446 349.389 357.017Z" fill="black"/>
<path d="M333.177 337.937C337.665 344.863 342.152 351.789 346.676 358.81C341.87 361.725 337.159 364.603 332.352 367.518C327.841 360.819 323.199 354.062 318.688 347.363C323.518 344.221 328.311 340.983 333.177 337.937Z" fill="#D9D9D9"/>
<path d="M333.177 337.937C328.347 341.079 323.517 344.221 318.591 347.399C317.425 345.767 316.318 344.002 315.151 342.369C321.259 337.978 327.331 333.492 333.402 329.005L333.679 329.446C334.75 331.115 335.966 333.166 337.217 335.312C335.89 336.143 334.563 336.974 333.177 337.937Z" fill="black"/>
<path d="M316.961 296.907C319.548 300.841 322.315 305.252 321.562 309.906C321.373 310.851 321.088 311.833 320.468 312.505C318.724 314.258 315.762 313.088 313.675 311.914C306.272 307.404 299.691 301.599 294.461 294.737C292.193 289.044 289.889 283.256 287.429 277.636C291.602 275.071 295.643 272.446 299.647 269.726C305.159 278.776 311.03 287.907 316.961 296.907Z" fill="#6C6B6C"/>
<path d="M304.367 266.298C302.73 267.465 301.152 268.5 299.478 269.571C291.307 256.397 283.328 243.151 275.408 229.772C266.863 215.32 258.376 200.737 249.986 186.117C249.047 184.508 248.144 182.993 247.301 181.347C247.922 180.675 248.543 180.003 249.128 179.235C266.198 209.238 284.619 238.183 304.367 266.298Z" fill="black"/>
<path d="M275.445 229.868C283.329 243.151 291.344 256.493 299.515 269.667C295.51 272.387 291.374 275.048 287.297 277.576C277.771 255.633 266.404 234.607 250.626 216.673C244.485 209.718 237.711 203.113 232.61 195.437C237.916 191.241 242.849 186.64 247.279 181.574C248.122 183.221 249.024 184.735 249.963 186.345C258.413 200.833 266.899 215.416 275.445 229.868Z" fill="#D9D9D9"/>
<path d="M257.634 163.559C258.235 163.987 258.871 164.51 259.375 164.974C256.372 170.044 252.876 174.974 249.104 179.462C248.202 177.948 247.395 176.397 246.492 174.883C250.158 170.981 253.824 167.079 257.634 163.559Z" fill="black"/>
<path d="M182.714 125.351C182.561 126.392 182.312 127.469 182.483 128.496C182.654 129.523 183.339 130.465 184.418 130.711C185.269 130.934 186.19 130.476 186.679 129.744C187.168 129.013 187.129 128.045 186.839 127.281C186.092 125.599 184.149 124.806 182.714 125.351ZM172.901 140.758C172.963 141.499 173.025 142.24 173.278 142.908C173.581 143.994 174.338 145.127 175.44 145.146C176.219 145.178 177.008 144.661 177.629 143.988C178.656 142.943 179.634 141.481 179.223 140.107C178.92 139.021 177.72 138.165 176.618 138.147C175.552 138.223 173.7 139.69 172.901 140.758ZM187.886 141.3C187.71 142.568 188.085 143.846 188.866 144.751C189.202 145.06 189.575 145.465 190.066 145.606C190.954 145.925 191.97 145.43 192.459 144.699C193.044 143.931 193.101 142.926 193.003 142.09C192.76 140.872 191.965 139.644 190.814 139.207C189.723 138.638 188.553 140.173 187.886 141.3ZM167.065 168.963C162.965 171.719 159.141 174.916 155.69 178.519C150.562 161.242 151.94 140.625 164.647 127.943C168.636 124.027 173.502 120.981 178.309 118.066C188.018 112.2 198.924 106.316 210.236 108.143C216.563 109.238 222.238 112.656 227.746 115.919C232.629 118.981 237.572 121.912 242.456 124.975C238.446 129.99 233.559 134.137 227.951 137.246C227.987 137.342 227.987 137.342 228.023 137.437C207.388 146.246 187.101 155.686 168.356 168.036C168.009 168.277 167.471 168.59 167.065 168.963ZM202.402 128.478C202.422 127.378 201.628 126.15 200.454 125.94C199.279 125.731 198.203 126.357 197.295 127.138L197.091 126.888C195.823 127.587 195.614 129.633 196.563 130.692C197.512 131.752 199.333 131.935 200.601 131.236C201.713 130.705 202.417 129.674 202.402 128.478Z" fill="#ECD648"/>
<path d="M318.651 347.268C323.162 353.966 327.804 360.724 332.315 367.423C331.586 367.809 330.893 368.29 330.163 368.676C325.556 362.013 320.699 355.555 315.495 349.338C316.535 348.616 317.611 347.99 318.651 347.268Z" fill="black"/>
<path d="M246.552 174.751C246.027 175.387 245.369 175.964 244.844 176.6C243.471 173.844 242.193 171.052 241.167 168.056L240.553 167.306C244.139 164.636 247.725 161.965 251.406 159.259C253.625 160.492 255.689 161.894 257.694 163.427C253.824 167.079 250.158 170.981 246.552 174.751Z" fill="#D9D9D9"/>
<path d="M330.163 368.676C325.895 371.277 321.59 373.783 317.381 376.253C312.847 369.782 308.217 363.347 303.587 356.911C307.568 354.419 311.609 351.794 315.59 349.302C320.699 355.555 325.556 362.013 330.163 368.676Z" fill="#D9D9D9"/>
<path d="M247.94 157.625C249.128 158.157 250.219 158.726 251.347 159.391C247.761 162.061 244.08 164.767 240.495 167.438C219.232 183.255 198.187 199.644 174.372 210.75C174.261 209.591 174.114 208.337 174.098 207.141C194.729 196.587 213.518 182.91 232.175 169.173C237.398 165.335 242.717 161.462 247.94 157.625Z" fill="#0D0E0F"/>
<path d="M179.511 182.154C191.318 176.912 203.533 172.171 214.51 165.606C221.468 161.438 228.595 157.425 235.867 153.794C240.037 154.396 244.137 155.681 247.903 157.529C242.585 161.403 237.362 165.24 232.043 169.114C213.349 182.755 194.501 196.565 173.966 207.082C173.403 198.668 174.707 189.983 178.112 182.794C178.59 182.612 179.069 182.431 179.511 182.154Z" fill="#D9D9D9"/>
<path d="M315.494 349.338C311.549 351.926 307.472 354.455 303.491 356.948C302.492 355.47 301.434 354.124 300.34 352.682C305.289 349.276 310.202 345.775 315.114 342.274C316.281 343.907 317.388 345.671 318.554 347.304C317.61 347.99 316.534 348.616 315.494 349.338Z" fill="black"/>
<path d="M294.293 294.582C295.801 298.269 297.177 301.897 298.589 305.621C300.218 309.918 301.847 314.214 303.44 318.416C304.49 321.185 305.577 324.049 305.406 327.063C305.235 330.076 303.543 333.12 300.731 334.078C297.978 334.903 295.172 333.565 292.689 332.213C283.007 326.601 274.66 318.736 268.524 309.486C266.957 305.931 265.33 302.507 263.667 298.987C271.072 308.411 280.294 316.272 290.731 322.143C291.133 311.943 286.793 302.231 282.443 293.069C280.888 289.836 279.37 286.698 277.816 283.465C281.044 281.586 284.236 279.611 287.429 277.636C289.756 283.197 292.12 288.853 294.293 294.582Z" fill="black"/>
<path d="M246.552 174.751C247.455 176.265 248.262 177.816 249.164 179.33C248.543 180.003 247.959 180.77 247.338 181.443C246.399 179.833 245.592 178.282 244.749 176.636C245.406 176.059 245.931 175.423 246.552 174.751Z" fill="black"/>
<path d="M244.749 176.636C245.592 178.282 246.436 179.928 247.338 181.443C242.909 186.508 237.88 191.145 232.67 195.305C231.599 193.636 230.66 192.026 229.685 190.321L229.613 190.13C235.159 186.28 240.02 181.487 244.749 176.636Z" fill="#0D0E0F"/>
<path d="M178.862 181.308C178.789 181.117 178.657 181.058 178.585 180.867C197.808 172.376 216.561 162.643 234.519 151.683C234.905 152.411 235.386 153.102 235.867 153.793C228.595 157.425 221.432 161.342 214.509 165.606C203.569 172.266 191.318 176.912 179.511 182.154C179.307 181.904 179.066 181.558 178.862 181.308Z" fill="#0D0E0F"/>
<path d="M210.896 199.958C206.028 202.132 201.027 204.247 196.05 206.134C194.997 206.533 194.04 206.896 192.987 207.295C186.957 209.582 180.855 211.678 174.739 213.451C174.605 212.519 174.47 211.587 174.336 210.655C198.187 199.645 219.232 183.255 240.458 167.342L241.071 168.093C242.062 170.993 243.339 173.785 244.749 176.636C240.02 181.487 235.159 186.28 229.517 190.167L229.421 190.203C228.381 190.925 227.305 191.551 226.265 192.273C222.63 194.525 218.755 196.432 214.844 198.243C214.652 198.315 214.461 198.388 214.269 198.46C213.157 198.991 212.045 199.522 210.896 199.958Z" fill="#D9D9D9"/>
<path d="M231.642 146.113C232.498 148.081 233.449 150.014 234.52 151.683C216.525 162.548 197.773 172.28 178.586 180.866C178.141 180.271 177.696 179.675 177.251 179.079C184.352 174.42 191.49 169.857 198.531 165.33C205.477 160.84 212.423 156.349 219.646 152.3C223.604 150.034 227.634 147.96 231.642 146.113Z" fill="#ECD648"/>
<path d="M230.314 142.903C230.713 143.953 231.243 145.062 231.677 146.208C227.575 148.092 223.64 150.13 219.741 152.263C212.519 156.313 205.573 160.804 198.627 165.294C191.489 169.857 184.388 174.516 177.347 179.043C176.938 178.543 176.589 177.911 176.18 177.41C183.173 172.465 190.165 167.52 197.158 162.575C202.668 158.629 208.31 154.742 214.097 151.237C219.25 148.081 224.644 145.271 230.314 142.903Z" fill="#0D0E0F"/>
<path d="M229.059 139.884C229.421 140.838 229.82 141.889 230.278 142.807C224.607 145.176 219.213 147.986 213.964 151.178C208.177 154.683 202.535 158.57 197.025 162.516C190.033 167.461 183.04 172.406 176.047 177.351C174.1 174.813 172.116 172.18 170.013 169.81C175.831 164.655 182.935 160.869 189.956 157.442C202.753 151.061 215.768 145.251 229.059 139.884Z" fill="#ECD648"/>
<path d="M228.059 137.533C228.349 138.297 228.674 139.156 229.096 139.979C215.768 145.251 202.79 151.156 189.956 157.442C182.972 160.965 175.832 164.655 170.013 169.81C169.473 169.251 168.992 168.56 168.451 168C187.101 155.686 207.423 146.341 228.059 137.533Z" fill="#0D0E0F"/>
<path d="M317.321 376.385C315.898 377.252 314.38 378.156 312.92 378.927C308.673 372.347 304.39 365.671 300.047 359.127C301.183 358.369 302.355 357.706 303.491 356.948C308.216 363.347 312.75 369.818 317.321 376.385Z" fill="black"/>
<path d="M287.297 277.577C284.105 279.552 280.912 281.527 277.684 283.406C263.226 253.941 247.213 225.284 229.682 197.53C230.626 196.845 231.666 196.123 232.574 195.342C237.675 203.018 244.449 209.623 250.59 216.577C266.368 234.511 277.735 255.538 287.297 277.577Z" fill="#0D0E0F"/>
<path d="M282.406 292.973C286.793 302.231 291.096 311.848 290.695 322.048C280.293 316.272 271.036 308.315 263.726 298.856C262.87 296.887 261.882 294.859 261.026 292.89C266.635 289.78 272.243 286.671 277.779 283.37C279.333 286.603 280.852 289.74 282.406 292.973Z" fill="#6C6B6C"/>
<path d="M300.144 359.091C304.391 365.671 308.674 372.347 313.017 378.891C310.075 380.662 307.098 382.337 304.12 384.012C299.276 377.877 295.124 371.26 291.703 364.258C294.452 362.56 297.298 360.826 300.144 359.091Z" fill="#D9D9D9"/>
<path d="M277.779 283.37C272.243 286.67 266.671 289.875 261.026 292.89C247.274 263.266 233.08 233.919 218.312 204.79C222.27 202.525 226.06 200.105 229.741 197.398C247.308 225.247 263.321 253.905 277.779 283.37Z" fill="#D9D9D9"/>
<path d="M300.143 359.091C297.298 360.825 294.548 362.523 291.702 364.258C291.027 362.766 290.388 361.37 289.713 359.879C293.311 357.532 296.91 355.184 300.376 352.777C301.471 354.219 302.433 355.602 303.527 357.043C302.355 357.706 301.183 358.369 300.143 359.091Z" fill="black"/>
<path d="M229.685 190.321C230.565 192.063 231.54 193.768 232.67 195.305C231.726 195.991 230.722 196.808 229.778 197.494C228.671 195.73 227.564 193.965 226.457 192.201C227.533 191.574 228.573 190.852 229.613 190.13L229.708 190.094L229.685 190.321Z" fill="#0D0E0F"/>
<path d="M304.12 384.012C303.044 384.639 301.968 385.265 300.892 385.892C297.814 381.817 294.987 377.537 292.028 373.199C290.585 371.125 289.224 368.692 287.745 366.523C289.108 365.788 290.339 364.993 291.667 364.162C295.029 371.296 299.18 377.913 304.12 384.012Z" fill="black"/>
<path d="M226.36 192.237C227.467 194.002 228.574 195.766 229.681 197.531C226 200.237 222.21 202.657 218.252 204.923C217.096 202.74 216 200.425 214.843 198.243C218.814 196.3 222.69 194.394 226.36 192.237Z" fill="#0D0E0F"/>
<path d="M292.028 373.199C294.95 377.442 297.777 381.721 300.892 385.892C297.567 387.807 294.243 389.723 290.883 391.544C286.325 385.3 281.923 378.887 277.521 372.475C280.941 370.523 284.361 368.571 287.781 366.619C289.224 368.692 290.584 371.125 292.028 373.199Z" fill="#D9D9D9"/>
<path d="M289.714 359.879C290.293 361.407 290.932 362.802 291.703 364.258C290.376 365.088 289.108 365.788 287.781 366.618C287.132 365.773 286.483 364.927 285.738 364.117C285.665 363.926 285.533 363.867 285.533 363.867L284.98 362.985C286.522 361.854 288.1 360.819 289.714 359.879Z" fill="black"/>
<path d="M268.523 309.486C272.682 318.721 276.805 327.86 280.868 337.132C282.544 340.974 284.127 345.725 281.537 349C279.532 351.508 275.592 351.801 272.594 350.535C269.596 349.269 267.325 346.745 265.222 344.375C258.288 336.193 252.297 327.325 247.192 317.903C246.01 315.075 244.887 312.115 243.705 309.287C250.009 318.691 258.141 326.856 267.525 333.127C266.197 320.962 261.014 309.604 255.903 298.436C255.518 297.709 255.264 297.04 254.879 296.313C256.876 295.228 258.873 294.143 260.87 293.058C261.726 295.027 262.714 297.055 263.57 299.024C265.293 302.411 266.956 305.931 268.523 309.486Z" fill="black"/>
<path d="M218.312 204.791C233.08 233.919 247.274 263.266 261.026 292.89C259.029 293.975 257.032 295.06 255.035 296.145C241.474 266.449 227.782 236.693 214.126 207.033C215.525 206.393 216.889 205.658 218.312 204.791Z" fill="#0D0E0F"/>
<path d="M285.701 364.022C286.446 364.831 287.095 365.677 287.745 366.523C284.361 368.571 280.941 370.523 277.485 372.38C276.763 371.343 276.041 370.306 275.284 369.173L275.007 368.732C278.331 366.817 281.655 364.901 284.907 362.794L285.461 363.676C285.497 363.772 285.533 363.867 285.701 364.022Z" fill="black"/>
<path d="M285.498 363.772C285.498 363.772 285.63 363.831 285.702 364.022C285.534 363.867 285.498 363.772 285.498 363.772Z" fill="#6C6B6C"/>
<path d="M255.963 298.305C261.074 309.472 266.257 320.83 267.585 332.995C258.201 326.725 249.973 318.596 243.765 309.155C243.005 307.15 242.113 305.086 241.352 303.081C245.993 300.884 250.466 298.533 255.034 296.145C255.324 296.909 255.71 297.636 255.963 298.305Z" fill="#6C6B6C"/>
<path d="M214.126 207.033C227.687 236.729 241.379 266.485 255.035 296.145C250.466 298.532 245.957 300.788 241.353 303.08C238.301 295.61 235.345 288.103 232.293 280.633C224.198 260.441 212.487 232.446 200.141 212.882C204.904 211.295 209.617 209.289 214.126 207.033Z" fill="#D9D9D9"/>
<path d="M290.787 391.58C289.903 392.134 288.982 392.593 288.001 393.183C283.001 387.216 278.312 380.912 273.91 374.5C275.082 373.837 276.253 373.174 277.425 372.511C281.791 378.828 286.289 385.204 290.787 391.58Z" fill="black"/>
<path d="M214.903 198.111C216.059 200.294 217.156 202.608 218.312 204.791C216.949 205.526 215.586 206.261 214.127 207.033C213.03 204.719 211.993 202.273 210.896 199.958C212.009 199.427 213.157 198.991 214.27 198.46C214.461 198.388 214.748 198.279 214.903 198.111Z" fill="black"/>
<path d="M190.874 139.075C192.061 139.608 192.819 140.74 193.062 141.958C193.197 142.89 193.14 143.895 192.519 144.567C191.934 145.335 190.977 145.698 190.126 145.474C189.634 145.333 189.298 145.024 188.926 144.619C188.144 143.714 187.769 142.436 187.945 141.168C188.553 140.173 189.723 138.638 190.874 139.075Z" fill="black"/>
<path d="M186.767 127.09C187.093 127.95 187.095 128.822 186.606 129.554C186.117 130.285 185.196 130.744 184.345 130.52C183.398 130.333 182.677 129.297 182.41 128.305C182.24 127.278 182.393 126.237 182.677 125.256L182.641 125.16C184.149 124.807 186.092 125.599 186.767 127.09Z" fill="black"/>
<path d="M202.483 127.716C202.809 128.576 202.389 130.083 201.9 130.814C201.411 131.546 199.264 132.52 198.413 132.297C197.466 132.11 195.97 130.639 195.704 129.648C195.533 128.621 195.479 128.002 196.287 126.55L197.514 125.712L199.604 125.612C201.112 125.258 201.808 126.225 202.483 127.716Z" fill="black"/>
<path d="M273.969 374.368C271.78 375.526 269.592 376.683 267.499 377.804L267.427 377.614C266.824 376.313 266.257 375.108 265.655 373.808C268.86 372.155 271.97 370.539 275.007 368.732L275.283 369.174C276.005 370.21 276.727 371.247 277.484 372.38C276.313 373.042 275.141 373.705 273.969 374.368Z" fill="black"/>
<path d="M210.896 199.958C211.993 202.272 213.03 204.719 214.126 207.033C209.617 209.289 204.904 211.295 200.046 212.919C198.903 211.059 197.7 209.331 196.497 207.602L195.954 206.17C201.027 204.247 206.027 202.132 210.896 199.958Z" fill="black"/>
<path d="M273.97 374.368C278.373 380.78 283.062 387.083 288.062 393.051C283.47 395.666 278.842 398.185 274.118 400.741C270.399 394.397 265.873 386.503 262.262 380.446C264.008 379.565 265.658 378.721 267.405 377.84C269.593 376.683 271.782 375.525 273.97 374.368Z" fill="#D9D9D9"/>
<path d="M247.252 317.771C251.173 327.533 255.13 337.391 259.147 347.116C260.908 351.472 262.516 356.869 259.653 360.576C259.497 360.744 259.342 360.912 259.091 361.116C257.069 357.515 255.01 353.818 252.987 350.216C250.349 340.951 245.282 332.497 241.592 323.631C239.192 317.879 237.234 311.85 235.504 305.845C237.441 304.891 239.415 304.034 241.448 303.044C242.209 305.049 243.101 307.114 243.862 309.119C244.984 312.079 246.07 314.943 247.252 317.771Z" fill="black"/>
<path d="M232.293 280.633C235.345 288.104 238.301 295.61 241.353 303.081C239.415 304.034 237.478 304.987 235.408 305.881C233.691 300.198 232.165 294.442 230.448 288.759C225.842 274.015 219.632 259.661 212.036 246.269C206.113 235.846 199.292 225.655 195.247 214.411C196.815 213.926 198.478 213.404 200.046 212.919C212.428 232.578 224.102 260.477 232.293 280.633Z" fill="black"/>
<path d="M176.654 138.242C177.852 138.225 178.92 139.021 179.259 140.203C179.706 141.672 178.692 143.039 177.665 144.084C177.008 144.661 176.351 145.238 175.476 145.241C174.338 145.127 173.712 144.054 173.314 143.004C173.06 142.335 172.998 141.594 172.936 140.853C173.7 139.69 175.552 138.223 176.654 138.242Z" fill="black"/>
<path d="M262.261 380.446C261.244 380.941 260.132 381.472 259.019 382.003C256.89 383.029 254.857 384.018 252.692 384.949C252.221 383.707 251.655 382.502 251.184 381.261C254.089 379.395 257.235 377.874 260.381 376.354C262.127 375.473 263.813 374.725 265.523 373.748C266.126 375.049 266.692 376.254 267.295 377.554L267.367 377.745C265.753 378.685 264.007 379.566 262.261 380.446Z" fill="black"/>
<path d="M259.128 361.212C261.368 365.386 263.607 369.561 265.656 373.808C264.005 374.652 262.259 375.533 260.513 376.413C257.367 377.934 254.186 379.359 251.317 381.32C249.374 376.487 247.336 371.69 245.394 366.857C243.995 363.456 242.596 360.055 241.16 356.558C243.395 358.987 245.821 361.344 248.915 362.573C252.177 363.957 256.572 363.71 259.128 361.212Z" fill="#D9D9D9"/>
<path d="M274.117 400.741C273.484 401.091 272.754 401.477 272.12 401.826C267.586 395.355 263.243 388.811 259.152 382.062C260.168 381.568 261.281 381.037 262.393 380.506C265.872 386.503 270.398 394.398 274.117 400.741Z" fill="black"/>
<path d="M233.088 306.979C237.168 322.36 244.982 336.325 252.891 350.253C252.928 350.348 252.964 350.444 253 350.539C253.569 352.617 253.959 355.09 252.503 356.735C251.106 358.247 248.711 358.282 246.721 357.944C244.732 357.606 242.862 357.005 241.051 356.272C226.806 321.593 212.177 287.06 193.519 254.601C187.078 243.392 180.16 232.364 176.267 220.079C175.942 219.22 175.748 218.42 175.517 217.524C180.44 217.514 185.492 216.69 190.34 215.616C191.944 215.227 193.548 214.837 195.211 214.315C199.256 225.559 206.077 235.75 212 246.173C219.632 259.66 225.806 273.919 230.412 288.664C232.225 294.31 233.75 300.066 235.372 305.786C234.679 306.267 233.949 306.653 233.088 306.979Z" fill="#D9D9D9"/>
<path d="M252.987 350.217C255.009 353.818 257.068 357.515 259.091 361.116C256.571 363.71 252.272 363.921 248.878 362.477C245.88 361.212 243.358 358.892 241.123 356.463C241.087 356.367 241.087 356.367 241.051 356.272C242.862 357.005 244.827 357.57 246.721 357.944C248.71 358.282 251.142 358.343 252.503 356.734C253.959 355.09 253.569 352.617 253 350.539C253 350.539 252.964 350.444 252.987 350.217Z" fill="black"/>
<path d="M241.496 323.667C245.223 332.629 250.253 340.987 252.891 350.253C244.982 336.324 237.168 322.36 233.087 306.979C233.817 306.593 234.583 306.303 235.408 305.881C237.174 311.982 239.096 317.916 241.496 323.667Z" fill="#6C6B6C"/>
<path d="M196.629 207.662C197.796 209.294 198.939 211.154 200.178 212.978C198.61 213.463 196.947 213.985 195.379 214.47C194.691 212.656 194.099 210.805 193.662 208.787L193.119 207.355C194.172 206.955 195.129 206.592 196.182 206.193L196.629 207.662Z" fill="black"/>
<path d="M259.115 381.967C263.207 388.715 267.586 395.355 272.084 401.731C268.723 403.551 265.459 405.335 262.098 407.155L261.255 405.509C258.42 398.612 255.622 391.81 252.787 384.912C254.953 383.982 256.986 382.992 259.115 381.967Z" fill="#D9D9D9"/>
<path d="M192.988 207.295L193.531 208.728C194.027 210.614 194.62 212.465 195.248 214.411C193.68 214.896 191.981 215.322 190.377 215.712C185.625 216.749 180.573 217.573 175.65 217.583C175.275 216.306 174.96 214.896 174.74 213.451C180.951 211.641 186.958 209.582 192.988 207.295Z" fill="black"/>
</svg>
