<svg width="741" height="415" viewBox="0 0 741 415" fill="none" xmlns="http://www.w3.org/2000/svg">
<path d="M679.323 25.2193L680.315 25.0101C681.964 33.4524 683.369 41.8854 685.019 50.3277C665.872 56.0169 646.3 59.9647 626.546 62.1804C625.578 55.2426 624.609 48.3048 623.886 41.3762C642.532 35.9147 660.923 30.6901 679.323 25.2193Z" fill="#D9D9D9"/>
<path d="M602.275 47.2196C609.478 45.2719 616.691 43.0781 624.14 41.1396C625.109 48.0774 625.832 55.006 626.801 61.9438C625.319 62.1346 624.082 62.3346 622.609 62.2793C617.67 62.8332 612.486 63.3779 608.929 66.4485L605.709 67.067C604.476 60.6122 603.253 53.9113 602.275 47.2196Z" fill="black"/>
<path d="M685.018 50.3276C685.635 53.555 686.251 56.7824 686.622 60.0005C667.059 63.7022 647.495 67.4039 627.932 71.1056C627.552 68.1336 627.172 65.1615 626.546 62.1803C646.545 59.9738 666.118 56.026 685.018 50.3276Z" fill="black"/>
<path d="M627.932 71.106C628.34 73.3396 628.511 75.3179 628.919 77.5515C622.207 79.5177 615.503 81.2377 608.8 82.9577C607.767 77.7428 606.733 72.5279 605.7 67.313L608.919 66.6945C612.486 63.3778 617.67 62.8332 622.599 62.5254C624.082 62.3346 625.319 62.1345 626.792 62.1899C627.172 65.1619 627.552 68.1339 627.932 71.106Z" fill="black"/>
<path d="M554.342 59.9617C570.232 55.8755 586.13 51.5431 602.029 47.2108C603.253 53.9117 604.231 60.6034 605.7 67.3136C606.733 72.5284 607.767 77.7433 608.8 82.9582C598.368 85.7705 587.699 88.3275 577.03 90.8845C578.892 80.6023 569.922 70.6526 561.06 64.4042C558.905 62.8444 556.742 61.5307 554.342 59.9617Z" fill="#D9D9D9"/>
<path d="M628.919 77.5513C628.512 75.3177 628.34 73.3394 627.932 71.1057C647.495 67.404 667.059 63.7024 686.622 60.0007C688.026 68.4337 689.44 76.6206 690.844 85.0537C671.253 89.4938 651.236 92.1925 631.473 94.6543C630.704 88.9564 629.689 83.2492 628.919 77.5513Z" fill="#D9D9D9"/>
<path d="M554.342 59.961C556.506 61.2747 558.905 62.8437 561.06 64.4035C569.923 70.652 578.892 80.6016 577.031 90.8838C561.15 94.7239 545.279 98.3178 529.417 101.666C530.427 100.964 531.446 100.016 532.21 99.3057C536.023 95.9982 540.373 91.4785 538.829 86.7375C537.722 83.4916 534.104 81.6304 530.958 80.2798C523.448 77.2864 515.939 74.293 508.401 72.038C523.554 67.9242 538.944 64.0657 554.342 59.961Z" fill="black"/>
<path d="M276.648 121.501C354.383 107.415 431.473 90.8388 508.165 71.7832C515.693 74.2844 523.458 77.0408 530.722 80.025C533.868 81.3756 537.486 83.2368 538.593 86.4827C540.136 91.2237 536.032 95.7527 531.974 99.0509C530.964 99.7524 530.191 100.709 529.181 101.411C502.414 107.06 475.684 111.725 448.727 115.888C450.831 125.334 452.926 135.025 455.03 144.47C374.219 161.892 292.565 175.585 210.559 185.568C204.156 172.757 196.497 160.638 188.074 149.23C215.419 134.729 247.69 126.576 276.648 121.501Z" fill="#D9D9D9"/>
<path d="M608.801 82.9572C615.504 81.2372 622.217 79.2711 628.92 77.5511C629.69 83.249 630.695 89.2023 631.71 94.9094C631.465 94.9002 631.219 94.891 631.219 94.891C625.535 95.6634 619.851 96.4357 614.167 97.2081L611.938 97.6174C610.65 92.6394 609.844 87.926 608.801 82.9572Z" fill="black"/>
<path d="M691.09 85.0629C691.489 87.5427 691.897 89.7764 692.295 92.2561C672.723 96.204 652.895 100.389 633.323 104.336C632.706 101.109 632.335 97.891 631.71 94.9097C651.482 92.2018 671.499 89.503 691.09 85.0629Z" fill="black"/>
<path d="M648.683 264.878C649.499 269.346 650.315 273.813 650.885 278.271C652.261 287.442 653.638 296.614 654.769 305.776C655.682 314.191 656.586 322.851 657.254 331.257C645.923 331.817 634.582 332.623 623.223 333.922C622.996 333.42 622.769 332.919 622.551 332.171C617.028 322.105 603.552 320.859 592.248 320.681C566.94 320.223 541.386 319.756 516.069 319.544C541.734 317.058 567 312.092 591.631 304.39C599.098 301.959 606.575 299.282 612.19 293.824C617.804 288.366 620.601 279.352 617.168 272.568C612.336 263.759 600.332 262.569 590.238 262.929C565.884 263.247 541.767 263.82 517.404 264.383C543.652 259.454 568.903 248.325 590.411 232.126C595.725 228.135 601.33 222.923 602.08 216.05C602.839 208.931 597.432 202.319 590.914 199.117C584.396 195.914 577.03 195.637 569.909 195.37C558.86 194.955 547.811 194.54 537.008 194.134C551.943 189.272 566.443 182.916 580.016 175.045C591.324 168.569 603.488 158.92 603.733 145.866C603.713 133.295 592.043 123.243 579.841 120.813C567.638 118.383 554.986 121.358 542.826 124.352C528.183 127.992 513.539 131.632 498.905 135.026C518.408 126.393 537.655 117.996 557.158 109.362C565.163 105.72 573.932 101.366 576.702 93.0896C576.975 92.3605 577.003 91.6221 577.267 91.139C587.936 88.5821 598.359 86.0159 609.037 83.2128C610.08 88.1816 611.132 92.9042 612.175 97.873C615.094 111.785 618.269 125.461 621.443 139.137C625.452 156.787 629.706 174.447 633.96 192.107C637.116 206.275 640.272 220.443 643.182 234.601C644.776 244.52 646.853 254.704 648.683 264.878Z" fill="#6C6B6C"/>
<path d="M633.077 104.328C652.649 100.38 672.477 96.1951 692.049 92.2472C694.042 104.646 696.026 117.291 698.01 129.936C679.975 132.216 656.784 134.303 638.268 136.318C636.701 125.661 634.889 114.994 633.077 104.328Z" fill="#D9D9D9"/>
<path d="M577.031 90.8838C577.003 91.6222 576.739 92.1053 576.466 92.8345C573.942 101.12 564.918 105.71 556.922 109.107C537.42 117.741 518.172 126.138 498.669 134.771C491.72 136.482 484.78 137.947 478.086 139.42C495.745 127.513 512.941 114.849 529.427 101.419C545.28 98.3178 561.151 94.7239 577.031 90.8838Z" fill="black"/>
<path d="M633.077 104.328C634.89 114.994 636.702 125.661 638.514 136.328C632.339 137.082 626.9 137.863 622.198 138.673L620.961 138.873C617.787 125.197 614.621 111.275 611.693 97.6089L613.921 97.1997C619.605 96.4273 625.289 95.655 630.973 94.8826C631.219 94.8918 631.465 94.901 631.465 94.901C632.09 97.8823 632.707 101.11 633.077 104.328Z" fill="black"/>
<path d="M448.718 116.134C475.675 111.97 502.414 107.059 529.172 101.656C512.685 115.086 495.49 127.75 477.831 139.657C470.146 141.34 462.46 143.023 454.775 144.706C453.171 135.034 451.067 125.588 448.718 116.134Z" fill="#6C6B6C"/>
<path d="M498.659 135.017C513.293 131.623 527.936 127.983 542.58 124.343C554.74 121.349 567.401 118.128 579.594 120.804C591.797 123.234 603.467 133.286 603.487 145.857C603.488 158.92 591.323 168.569 579.77 175.036C566.197 182.907 551.697 189.263 536.762 194.125C527.432 193.774 517.856 193.415 508.271 193.301C528.381 188.141 547.411 178.997 564.343 166.816C569.146 163.299 574.27 157.823 572.018 152.315C571.119 150.063 569.456 148.522 567.283 147.454C557.674 141.424 545.305 143.425 534.164 145.471C508.662 150.182 483.169 154.647 457.449 158.61C456.642 153.897 455.581 149.42 454.774 144.707C462.46 143.024 470.145 141.34 477.831 139.657C485.016 138.202 491.965 136.491 498.659 135.017Z" fill="black"/>
<path d="M698.255 129.945C698.654 132.425 699.043 135.15 699.432 137.876C679.878 141.332 660.324 144.787 640.525 148.234C639.936 144.268 639.093 140.539 638.504 136.573C657.039 134.065 680.23 131.979 698.255 129.945Z" fill="black"/>
<path d="M640.78 147.997C660.334 144.541 679.888 141.086 699.688 137.639C701.644 151.023 703.609 164.16 705.565 177.543C686.493 181.263 667.166 185.22 648.093 188.94C645.656 175.293 642.972 161.635 640.78 147.997Z" fill="#D9D9D9"/>
<path d="M640.78 147.997C643.218 161.645 645.656 175.292 648.085 189.187C643.373 190.242 638.426 191.042 633.714 192.097C629.706 174.447 625.452 156.787 621.198 139.127L622.434 138.927C627.136 138.118 632.821 137.346 638.75 136.582C639.348 140.302 639.946 144.022 640.78 147.997Z" fill="black"/>
<path d="M534.655 145.489C545.796 143.443 558.165 141.443 567.774 147.473C569.692 148.777 571.601 150.328 572.509 152.334C574.761 157.841 569.392 163.308 564.834 166.834C547.902 179.015 528.872 188.16 508.762 193.32C494.021 193.012 479.035 192.696 464.275 192.881C462.5 181.23 460.47 169.815 458.194 158.392C483.414 154.656 509.153 150.2 534.655 145.489Z" fill="#6C6B6C"/>
<path d="M455.02 144.716C456.072 149.438 456.888 153.906 457.694 158.619C420.842 164.382 384.009 169.654 346.939 174.67C306.904 180.067 266.633 185.209 226.371 190.105C221.924 190.677 217.722 191.259 213.284 191.585C212.376 189.579 211.467 187.573 210.314 185.558C292.802 175.84 374.21 162.138 455.02 144.716Z" fill="black"/>
<path d="M347.185 174.679C384.009 169.653 421.088 164.391 457.94 158.628C460.216 170.051 462.237 181.712 464.021 193.117C406.465 193.666 349.215 199.156 294.686 217.319C273.52 224.411 252.535 233.236 230.743 237.347C226.415 221.656 220.841 206.411 213.766 191.85C218.204 191.523 222.406 190.942 226.853 190.369C266.879 185.218 307.15 180.076 347.185 174.679Z" fill="#D9D9D9"/>
<path d="M183.543 152.018C185.054 151.088 186.809 150.168 188.31 149.485C196.733 160.893 204.383 173.258 210.795 185.823C206.594 186.405 202.401 186.74 198.199 187.322C192.987 175.541 187.774 163.761 183.543 152.018Z" fill="black"/>
<path d="M28.6659 282.256C30.8294 283.569 32.9837 285.129 35.4205 285.714C37.8573 286.298 40.5859 285.661 42.1423 283.501C43.4347 281.824 43.2816 279.354 42.1187 277.585C40.9558 275.816 38.7737 274.994 36.8095 274.921C32.3807 275.001 28.8046 278.564 28.6659 282.256ZM53.6154 318.439C55.3156 318.996 57.0159 319.553 58.7346 319.618C61.4262 319.965 64.6458 319.347 65.7204 316.922C66.5217 315.227 66.1139 312.993 65.2057 310.987C63.8527 307.732 61.5269 304.194 58.0987 303.819C55.4071 303.471 52.3868 305.33 51.3122 307.754C50.4831 310.188 51.9984 315.667 53.6154 318.439ZM68.8589 285.737C71.5043 287.316 74.6869 287.682 77.4247 286.799C78.4254 286.343 79.6715 285.897 80.4451 284.94C81.983 283.273 81.8392 280.556 80.6762 278.787C79.5226 276.772 77.3498 275.704 75.404 275.138C72.4761 274.535 69.011 275.144 66.9635 277.286C64.6798 279.172 66.9871 283.202 68.8589 285.737ZM110.655 357.8C112.922 369.47 116.425 380.94 121.174 391.963C78.081 387.14 33.6801 364.768 17.4813 324.723C12.542 312.213 10.3497 298.575 8.39368 285.191C4.49092 258.178 1.672 228.495 16.3186 205.137C24.6749 192.141 37.5668 182.766 49.9584 173.619C61.3216 165.665 72.4486 157.457 83.8119 149.503C91.1695 163.089 95.7801 177.805 97.4167 193.148C97.6622 193.157 97.6622 193.157 97.9077 193.167C98.0925 247.152 100.005 300.957 109.812 354.072C110.021 355.065 110.211 356.551 110.655 357.8ZM54.045 241.554C51.6267 240.477 48.1615 241.086 46.5958 243.492C45.0302 245.898 45.4103 248.87 46.2907 251.615L45.5449 251.833C45.9065 255.298 50.2428 257.679 53.4809 256.568C56.7191 255.457 58.8313 251.593 58.4696 248.129C58.3351 245.166 56.7088 242.64 54.045 241.554Z" fill="#ECD648"/>
<path d="M647.848 188.932C666.921 185.212 686.248 181.255 705.32 177.534C705.492 179.513 705.909 181.5 706.08 183.478C686.999 187.445 668.135 192.159 649.48 197.866C648.854 194.885 648.474 191.913 647.848 188.932Z" fill="black"/>
<path d="M197.963 187.066C198.881 188.826 199.543 190.822 200.461 192.582C193.067 193.044 185.683 193.26 178.081 192.727L175.843 193.383C173.285 182.935 170.727 172.486 168.178 161.792C172.991 158.029 178.031 154.768 183.308 151.762C187.774 163.761 192.987 175.541 197.963 187.066Z" fill="#D9D9D9"/>
<path d="M706.08 183.479C707.846 195.376 709.366 207.264 710.896 218.906C692.305 222.891 673.706 227.122 655.106 231.353C653.312 220.194 651.282 208.779 649.488 197.62C668.134 192.159 686.998 187.445 706.08 183.479Z" fill="#D9D9D9"/>
<path d="M161.308 167.943C163.601 165.81 165.885 163.924 168.414 162.048C170.972 172.496 173.521 183.19 176.079 193.638C191.209 255.58 207.813 317.577 210.111 380.762C207.438 379.922 204.519 379.073 201.855 377.987C197.797 322.377 185.09 267.921 172.129 213.701C168.519 198.53 164.918 183.113 161.308 167.943Z" fill="#0D0E0F"/>
<path d="M151.551 342.577C150.997 311.5 151.935 279.986 147.671 249.508C144.955 230.181 142.739 210.626 141.505 191.108C146.749 182.432 153.437 174.549 161.062 167.934C164.663 183.351 168.273 198.522 171.874 213.939C184.59 268.149 197.533 322.861 201.6 378.225C182.425 371.589 164.399 360.559 151.658 346.278C151.704 345.047 151.75 343.817 151.551 342.577Z" fill="#D9D9D9"/>
<path d="M649.479 197.867C651.518 209.035 653.302 220.44 655.096 231.599C650.885 232.427 646.91 233.51 642.69 234.584C639.78 220.425 636.624 206.257 633.468 192.089C638.179 191.034 643.127 190.234 647.838 189.178C648.473 191.913 648.853 194.885 649.479 197.867Z" fill="black"/>
<path d="M508.262 193.547C517.847 193.66 527.177 194.011 536.753 194.37C547.802 194.786 558.851 195.201 569.654 195.606C576.774 195.874 584.14 196.151 590.659 199.353C597.177 202.556 602.338 209.158 601.825 216.287C601.075 223.16 595.479 228.126 590.156 232.363C568.648 248.562 543.396 259.69 517.148 264.62C507.8 264.762 498.687 265.159 489.329 265.547C517.152 257.965 543.215 244.895 566.006 227.265C543.778 216.817 518.187 217.335 493.806 218.391C485.184 218.806 476.808 219.231 468.187 219.647C467.047 210.731 465.661 201.805 464.275 192.88C478.78 192.932 493.53 192.993 508.262 193.547Z" fill="black"/>
<path d="M197.963 187.066C202.165 186.485 206.357 186.149 210.559 185.568C211.467 187.574 212.621 189.589 213.529 191.595C209.082 192.167 204.889 192.503 200.451 192.829C199.789 190.832 198.871 189.072 197.963 187.066Z" fill="black"/>
<path d="M200.451 192.829C204.889 192.503 209.327 192.176 213.529 191.595C220.604 206.156 226.169 221.647 230.506 237.092C225.804 237.901 221.357 238.473 216.664 239.037L216.173 239.018C212.836 223.118 206.771 207.855 200.451 192.829Z" fill="#0D0E0F"/>
<path d="M149.068 343.223C148.577 343.204 148.322 343.441 147.831 343.423C147.026 292.864 143.029 242.186 135.566 192.117C137.54 191.945 139.523 191.526 141.505 191.108C142.739 210.626 144.71 230.172 147.671 249.508C152.181 279.995 150.998 311.5 151.551 342.577C150.806 342.795 149.814 343.004 149.068 343.223Z" fill="#0D0E0F"/>
<path d="M220.416 289.706C220.672 302.532 220.673 315.596 220.192 328.394C220.09 331.102 219.998 333.563 219.896 336.271C219.314 351.777 218.24 367.265 216.439 382.479C214.248 381.904 212.057 381.328 209.865 380.753C207.813 317.577 191.209 255.58 175.833 193.629L178.071 192.974C185.428 193.497 192.812 193.281 200.451 192.829C206.771 207.855 212.837 223.118 216.164 239.264L216.155 239.51C216.78 242.492 217.16 245.464 217.786 248.445C219.371 258.61 219.965 268.984 220.313 279.35C220.295 279.842 220.276 280.334 220.258 280.826C220.392 283.789 220.527 286.752 220.416 289.706Z" fill="#D9D9D9"/>
<path d="M120.524 193.277C125.689 193.224 130.864 192.926 135.566 192.116C142.782 242.176 146.78 292.855 147.831 343.422C146.093 343.85 144.356 344.278 142.619 344.705C138.948 324.603 135.523 304.509 132.089 284.662C128.645 265.061 125.202 245.459 122.995 225.658C121.683 214.764 120.863 203.888 120.524 193.277Z" fill="#ECD648"/>
<path d="M112.167 193.21C114.867 193.311 117.823 193.176 120.769 193.286C121.099 204.144 121.929 214.774 123.005 225.413C125.211 245.214 128.655 264.815 132.099 284.416C135.524 304.51 139.194 324.612 142.628 344.46C141.137 344.897 139.409 345.078 137.917 345.515C133.51 325.385 129.103 305.254 124.696 285.124C121.113 269.215 117.786 253.069 115.441 236.959C113.276 222.582 112.103 207.996 112.167 193.21Z" fill="#0D0E0F"/>
<path d="M104.301 193.161C106.756 193.253 109.457 193.354 111.922 193.2C111.858 207.987 113.031 222.573 115.186 237.196C117.532 253.306 120.859 269.452 124.441 285.361C128.849 305.491 133.256 325.622 137.663 345.752C130.214 347.691 122.519 349.62 115.297 352.06C109.324 334.335 107.59 315.045 106.574 296.274C104.422 261.933 103.743 227.647 104.301 193.161Z" fill="#ECD648"/>
<path d="M98.1532 193.176C100.117 193.25 102.327 193.333 104.546 193.17C103.743 227.647 104.667 261.942 106.574 296.274C107.836 315.054 109.324 334.335 115.297 352.06C113.55 352.733 111.568 353.152 109.821 353.826C100.005 300.957 98.338 247.162 98.1532 193.176Z" fill="#0D0E0F"/>
<path d="M711.132 219.161C711.721 223.127 712.3 227.339 712.644 231.296C694.081 234.542 675.273 237.779 656.701 241.272C656.084 238.044 655.713 234.826 655.097 231.599C673.706 227.122 692.296 223.137 711.132 219.161Z" fill="black"/>
<path d="M464.021 193.117C465.407 202.043 466.792 210.968 467.933 219.884C389.086 224.316 310.572 232.951 232.638 245.798C232.004 243.063 231.378 240.082 230.497 237.338C252.289 233.227 273.274 224.402 294.44 217.31C348.97 199.147 406.219 193.657 464.021 193.117Z" fill="#0D0E0F"/>
<path d="M493.56 218.383C518.187 217.336 543.533 216.809 565.761 227.257C543.215 244.896 516.907 257.957 489.094 265.292C483.928 265.345 478.508 265.634 473.343 265.686C471.706 250.343 470.07 235 467.942 219.638C476.563 219.223 484.939 218.798 493.56 218.383Z" fill="#6C6B6C"/>
<path d="M656.71 241.025C675.273 237.778 694.081 234.541 712.653 231.049C713.821 239.227 714.743 247.395 715.666 255.563C697.53 260.551 678.976 263.551 660.251 264.573C659.065 256.888 657.887 248.956 656.71 241.025Z" fill="#D9D9D9"/>
<path d="M467.942 219.638C470.07 235 471.952 250.352 473.343 265.686C394.806 268.405 316.468 272.363 238.075 277.799C236.763 266.904 234.951 256.238 232.402 245.543C310.582 232.706 389.095 224.071 467.942 219.638Z" fill="#D9D9D9"/>
<path d="M656.709 241.025C657.886 248.957 659.073 256.642 660.25 264.574C656.312 264.673 652.62 264.78 648.683 264.879C646.852 254.704 645.021 244.53 642.936 234.593C647.156 233.519 651.121 232.682 655.342 231.608C655.713 234.826 656.083 238.044 656.709 241.025Z" fill="black"/>
<path d="M216.664 239.036C221.348 238.719 226.041 238.156 230.506 237.091C231.141 239.826 232.012 242.817 232.647 245.552C227.7 246.352 222.752 247.152 217.805 247.952C217.424 244.98 216.799 241.999 216.173 239.018L216.182 238.772L216.664 239.036Z" fill="#0D0E0F"/>
<path d="M715.665 255.564C716.045 258.536 716.425 261.508 716.805 264.48C704.89 267.483 692.758 269.739 680.37 272.231C674.422 273.487 667.756 274.222 661.562 275.468C661.21 271.758 660.602 268.284 660.004 264.565C678.966 263.798 697.519 260.798 715.665 255.564Z" fill="black"/>
<path d="M217.795 248.199C222.743 247.399 227.69 246.599 232.638 245.799C235.186 256.493 236.999 267.16 238.311 278.054C232.39 278.571 226.233 278.833 220.313 279.35C219.728 268.729 219.135 258.355 217.795 248.199Z" fill="#0D0E0F"/>
<path d="M680.371 272.231C692.513 269.73 704.645 267.474 716.806 264.48C717.937 273.643 719.068 282.805 719.953 291.958C701.845 296.207 683.509 299.955 665.173 303.703C664.052 294.294 662.93 284.886 661.808 275.478C667.756 274.222 674.423 273.487 680.371 272.231Z" fill="#D9D9D9"/>
<path d="M648.683 264.878C652.612 265.026 656.304 264.918 660.251 264.573C660.849 268.293 661.211 271.757 661.808 275.477C659.325 276.123 656.842 276.769 654.35 277.662C653.859 277.643 653.604 277.88 653.604 277.88L651.13 278.28C650.069 273.804 649.254 269.336 648.683 264.878Z" fill="black"/>
<path d="M517.149 264.621C541.512 264.057 565.629 263.484 589.983 263.167C600.068 263.053 612.081 263.997 616.913 272.805C620.592 279.598 617.549 288.604 611.935 294.062C606.32 299.52 598.598 302.187 591.376 304.627C566.745 312.329 541.479 317.295 515.814 319.782C508.439 319.751 500.827 319.465 493.452 319.435C520.201 314.278 545.916 303.906 568.605 288.983C540.401 280.529 510.372 281.373 480.835 282.235C478.861 282.408 477.143 282.343 475.169 282.515C474.636 277.073 474.103 271.63 473.57 266.188C478.735 266.135 484.155 265.846 489.32 265.794C498.442 265.15 507.8 264.762 517.149 264.621Z" fill="black"/>
<path d="M238.075 277.799C316.468 272.363 394.805 268.405 473.342 265.686C473.875 271.129 474.409 276.571 474.942 282.014C396.423 284.24 317.65 286.703 239.123 289.176C239.016 285.475 238.663 281.764 238.075 277.799Z" fill="#0D0E0F"/>
<path d="M654.104 277.653C656.596 276.761 659.079 276.115 661.562 275.469C662.93 284.886 664.051 294.294 664.928 303.694C661.954 304.321 658.979 304.949 655.76 305.567L654.523 305.767C653.392 296.605 652.261 287.443 650.639 278.262L653.112 277.862C653.358 277.872 653.603 277.881 654.104 277.653Z" fill="black"/>
<path d="M653.358 277.871C653.358 277.871 653.613 277.634 654.104 277.653C653.603 277.88 653.358 277.871 653.358 277.871Z" fill="#6C6B6C"/>
<path d="M480.598 281.98C510.136 281.118 540.164 280.274 568.369 288.728C545.679 303.651 519.955 314.269 493.216 319.18C488.06 318.986 482.649 319.029 477.492 318.836C476.973 306.492 475.953 294.376 474.942 282.014C476.906 282.088 478.879 281.916 480.598 281.98Z" fill="#6C6B6C"/>
<path d="M239.122 289.176C317.64 286.949 396.414 284.486 474.941 282.013C475.952 294.375 476.727 306.482 477.492 318.835C458.077 318.598 438.67 318.116 419.255 317.879C366.92 316.899 293.905 316.621 238.981 325.649C239.925 313.607 239.896 301.282 239.122 289.176Z" fill="#D9D9D9"/>
<path d="M719.945 292.204C720.343 294.684 720.497 297.154 720.886 299.88C702.977 305.369 684.613 309.855 666.277 313.603C665.907 310.385 665.536 307.167 665.165 303.949C683.255 300.192 701.6 296.198 719.945 292.204Z" fill="black"/>
<path d="M220.077 279.094C225.998 278.577 232.155 278.315 238.075 277.798C238.427 281.509 238.78 285.219 239.123 289.176C232.966 289.437 226.573 289.444 220.416 289.705C220.282 286.743 220.393 283.789 220.258 280.826C220.277 280.334 220.304 279.596 220.077 279.094Z" fill="black"/>
<path d="M66.4066 275.827C69.1935 272.703 73.0846 271.774 76.6121 272.623C79.2511 273.44 81.8631 274.973 82.9402 277.883C84.3136 280.804 84.1791 284.386 82.6039 286.837C81.6614 288.237 80.4497 288.908 78.9418 289.569C75.6297 290.879 71.7925 290.377 68.6149 288.105C66.6626 284.804 63.9159 278.961 66.4066 275.827Z" fill="black"/>
<path d="M38.4634 271.477C41.2394 271.581 43.6682 272.707 45.1198 275.176C46.5715 277.645 46.7505 281.101 45.1177 283.454C43.472 286.151 39.7318 287.046 36.6603 286.585C33.6018 285.78 30.8905 283.954 28.5005 281.795L28.1921 281.783C29.0031 276.64 33.5154 271.636 38.4634 271.477Z" fill="black"/>
<path d="M666.04 313.348C666.555 319.283 667.07 325.218 667.594 330.907L667.103 330.888C663.656 331.005 660.455 331.131 657.008 331.248C656.35 322.597 655.682 314.191 654.523 305.768L655.76 305.568C658.734 304.94 661.708 304.312 664.928 303.694C665.299 306.912 665.67 310.13 666.04 313.348Z" fill="black"/>
<path d="M220.416 289.705C226.573 289.444 232.966 289.437 239.123 289.176C239.897 301.282 239.926 313.607 238.972 325.896C233.779 326.686 228.823 327.733 223.866 328.779L220.183 328.64C220.673 315.595 220.672 302.532 220.416 289.705Z" fill="black"/>
<path d="M666.041 313.347C684.377 309.599 702.74 305.113 720.649 299.624C722.142 312.25 723.389 324.868 724.627 337.731C707.084 340.03 685.347 342.664 668.54 344.99C668.225 340.295 667.9 335.847 667.585 331.152C667.07 325.217 666.556 319.282 666.041 313.347Z" fill="#D9D9D9"/>
<path d="M515.578 319.526C540.886 319.983 566.44 320.45 591.757 320.662C603.061 320.84 616.528 322.332 622.06 332.153C622.287 332.654 622.514 333.156 622.732 333.903C612.855 335.011 602.733 336.11 592.856 337.218C569.85 334.381 546.368 337.689 523.26 337.561C508.264 337.49 493.069 336.18 478.138 334.387C477.841 329.2 477.79 324.022 477.502 318.588C482.658 318.782 488.069 318.739 493.225 318.932C500.837 319.218 508.203 319.495 515.578 319.526Z" fill="black"/>
<path d="M419.256 317.88C438.671 318.116 458.078 318.599 477.493 318.835C477.79 324.022 478.087 329.21 478.129 334.634C463.925 333.114 449.74 331.102 435.536 329.583C398.544 325.975 360.913 326.287 324.116 330.573C295.468 333.934 266.492 339.5 237.783 337.929C238.177 334 238.579 329.825 238.973 325.896C294.142 316.877 366.912 317.146 419.256 317.88Z" fill="black"/>
<path d="M51.5573 307.763C52.6411 305.093 55.4067 303.471 58.3438 303.828C62.0175 304.213 64.0978 307.741 65.4508 310.997C66.1134 312.993 66.7761 314.99 65.9655 316.931C64.6454 319.347 61.6805 319.728 58.9797 319.627C57.261 319.562 55.5607 319.005 53.8605 318.448C51.998 315.667 50.4827 310.188 51.5573 307.763Z" fill="black"/>
<path d="M43.7366 244.689C45.105 241.083 48.5779 238.886 52.2589 239.357C56.8632 239.862 59.4587 244.614 61.1433 248.999C61.9669 251.69 62.7905 254.381 61.7674 257.002C60.1037 260.264 56.3853 260.789 52.9997 260.662C50.8452 260.581 48.7156 259.836 46.586 259.091C44.2609 255.347 42.3808 247.962 43.7366 244.689Z" fill="black"/>
<path d="M668.54 344.991C668.684 347.708 668.819 350.67 668.953 353.633C669.232 359.313 669.519 364.746 669.552 370.416C666.36 370.296 663.159 370.423 659.967 370.303C658.554 362.116 658.132 353.72 657.709 345.323C657.394 340.629 657.315 336.189 656.754 331.485C660.201 331.368 663.402 331.242 666.848 331.125L667.339 331.143C667.91 335.601 668.225 340.296 668.54 344.991Z" fill="black"/>
<path d="M622.977 333.913C634.327 332.86 645.677 331.808 657.008 331.247C657.333 335.696 657.648 340.391 657.964 345.086C658.386 353.482 658.563 361.869 660.222 370.065C647.691 369.841 635.15 369.863 622.619 369.639C613.77 369.553 604.922 369.467 595.828 369.372C603.305 366.695 610.8 363.526 616.424 357.821C622.548 351.889 626.119 341.918 622.977 333.913Z" fill="#D9D9D9"/>
<path d="M724.627 337.732C724.808 339.464 724.98 341.442 725.16 343.174C706.57 347.159 687.998 350.651 669.208 353.396C669.064 350.68 668.93 347.717 668.795 344.754C685.348 342.665 707.084 340.03 724.627 337.732Z" fill="black"/>
<path d="M478.388 340.805C516.297 346.173 554.567 341.941 592.846 337.464C593.092 337.473 593.337 337.482 593.583 337.491C598.721 338.177 604.567 339.629 606.847 344.398C608.89 348.912 606.722 354.253 604.11 358.345C601.497 362.437 598.412 366.018 595.091 369.344C504.889 368.42 414.65 368.481 325.231 379.417C294.355 383.187 263.433 388.187 232.56 385.302C230.351 385.219 228.396 384.899 226.195 384.57C230.785 373.651 233.694 361.683 235.856 349.933C236.495 346.013 237.134 342.094 237.537 337.919C266.245 339.49 295.222 333.924 323.87 330.563C360.912 326.286 398.298 325.965 435.29 329.573C449.503 330.846 463.688 332.858 477.883 334.624C478.3 336.611 478.471 338.59 478.388 340.805Z" fill="#D9D9D9"/>
<path d="M592.855 337.218C602.732 336.11 612.854 335.011 622.731 333.903C626.118 341.918 622.556 351.643 616.178 357.812C610.563 363.27 603.059 366.686 595.582 369.362C595.336 369.353 595.336 369.353 595.091 369.344C598.412 366.018 601.506 362.191 604.11 358.345C606.722 354.253 609.135 348.921 606.846 344.398C604.567 339.63 598.72 338.177 593.583 337.492C593.583 337.492 593.337 337.482 592.855 337.218Z" fill="black"/>
<path d="M523.251 337.807C546.604 337.945 569.841 334.628 592.847 337.464C554.568 341.941 516.298 346.173 478.388 340.805C478.217 338.827 478.291 336.858 478.128 334.633C493.305 336.436 508.255 337.737 523.251 337.807Z" fill="#6C6B6C"/>
<path d="M224.12 328.542C228.832 327.487 234.025 326.696 239.227 325.659C238.834 329.588 238.431 333.763 238.038 337.692C233.372 337.517 228.717 337.095 223.834 336.172L220.151 336.034C220.252 333.327 220.345 330.865 220.447 328.158L224.12 328.542Z" fill="black"/>
<path d="M668.963 353.387C687.752 350.642 706.57 347.159 724.915 343.165C725.8 352.318 726.695 361.224 727.581 370.377L723.143 370.704C705.201 370.523 687.504 370.351 669.562 370.17C669.529 364.499 669.241 359.066 668.963 353.387Z" fill="#D9D9D9"/>
<path d="M219.896 336.271L223.579 336.409C228.226 337.076 232.882 337.498 237.783 337.928C237.39 341.857 236.741 346.023 236.102 349.943C233.949 361.446 231.041 373.415 226.451 384.334C223.268 383.968 219.849 383.346 216.439 382.479C218.249 367.019 219.314 351.777 219.896 336.271Z" fill="black"/>
</svg>
