<svg width="410" height="359" viewBox="0 0 410 359" fill="none" xmlns="http://www.w3.org/2000/svg">
<path d="M96.5886 284.189C96.0661 282.783 95.6921 281.256 96.7446 280.036C97.6488 278.935 99.5345 278.502 101.095 279.065C102.512 279.622 103.614 280.924 103.701 282.44C103.922 284.212 102.841 286.189 100.807 286.742C98.9164 287.301 96.3693 286.197 96.153 284.299L96.5886 284.189Z" fill="white"/>
<path d="M250.264 281.741C249.384 278.997 248.758 276.015 250.57 273.619C252.126 271.459 255.355 270.594 258.019 271.68C260.437 272.757 262.309 275.292 262.443 278.255C262.805 281.719 260.938 285.593 257.455 286.694C254.216 287.805 249.871 285.67 249.519 281.96L250.264 281.741Z" fill="white"/>
<path d="M87.2899 311.306C86.7921 309.443 86.4424 307.418 87.4975 305.782C88.4045 304.307 90.2722 303.707 91.8062 304.435C93.1984 305.158 94.2695 306.874 94.3357 308.888C94.5312 311.242 93.4384 313.883 91.4226 314.646C89.5486 315.414 87.0476 313.979 86.8584 311.457L87.2899 311.306Z" fill="white"/>
<path d="M115.557 206.447C114.953 204.565 114.524 202.519 115.766 200.875C116.834 199.393 119.049 198.8 120.877 199.545C122.536 200.284 123.82 202.023 123.912 204.056C124.16 206.432 122.88 209.09 120.49 209.846C118.268 210.608 115.287 209.143 115.045 206.597L115.557 206.447Z" fill="white"/>
<path d="M216.717 315.77C216.197 314.197 215.827 312.488 216.892 311.116C217.807 309.879 219.707 309.385 221.276 310.009C222.7 310.628 223.803 312.082 223.884 313.779C224.099 315.765 223.002 317.983 220.952 318.613C219.047 319.247 216.488 318.021 216.278 315.895L216.717 315.77Z" fill="white"/>
<path d="M152.935 355.805C150.725 355.143 148.474 354.207 147.712 351.927C146.99 349.922 147.881 347.4 149.803 346.134C151.608 345.026 154.128 344.938 156.145 346.19C158.595 347.52 160.307 350.505 159.457 353.302C158.725 355.942 155.35 357.843 152.741 356.396L152.935 355.805Z" fill="white"/>
<path d="M136.667 239.455C135.154 239.573 133.601 239.479 132.992 237.842C132.422 236.418 132.912 234.089 134.15 232.48C135.315 231.035 137.005 230.211 138.413 230.633C140.116 230.989 141.394 232.92 140.943 235.461C140.564 237.838 138.377 240.401 136.562 239.996L136.667 239.455Z" fill="white"/>
<path d="M194.173 266.328C192.199 266.292 190.128 266.039 188.974 264.335C187.917 262.849 188.07 260.564 189.363 259.077C190.595 257.746 192.653 257.093 194.603 257.66C196.93 258.191 199.029 260.257 198.974 262.76C198.979 265.105 196.634 267.451 194.15 266.86L194.173 266.328Z" fill="white"/>
<path d="M131.766 316.286C130.157 314.928 128.614 313.324 128.806 311.138C128.932 309.198 130.597 307.41 132.667 307.05C134.582 306.78 136.724 307.624 137.955 309.406C139.522 311.411 139.868 314.533 138.138 316.566C136.563 318.509 133.045 318.871 131.388 316.71L131.766 316.286Z" fill="white"/>
<path d="M51.4877 283.597C50.9415 282.627 50.5439 281.577 51.5946 280.753C52.4965 280.01 54.4006 279.737 55.9879 280.141C57.4296 280.541 58.561 281.446 58.6676 282.486C58.9133 283.704 57.8431 285.045 55.7904 285.399C53.883 285.759 51.2905 284.971 51.0481 283.667L51.4877 283.597Z" fill="white"/>
<path d="M96.8225 352.567C96.1266 350.679 95.6285 348.63 97.032 346.991C98.2376 345.514 100.751 344.931 102.832 345.686C104.721 346.434 106.188 348.181 106.304 350.216C106.598 352.595 105.156 355.248 102.445 355.993C99.9244 356.744 96.5295 355.263 96.2419 352.714L96.8225 352.567Z" fill="white"/>
<path d="M96.2738 248.267C96.0485 246.898 95.897 245.408 96.4269 244.191C96.8832 243.095 97.7998 242.635 98.5411 243.157C99.2133 243.677 99.7196 244.933 99.733 246.418C99.8062 248.153 99.2484 250.111 98.258 250.692C97.3368 251.276 96.1305 250.241 96.0619 248.383L96.2738 248.267Z" fill="white"/>
<path d="M22.0326 267.356C21.5348 265.494 21.1851 263.469 22.2401 261.832C23.1472 260.358 25.0149 259.757 26.5489 260.485C27.9411 261.208 29.0121 262.925 29.0784 264.939C29.2738 267.293 28.1811 269.934 26.1653 270.697C24.2912 271.464 21.7902 270.029 21.6011 267.508L22.0326 267.356Z" fill="white"/>
<path d="M51.9985 213.102C51.0799 211.548 50.4103 209.866 52.1695 208.551C53.6795 207.364 56.871 206.932 59.5333 207.584C61.9516 208.228 63.851 209.68 64.0327 211.344C64.448 213.293 62.6578 215.436 59.2172 215.997C56.0205 216.568 51.6717 215.299 51.2616 213.212L51.9985 213.102Z" fill="white"/>
<path d="M129.072 269.755C128.192 267.011 127.566 264.03 129.377 261.633C130.934 259.473 134.162 258.608 136.826 259.694C139.245 260.771 141.116 263.306 141.251 266.269C141.613 269.733 139.746 273.607 136.262 274.708C133.024 275.819 128.679 273.684 128.326 269.974L129.072 269.755Z" fill="white"/>
<path d="M58.487 343.003C57.6066 340.259 56.981 337.278 58.7922 334.881C60.3486 332.721 63.5775 331.856 66.2413 332.942C68.6596 334.019 70.5314 336.554 70.666 339.517C71.0276 342.981 69.1609 346.855 65.6773 347.956C62.4391 349.067 58.0936 346.932 57.7412 343.222L58.487 343.003Z" fill="white"/>
<path d="M13.9008 310.171C13.4651 309.006 13.153 307.74 14.0301 306.729C14.7835 305.817 16.3553 305.458 17.6563 305.925C18.8375 306.387 19.7559 307.466 19.8286 308.723C20.0131 310.192 19.1126 311.829 17.4172 312.288C15.8416 312.751 13.7184 311.836 13.5378 310.262L13.9008 310.171Z" fill="white"/>
<path d="M159.703 312.372C158.822 309.628 158.197 306.646 160.008 304.25C161.564 302.09 164.793 301.225 167.457 302.311C169.875 303.388 171.747 305.923 171.882 308.886C172.243 312.35 170.377 316.224 166.893 317.325C163.655 318.436 159.309 316.301 158.957 312.59L159.703 312.372Z" fill="white"/>
<path d="M179.074 231.076C178.671 229.31 178.391 227.389 179.271 225.83C180.028 224.426 181.576 223.848 182.842 224.532C183.991 225.212 184.869 226.837 184.914 228.749C185.065 230.983 184.149 233.495 182.478 234.229C180.924 234.966 178.861 233.615 178.716 231.222L179.074 231.076Z" fill="white"/>
<path d="M322.366 167.498C323.734 168.116 325.082 168.923 325.21 170.53C325.357 171.946 324.339 173.592 322.842 174.306C321.449 174.922 319.749 174.79 318.61 173.786C317.194 172.697 316.549 170.539 317.585 168.703C318.517 166.965 321.092 165.93 322.595 167.112L322.366 167.498Z" fill="white"/>
<path d="M216.057 278.497C218.627 279.8 221.187 281.451 221.618 284.424C222.059 287.05 220.404 289.954 217.759 291.084C215.293 292.047 212.174 291.595 209.973 289.608C207.255 287.429 205.813 283.378 207.479 280.127C208.966 277.043 213.54 275.454 216.426 277.813L216.057 278.497Z" fill="white"/>
<path d="M309.623 141.821C311.297 142.777 312.983 143.952 313.405 145.853C313.816 147.535 312.93 149.285 311.333 149.864C309.84 150.345 307.867 149.9 306.388 148.531C304.576 147.015 303.467 144.381 304.342 142.411C305.114 140.539 307.892 139.769 309.819 141.408L309.623 141.821Z" fill="white"/>
<path d="M364.31 235.648C366.073 236.542 367.83 237.675 368.125 239.715C368.428 241.516 367.292 243.508 365.478 244.284C363.786 244.944 361.646 244.634 360.136 243.271C358.272 241.776 357.282 238.997 358.425 236.766C359.445 234.651 362.583 233.561 364.563 235.179L364.31 235.648Z" fill="white"/>
<path d="M215.447 230.716C216.931 231.452 218.406 232.391 218.634 234.113C218.87 235.633 217.885 237.331 216.338 238.008C214.897 238.586 213.088 238.348 211.823 237.212C210.26 235.969 209.454 233.629 210.448 231.729C211.336 229.928 214.008 228.97 215.667 230.316L215.447 230.716Z" fill="white"/>
<path d="M231.825 157.212C233.849 156.106 236.098 155.164 238.255 156.225C240.188 157.122 241.355 159.528 240.904 161.785C240.423 163.848 238.713 165.701 236.405 166.255C233.737 167.062 230.41 166.181 229.018 163.61C227.656 161.234 228.678 157.497 231.541 156.659L231.825 157.212Z" fill="white"/>
<path d="M325.998 227.451C326.977 226.292 328.136 225.254 329.729 225.972C331.142 226.568 332.453 228.554 332.727 230.565C332.936 232.41 332.333 234.191 331.043 234.895C329.592 235.856 327.321 235.407 325.831 233.3C324.407 231.358 324.123 228.002 325.687 226.996L325.998 227.451Z" fill="white"/>
<path d="M266.455 249.449C267.869 248.07 269.505 246.775 271.528 247.152C273.328 247.446 274.845 249.161 274.994 251.126C275.073 252.938 274.091 254.86 272.316 255.849C270.303 257.13 267.358 257.17 265.617 255.371C263.946 253.725 263.927 250.409 266.093 249.058L266.455 249.449Z" fill="white"/>
<path d="M274.809 169.945C276.906 169.756 279.131 169.786 280.551 171.46C281.842 172.914 281.942 175.354 280.743 177.08C279.589 178.632 277.483 179.561 275.349 179.184C272.822 178.888 270.359 176.939 270.13 174.28C269.855 171.794 272.071 169.037 274.773 169.379L274.809 169.945Z" fill="white"/>
<path d="M354.498 135.845C355.572 136.138 356.599 136.594 356.445 137.92C356.34 139.084 355.195 140.631 353.792 141.475C352.494 142.219 351.054 142.387 350.24 141.732C349.202 141.05 349.001 139.346 350.192 137.638C351.277 136.028 353.66 134.739 354.758 135.483L354.498 135.845Z" fill="white"/>
<path d="M273.579 119.588C275.411 120.421 277.218 121.507 277.397 123.658C277.6 125.554 276.246 127.751 274.247 128.699C272.387 129.517 270.113 129.332 268.585 127.983C266.686 126.519 265.813 123.629 267.19 121.177C268.428 118.857 271.868 117.484 273.883 119.072L273.579 119.588Z" fill="white"/>
<path d="M348.131 192.532C349.263 193.334 350.429 194.274 350.922 195.507C351.381 196.602 351.064 197.577 350.171 197.737C349.328 197.849 348.079 197.326 347.014 196.292C345.729 195.124 344.729 193.351 345.012 192.238C345.245 191.172 346.829 191.042 348.198 192.3L348.131 192.532Z" fill="white"/>
<path d="M386.757 126.319C388.432 127.274 390.117 128.449 390.539 130.35C390.95 132.032 390.064 133.782 388.467 134.361C386.975 134.843 385.001 134.398 383.522 133.029C381.711 131.512 380.601 128.878 381.476 126.909C382.248 125.036 385.027 124.267 386.953 125.905L386.757 126.319Z" fill="white"/>
<path d="M404.267 185.773C406.017 186.212 407.685 186.919 407.383 189.095C407.165 191.003 405.228 193.576 402.892 195.011C400.735 196.278 398.366 196.607 397.055 195.566C395.377 194.491 395.112 191.712 397.132 188.871C398.974 186.196 402.934 183.996 404.706 185.172L404.267 185.773Z" fill="white"/>
<path d="M309.791 200.746C312.362 202.05 314.921 203.701 315.352 206.674C315.794 209.299 314.138 212.203 311.493 213.334C309.027 214.296 305.908 213.845 303.707 211.857C300.989 209.679 299.547 205.628 301.213 202.376C302.7 199.293 307.274 197.704 310.16 200.062L309.791 200.746Z" fill="white"/>
<path d="M307.334 99.0527C309.905 100.356 312.465 102.007 312.896 104.981C313.337 107.606 311.682 110.51 309.037 111.64C306.57 112.603 303.452 112.152 301.25 110.164C298.533 107.985 297.091 103.935 298.757 100.683C300.244 97.5994 304.817 96.0105 307.704 98.3688L307.334 99.0527Z" fill="white"/>
<path d="M362.03 90.4327C363.165 90.9423 364.284 91.6101 364.387 92.945C364.506 94.1219 363.656 95.4918 362.409 96.0888C361.25 96.6038 359.837 96.4981 358.892 95.6665C357.718 94.7646 357.186 92.9728 358.052 91.4448C358.831 89.9988 360.975 89.1327 362.221 90.1107L362.03 90.4327Z" fill="white"/>
<path d="M257.949 192.562C260.52 193.866 263.08 195.517 263.51 198.49C263.952 201.116 262.296 204.02 259.651 205.15C257.185 206.113 254.067 205.661 251.865 203.674C249.147 201.495 247.705 197.444 249.372 194.193C250.858 191.109 255.432 189.52 258.318 191.879L257.949 192.562Z" fill="white"/>
<path d="M302.138 263.497C303.677 264.452 305.24 265.603 305.729 267.325C306.195 268.851 305.518 270.358 304.142 270.777C302.851 271.116 301.078 270.598 299.686 269.286C297.992 267.823 296.849 265.404 297.503 263.701C298.071 262.077 300.482 261.56 302.286 263.14L302.138 263.497Z" fill="white"/>
<path d="M81.7666 88.8526C82.274 87.4411 82.9724 86.0331 84.5641 85.7786C85.9648 85.5206 87.6856 86.4054 88.5156 87.842C89.2393 89.1818 89.2419 90.8871 88.3309 92.1017C87.3566 93.5992 85.2563 94.4126 83.3444 93.5242C81.5389 92.7326 80.304 90.2463 81.363 88.6556L81.7666 88.8526Z" fill="white"/>
<path d="M200.805 186.076C201.901 183.411 203.345 180.729 206.275 180.065C208.858 179.417 211.883 180.839 213.219 183.386C214.373 185.769 214.169 188.913 212.361 191.265C210.404 194.146 206.479 195.903 203.106 194.498C199.915 193.259 197.97 188.825 200.094 185.762L200.805 186.076Z" fill="white"/>
<path d="M57.1743 103.582C57.9949 101.838 59.0332 100.065 60.895 99.4939C62.5392 98.9516 64.3539 99.6971 65.0568 101.243C65.6548 102.693 65.3665 104.696 64.1185 106.278C62.7498 108.203 60.2115 109.517 58.1791 108.8C56.2517 108.179 55.2654 105.469 56.7469 103.42L57.1743 103.582Z" fill="white"/>
<path d="M146.394 41.664C147.146 39.8354 148.137 37.9954 150.147 37.5398C151.919 37.0958 153.994 38.0708 154.911 39.8187C155.702 41.4532 155.562 43.6106 154.322 45.2237C152.979 47.2003 150.287 48.4056 147.973 47.4421C145.783 46.5921 144.449 43.5501 145.906 41.4486L146.394 41.664Z" fill="white"/>
<path d="M153.22 190.452C153.837 188.915 154.656 187.37 156.355 187.008C157.852 186.652 159.622 187.5 160.419 188.989C161.109 190.38 161.015 192.203 159.982 193.552C158.866 195.209 156.597 196.197 154.624 195.356C152.759 194.612 151.593 192.025 152.804 190.265L153.22 190.452Z" fill="white"/>
<path d="M78.6529 179.923C77.3904 177.993 76.274 175.825 77.1615 173.591C77.9029 171.594 80.2097 170.24 82.4953 170.512C84.5897 170.829 86.5724 172.387 87.3061 174.645C88.3216 177.241 87.7052 180.626 85.2522 182.217C82.9906 183.762 79.1847 183.038 78.1241 180.25L78.6529 179.923Z" fill="white"/>
<path d="M141.245 80.5041C140.012 79.6191 138.886 78.5461 139.476 76.9016C139.958 75.4453 141.835 73.982 143.818 73.5499C145.641 73.1968 147.464 73.6567 148.268 74.8877C149.34 76.2581 149.072 78.5575 147.088 80.209C145.265 81.7815 141.941 82.3297 140.816 80.8501L141.245 80.5041Z" fill="white"/>
<path d="M167.872 138.125C166.386 136.825 164.965 135.296 165.182 133.25C165.333 131.432 166.923 129.784 168.87 129.481C170.67 129.259 172.664 130.086 173.789 131.778C175.225 133.684 175.497 136.617 173.842 138.494C172.333 140.289 169.028 140.57 167.511 138.517L167.872 138.125Z" fill="white"/>
<path d="M87.9561 136.069C87.602 133.993 87.4565 131.773 89.0133 130.226C90.3613 128.824 92.7856 128.531 94.6004 129.591C96.2385 130.619 97.3312 132.645 97.1234 134.802C97.0281 137.344 95.2792 139.954 92.6462 140.391C90.1899 140.861 87.2669 138.87 87.3942 136.15L87.9561 136.069Z" fill="white"/>
<path d="M47.6766 59.3179C47.8845 58.2243 48.2582 57.1649 49.5923 57.2128C50.7608 57.2266 52.3926 58.2452 53.3447 59.5781C54.1892 60.8131 54.47 62.2348 53.881 63.0983C53.2836 64.1873 51.6011 64.5221 49.8036 63.4693C48.1137 62.5145 46.6401 60.2405 47.2956 59.0877L47.6766 59.3179Z" fill="white"/>
<path d="M37.8532 141.267C38.5383 139.375 39.4789 137.488 41.6086 137.14C43.4828 136.788 45.7797 137.964 46.8829 139.882C47.8445 141.672 47.8398 143.954 46.6159 145.583C45.3061 147.592 42.4936 148.69 39.9412 147.51C37.5304 146.459 35.8907 143.138 37.3144 141.005L37.8532 141.267Z" fill="white"/>
<path d="M104.689 61.1935C105.4 60.0017 106.245 58.7651 107.435 58.1766C108.49 57.633 109.488 57.8722 109.717 58.7497C109.896 59.5806 109.473 60.8671 108.526 62.0106C107.463 63.3835 105.774 64.5206 104.642 64.3263C103.562 64.1785 103.307 62.6096 104.453 61.1453L104.689 61.1935Z" fill="white"/>
<path d="M35.6353 27.9109C36.4559 26.1662 37.4942 24.3931 39.3559 23.8225C41.0001 23.2803 42.8148 24.0258 43.5177 25.5715C44.1158 27.0217 43.8275 29.0243 42.5794 30.6065C41.2107 32.5319 38.6725 33.8459 36.6401 33.1288C34.7126 32.5072 33.7264 29.7977 35.2078 27.7484L35.6353 27.9109Z" fill="white"/>
<path d="M93.523 5.76603C93.8227 3.98611 94.3959 2.2684 96.5884 2.39763C98.5075 2.46465 101.226 4.192 102.84 6.40736C104.274 8.45845 104.789 10.7934 103.855 12.1826C102.915 13.9401 100.165 14.4233 97.1735 12.6338C94.3624 11.0085 91.8562 7.23491 92.8886 5.37526L93.523 5.76603Z" fill="white"/>
<path d="M115.902 98.7659C116.999 96.1006 118.443 93.4186 121.373 92.7545C123.955 92.1073 126.981 93.5285 128.317 96.0763C129.471 98.4587 129.267 101.603 127.459 103.955C125.501 106.836 121.577 108.593 118.204 107.188C115.013 105.949 113.068 101.515 115.191 98.452L115.902 98.7659Z" fill="white"/>
<path d="M14.7191 109.237C15.8158 106.571 17.26 103.889 20.1898 103.225C22.7722 102.578 25.7976 103.999 27.1334 106.547C28.2875 108.929 28.0834 112.074 26.2758 114.425C24.3183 117.306 20.3938 119.063 17.0209 117.659C13.8296 116.42 11.8849 111.986 14.0082 108.923L14.7191 109.237Z" fill="white"/>
<path d="M1.81148 55.392C2.22999 54.2203 2.80735 53.052 4.13007 52.8443C5.29394 52.6332 6.72662 53.3724 7.42005 54.568C8.02489 55.6831 8.031 57.1001 7.27646 58.1071C6.47 59.3492 4.72572 60.0202 3.13419 59.2775C1.63124 58.6155 0.598733 56.5467 1.47546 55.2274L1.81148 55.392Z" fill="white"/>
<path d="M111.834 151.092C112.931 148.427 114.375 145.745 117.305 145.081C119.887 144.433 122.912 145.855 124.248 148.402C125.402 150.785 125.198 153.929 123.391 156.281C121.433 159.162 117.509 160.919 114.136 159.514C110.944 158.275 109 153.841 111.123 150.778L111.834 151.092Z" fill="white"/>
<path d="M179.061 101.446C179.892 99.8361 180.917 98.1874 182.595 97.5637C184.079 96.9786 185.635 97.5346 186.161 98.8738C186.601 100.134 186.224 101.942 185.026 103.433C183.701 105.238 181.38 106.568 179.63 106.05C177.967 105.612 177.262 103.25 178.694 101.327L179.061 101.446Z" fill="white"/>
</svg>
