<svg width="697" height="322" viewBox="0 0 697 322" fill="none" xmlns="http://www.w3.org/2000/svg">
<g filter="url(#filter0_d)">
<path d="M4 110.124L658.36 -2.5423e-05L692.616 203.548L38.2556 313.672L4 110.124Z" fill="white"/>
</g>
<path d="M48.7369 245.901L35.899 168.961L98.9715 158.437L111.809 235.376L92.8727 238.536L82.7343 177.775L57.5351 181.979L67.6736 242.741L48.7369 245.901Z" fill="black"/>
<path d="M137.884 263.057L119.847 154.954L138.783 151.794L140.102 159.697C140.971 157.253 142.934 154.78 145.99 152.277C149.096 149.767 152.836 148.146 157.21 147.417C168.493 145.534 177.767 147.69 185.033 153.885C192.291 160.031 196.932 169.167 198.955 181.295C200.979 193.422 199.556 203.57 194.687 211.739C189.817 219.908 181.741 224.934 170.459 226.816C166.681 227.447 162.92 227.257 159.176 226.247C155.473 225.179 152.565 223.672 150.452 221.725L156.821 259.897L137.884 263.057ZM145.522 172.432C142.922 177.055 142.243 183.095 143.487 190.55C144.723 197.956 147.325 203.447 151.294 207.025C155.312 210.595 159.906 211.949 165.075 211.086C170.294 210.215 174.22 207.415 176.854 202.684C179.537 197.945 180.269 191.922 179.05 184.616C177.822 177.26 175.174 171.801 171.106 168.24C167.08 164.621 162.457 163.246 157.238 164.117C152.069 164.98 148.164 167.751 145.522 172.432Z" fill="black"/>
<path d="M222.895 216.841L210.057 139.902L228.993 136.742L236.918 184.233L255.385 132.338L276.037 128.892L288.875 205.832L269.938 208.992L262.014 161.501L243.471 213.408L222.895 216.841Z" fill="black"/>
<path d="M309.675 202.361L296.837 125.422L316.669 122.113L341.503 163.487L351.485 116.303L371.317 112.994L384.154 189.934L365.218 193.093L358.799 154.624L352.343 188.038L339.147 190.24L322.193 160.732L328.612 199.201L309.675 202.361Z" fill="black"/>
<path d="M398.626 162.308C396.479 158.017 395.008 153.486 394.212 148.715C393.416 143.943 393.336 139.18 393.973 134.425C394.652 129.612 396.059 125.035 398.195 120.693C400.373 116.294 403.723 112.491 408.246 109.284C412.81 106.02 418.248 103.861 424.56 102.807C430.674 101.787 436.315 102.072 441.485 103.662C446.646 105.202 450.912 107.657 454.285 111.028C457.698 114.341 460.437 118.047 462.5 122.148C464.614 126.24 466.035 130.472 466.765 134.846L468.071 142.674L415.063 151.519C416.042 156.158 418.412 159.952 422.173 162.9C425.976 165.79 430.636 166.775 436.153 165.855C444.006 164.545 449.559 159.557 452.813 150.891L469.03 153.932C465.015 169.979 454.608 179.404 437.809 182.207C431.496 183.26 425.656 183.009 420.288 181.452C414.969 179.888 410.566 177.379 407.077 173.925C403.639 170.463 400.822 166.59 398.626 162.308ZM413.01 136.459L446.187 130.923C442.416 121.489 436.111 117.534 427.272 119.06C422.799 119.806 419.307 121.845 416.798 125.176C414.289 128.506 413.026 132.267 413.01 136.459Z" fill="black"/>
<path d="M472.874 112.677L470.175 96.4989L530.34 86.46L533.039 102.638L512.462 106.072L522.601 166.833L503.664 169.993L493.526 109.231L472.874 112.677Z" fill="black"/>
<path d="M560.176 160.563L547.338 83.6237L566.275 80.464L571.164 109.764L585.18 107.425C593.331 106.065 600.153 107.149 605.646 110.677C611.189 114.196 614.565 119.585 615.776 126.841C616.979 134.048 615.53 140.216 611.43 145.344C607.381 150.465 601.28 153.705 593.129 155.065L560.176 160.563ZM576.413 141.225L587.074 139.446C594.182 138.26 597.313 135.133 596.467 130.063C595.662 124.935 591.681 122.969 584.524 124.163L573.863 125.942L576.413 141.225ZM635.773 147.949L622.936 71.0097L641.872 67.85L654.71 144.789L635.773 147.949Z" fill="black"/>
<defs>
<filter id="filter0_d" x="0" y="0" width="696.616" height="321.672" filterUnits="userSpaceOnUse" color-interpolation-filters="sRGB">
<feFlood flood-opacity="0" result="BackgroundImageFix"/>
<feColorMatrix in="SourceAlpha" type="matrix" values="0 0 0 0 0 0 0 0 0 0 0 0 0 0 0 0 0 0 127 0"/>
<feOffset dy="4"/>
<feGaussianBlur stdDeviation="2"/>
<feColorMatrix type="matrix" values="0 0 0 0 0 0 0 0 0 0 0 0 0 0 0 0 0 0 0.25 0"/>
<feBlend mode="normal" in2="BackgroundImageFix" result="effect1_dropShadow"/>
<feBlend mode="normal" in="SourceGraphic" in2="effect1_dropShadow" result="shape"/>
</filter>
</defs>
</svg>
