<svg width="147" height="53" viewBox="0 0 147 53" fill="none" xmlns="http://www.w3.org/2000/svg">
<path d="M0.0078125 52V1.60938H12.4102V19.9199H29.207V1.60938H41.6094V52H29.207V30.5156H12.4102V52H0.0078125ZM54.5 35.9355C53.5885 32.9733 53.1328 29.9297 53.1328 26.8047C53.1328 23.6797 53.5885 20.6361 54.5 17.6738C55.444 14.679 56.8275 11.9121 58.6504 9.37305C60.5059 6.80143 63.0449 4.73438 66.2676 3.17188C69.5228 1.57682 73.2174 0.779297 77.3516 0.779297C81.3555 0.779297 84.9199 1.56055 88.0449 3.12305C91.1699 4.65299 93.6276 6.67122 95.418 9.17773C97.2409 11.6517 98.5918 14.3047 99.4707 17.1367C100.382 19.9688 100.838 22.8171 100.838 25.6816V30.8086H66.1211C66.2513 33.8685 67.3581 36.5378 69.4414 38.8164C71.5573 41.0625 74.4219 42.1855 78.0352 42.1855C83.1784 42.1855 87.2474 39.5977 90.2422 34.4219L100.252 38.084C95.9876 47.8822 88.3542 52.7812 77.3516 52.7812C73.2174 52.7812 69.5228 52 66.2676 50.4375C63.0449 48.875 60.5059 46.8079 58.6504 44.2363C56.8275 41.6647 55.444 38.8978 54.5 35.9355ZM66.4141 20.9941H88.1426C86.7428 14.5814 83.1458 11.3913 77.3516 11.4238C74.4219 11.4238 71.9805 12.3516 70.0273 14.207C68.0742 16.0625 66.8698 18.3249 66.4141 20.9941ZM107.088 12.2051V1.60938H146.492V12.2051H133.016V52H120.613V12.2051H107.088Z" fill="white"/>
</svg>
