<svg width="360" height="124" viewBox="0 0 360 124" fill="none" xmlns="http://www.w3.org/2000/svg">
<path d="M36 103.221V52.8301H77.3086V103.221H64.9062V63.4258H48.4023V103.221H36Z" fill="black"/>
<path d="M90.9805 123.631V52.8301H103.383V58.0059C104.197 56.541 105.71 55.1738 107.924 53.9043C110.17 52.6348 112.725 52 115.59 52C122.979 52 128.66 54.36 132.631 59.0801C136.602 63.7676 138.588 70.0827 138.588 78.0254C138.588 85.9681 136.602 92.2832 132.631 96.9707C128.66 101.658 122.979 104.002 115.59 104.002C113.116 104.002 110.74 103.481 108.461 102.439C106.215 101.365 104.522 100.096 103.383 98.6309V123.631H90.9805ZM105.482 66.6973C103.334 69.3665 102.26 73.1426 102.26 78.0254C102.26 82.8757 103.334 86.6517 105.482 89.3535C107.663 92.0553 110.447 93.4062 113.832 93.4062C117.25 93.4062 120.049 92.0391 122.23 89.3047C124.444 86.5703 125.551 82.8105 125.551 78.0254C125.551 73.2077 124.444 69.4479 122.23 66.7461C120.049 64.0117 117.25 62.6445 113.832 62.6445C110.447 62.6445 107.663 63.9954 105.482 66.6973Z" fill="black"/>
<path d="M150.062 103.221V52.8301H162.465V83.9336L179.75 52.8301H193.275V103.221H180.873V72.1172L163.539 103.221H150.062Z" fill="black"/>
<path d="M206.898 103.221V52.8301H219.887L231.312 81.834L242.689 52.8301H255.678V103.221H243.275V78.0254L235.609 98.6309H226.967L219.301 78.0254V103.221H206.898Z" fill="black"/>
<path d="M267.836 87.1562C266.924 84.194 266.469 81.1504 266.469 78.0254C266.469 74.9004 266.924 71.8568 267.836 68.8945C268.78 65.8997 270.163 63.1328 271.986 60.5938C273.842 58.0221 276.381 55.9551 279.604 54.3926C282.859 52.7975 286.553 52 290.688 52C294.691 52 298.256 52.7812 301.381 54.3438C304.506 55.8737 306.964 57.8919 308.754 60.3984C310.577 62.8724 311.928 65.5254 312.807 68.3574C313.718 71.1895 314.174 74.0378 314.174 76.9023V82.0293H279.457C279.587 85.0892 280.694 87.7585 282.777 90.0371C284.893 92.2832 287.758 93.4062 291.371 93.4062C296.514 93.4062 300.583 90.8184 303.578 85.6426L313.588 89.3047C309.324 99.1029 301.69 104.002 290.688 104.002C286.553 104.002 282.859 103.221 279.604 101.658C276.381 100.096 273.842 98.0286 271.986 95.457C270.163 92.8854 268.78 90.1185 267.836 87.1562ZM279.75 72.2148H301.479C300.079 65.8021 296.482 62.612 290.688 62.6445C287.758 62.6445 285.316 63.5723 283.363 65.4277C281.41 67.2832 280.206 69.5456 279.75 72.2148Z" fill="black"/>
<path d="M320.424 63.4258V52.8301H359.828V63.4258H346.352V103.221H333.949V63.4258H320.424Z" fill="black"/>
</svg>
