<svg width="798" height="708" viewBox="0 0 798 708" fill="none" xmlns="http://www.w3.org/2000/svg">
<path d="M792.245 4.90723H4.90625V703.092H792.245V4.90723Z" fill="white"/>
<path fill-rule="evenodd" clip-rule="evenodd" d="M0 0H797.154V708H0V0ZM9.81516 9.81516V698.185H787.339V9.81516H9.81516Z" fill="black"/>
<path fill-rule="evenodd" clip-rule="evenodd" d="M0 0H797.154V116.31H0V0ZM9.81516 9.81516V106.494H787.339V9.81516H9.81516Z" fill="black"/>
<path fill-rule="evenodd" clip-rule="evenodd" d="M83.9407 87L26 39.0023L35.0593 28L93 75.9977L83.9407 87Z" fill="black"/>
<path fill-rule="evenodd" clip-rule="evenodd" d="M26 77.0275L85.8653 28L95 38.9725L35.1347 88L26 77.0275Z" fill="black"/>
<path d="M144.398 66.1383V49.2469H150.896C152.664 49.2469 154.055 49.6289 155.07 50.3927C156.085 51.1456 156.592 52.3022 156.592 53.8626C156.592 54.4628 156.44 55.0465 156.134 55.6139C155.839 56.1704 155.457 56.6069 154.988 56.9234C155.774 57.3053 156.418 57.8727 156.92 58.6256C157.422 59.3676 157.673 60.2187 157.673 61.1789C157.673 62.8375 157.16 64.0815 156.134 64.9108C155.119 65.7291 153.723 66.1383 151.944 66.1383H144.398ZM148.556 62.5866H150.831C152.577 62.5866 153.45 62.0028 153.45 60.8352C153.45 59.624 152.577 59.0239 150.831 59.0348H148.556V62.5866ZM148.556 55.4175H150.667C151.944 55.4175 152.582 54.9483 152.582 54.0099C152.582 53.0715 151.944 52.6023 150.667 52.6023H148.556V55.4175Z" fill="black"/>
<path d="M161.159 66.1383V49.2469H165.316V55.6794H168.393C170.183 55.6794 171.601 56.1541 172.649 57.1034C173.707 58.0527 174.237 59.3239 174.237 60.9171C174.237 62.4993 173.707 63.765 172.649 64.7143C171.601 65.6637 170.183 66.1383 168.393 66.1383H161.159ZM165.316 62.5866H167.657C169.217 62.5866 169.997 62.0301 169.997 60.9171C170.008 59.7931 169.228 59.2312 167.657 59.2312H165.316V62.5866ZM177.756 66.1383V49.2469H181.913V66.1383H177.756Z" fill="black"/>
<path d="M193.01 49.2469H197.2L201.129 59.8368L204.811 49.2469H208.969L200.261 72.98H196.235L199.148 65.0581L193.01 49.2469Z" fill="black"/>
<path d="M211.735 66.1383V49.2469H218.233C220 49.2469 221.392 49.6289 222.407 50.3927C223.421 51.1456 223.929 52.3022 223.929 53.8626C223.929 54.4628 223.776 55.0465 223.47 55.6139C223.176 56.1704 222.794 56.6069 222.325 56.9234C223.11 57.3053 223.754 57.8727 224.256 58.6256C224.758 59.3676 225.009 60.2187 225.009 61.1789C225.009 62.8375 224.496 64.0815 223.47 64.9108C222.456 65.7291 221.059 66.1383 219.28 66.1383H211.735ZM215.892 62.5866H218.167C219.913 62.5866 220.786 62.0028 220.786 60.8352C220.786 59.624 219.913 59.0239 218.167 59.0348H215.892V62.5866ZM215.892 55.4175H218.004C219.28 55.4175 219.919 54.9483 219.919 54.0099C219.919 53.0715 219.28 52.6023 218.004 52.6023H215.892V55.4175Z" fill="black"/>
<path d="M228.168 60.7534C227.862 59.7604 227.71 58.7402 227.71 57.6926C227.71 56.6451 227.862 55.6249 228.168 54.6319C228.484 53.628 228.948 52.7005 229.559 51.8494C230.181 50.9874 231.032 50.2945 232.113 49.7707C233.204 49.236 234.442 48.9687 235.828 48.9687C237.17 48.9687 238.365 49.2306 239.412 49.7543C240.46 50.2672 241.284 50.9437 241.884 51.7839C242.495 52.6132 242.948 53.5025 243.243 54.4518C243.548 55.4012 243.701 56.3559 243.701 57.3162V59.0348H232.063C232.107 60.0605 232.478 60.9552 233.176 61.7191C233.886 62.472 234.846 62.8484 236.057 62.8484C237.781 62.8484 239.145 61.981 240.149 60.246L243.504 61.4736C242.075 64.758 239.516 66.4002 235.828 66.4002C234.442 66.4002 233.204 66.1383 232.113 65.6146C231.032 65.0908 230.181 64.3979 229.559 63.5359C228.948 62.6738 228.484 61.7463 228.168 60.7534ZM232.162 55.7449H239.445C238.976 53.5953 237.77 52.5259 235.828 52.5368C234.846 52.5368 234.028 52.8478 233.373 53.4698C232.718 54.0918 232.314 54.8501 232.162 55.7449Z" fill="black"/>
<path d="M247.449 72.98V49.2469H251.606V50.9819C251.879 50.4909 252.387 50.0326 253.129 49.607C253.881 49.1815 254.738 48.9687 255.698 48.9687C258.175 48.9687 260.079 49.7598 261.411 51.342C262.742 52.9133 263.407 55.0302 263.407 57.6926C263.407 60.3551 262.742 62.472 261.411 64.0433C260.079 65.6146 258.175 66.4002 255.698 66.4002C254.869 66.4002 254.072 66.2256 253.309 65.8764C252.556 65.5164 251.988 65.0908 251.606 64.5998V72.98H247.449ZM252.31 53.8953C251.59 54.7901 251.23 56.0559 251.23 57.6926C251.23 59.3185 251.59 60.5842 252.31 61.4899C253.041 62.3956 253.974 62.8484 255.109 62.8484C256.255 62.8484 257.193 62.3901 257.924 61.4736C258.666 60.557 259.037 59.2967 259.037 57.6926C259.037 56.0777 258.666 54.8174 257.924 53.9117C257.193 52.9951 256.255 52.5368 255.109 52.5368C253.974 52.5368 253.041 52.9897 252.31 53.8953Z" fill="black"/>
<path d="M266.73 60.7534C266.425 59.7604 266.272 58.7402 266.272 57.6926C266.272 56.6451 266.425 55.6249 266.73 54.6319C267.046 53.628 267.51 52.7005 268.121 51.8494C268.743 50.9874 269.594 50.2945 270.675 49.7707C271.766 49.236 273.004 48.9687 274.39 48.9687C275.732 48.9687 276.927 49.2306 277.975 49.7543C279.022 50.2672 279.846 50.9437 280.446 51.7839C281.057 52.6132 281.51 53.5025 281.805 54.4518C282.11 55.4012 282.263 56.3559 282.263 57.3162V59.0348H270.626C270.669 60.0605 271.04 60.9552 271.739 61.7191C272.448 62.472 273.408 62.8484 274.619 62.8484C276.343 62.8484 277.707 61.981 278.711 60.246L282.067 61.4736C280.637 64.758 278.078 66.4002 274.39 66.4002C273.004 66.4002 271.766 66.1383 270.675 65.6146C269.594 65.0908 268.743 64.3979 268.121 63.5359C267.51 62.6738 267.046 61.7463 266.73 60.7534ZM270.724 55.7449H278.007C277.538 53.5953 276.332 52.5259 274.39 52.5368C273.408 52.5368 272.59 52.8478 271.935 53.4698C271.28 54.0918 270.877 54.8501 270.724 55.7449Z" fill="black"/>
<path d="M286.142 66.1383V49.2469H290.299V55.3848H295.93V49.2469H300.087V66.1383H295.93V58.9366H290.299V66.1383H286.142Z" fill="black"/>
<path d="M304.67 66.1383V49.2469H308.828V55.6794H311.905C313.694 55.6794 315.113 56.1541 316.16 57.1034C317.219 58.0527 317.748 59.3239 317.748 60.9171C317.748 62.4993 317.219 63.765 316.16 64.7143C315.113 65.6637 313.694 66.1383 311.905 66.1383H304.67ZM308.828 62.5866H311.168C312.729 62.5866 313.509 62.0301 313.509 60.9171C313.52 59.7931 312.739 59.2312 311.168 59.2312H308.828V62.5866ZM321.267 66.1383V49.2469H325.424V66.1383H321.267Z" fill="black"/>
<path d="M328.943 71.3596L331.448 61.2444H337.045L331.857 71.3596H328.943Z" fill="black"/>
<path d="M349.861 57.9873V49.2469H354.019V56.4814C354.019 58.3583 354.826 59.2967 356.441 59.2967C357.805 59.2967 358.989 58.2819 359.993 56.2523V49.2469H364.15V66.1383H359.993V61.2117C359.207 61.8991 358.443 62.3792 357.701 62.652C356.97 62.9248 356.081 63.0612 355.033 63.0612C353.473 63.0612 352.218 62.6193 351.269 61.7354C350.33 60.8407 349.861 59.5913 349.861 57.9873Z" fill="black"/>
<path d="M368.193 52.7987V49.2469H381.402V52.7987H376.884V66.1383H372.727V52.7987H368.193Z" fill="black"/>
<path d="M385.674 63.9451C384.135 62.2974 383.366 60.2132 383.366 57.6926C383.366 55.1611 384.135 53.077 385.674 51.4402C387.223 49.7925 389.313 48.9687 391.942 48.9687C394.583 48.9687 396.673 49.7925 398.211 51.4402C399.761 53.077 400.535 55.1611 400.535 57.6926C400.535 60.2132 399.761 62.2974 398.211 63.9451C396.673 65.5818 394.583 66.4002 391.942 66.4002C389.313 66.4002 387.223 65.5818 385.674 63.9451ZM388.865 54.0263C388.101 55.0193 387.719 56.2414 387.719 57.6926C387.719 59.1439 388.101 60.366 388.865 61.359C389.629 62.3519 390.655 62.8484 391.942 62.8484C393.241 62.8484 394.267 62.3519 395.019 61.359C395.783 60.366 396.165 59.1439 396.165 57.6926C396.165 56.2414 395.783 55.0193 395.019 54.0263C394.267 53.0333 393.241 52.5368 391.942 52.5368C390.655 52.5368 389.629 53.0333 388.865 54.0263Z" fill="black"/>
<path d="M410.536 66.1383L416.134 57.1198L411.24 49.2469H415.61L418.36 53.6335L421.109 49.2469H425.463L420.569 57.1198L426.167 66.1383H421.813L418.36 60.6388L414.906 66.1383H410.536Z" fill="black"/>
<path d="M430.193 63.9451C428.655 62.2974 427.886 60.2132 427.886 57.6926C427.886 55.1611 428.655 53.077 430.193 51.4402C431.743 49.7925 433.833 48.9687 436.462 48.9687C439.103 48.9687 441.193 49.7925 442.731 51.4402C444.281 53.077 445.055 55.1611 445.055 57.6926C445.055 60.2132 444.281 62.2974 442.731 63.9451C441.193 65.5818 439.103 66.4002 436.462 66.4002C433.833 66.4002 431.743 65.5818 430.193 63.9451ZM433.385 54.0263C432.621 55.0193 432.239 56.2414 432.239 57.6926C432.239 59.1439 432.621 60.366 433.385 61.359C434.149 62.3519 435.175 62.8484 436.462 62.8484C437.761 62.8484 438.786 62.3519 439.539 61.359C440.303 60.366 440.685 59.1439 440.685 57.6926C440.685 56.2414 440.303 55.0193 439.539 54.0263C438.786 53.0333 437.761 52.5368 436.462 52.5368C435.175 52.5368 434.149 53.0333 433.385 54.0263Z" fill="black"/>
<path d="M446.299 52.7987V49.2469H459.508V52.7987H454.99V66.1383H450.833V52.7987H446.299Z" fill="black"/>
<path d="M462.814 66.1383V49.2469H466.972V59.6731L472.766 49.2469H477.3V66.1383H473.142V55.7121L467.332 66.1383H462.814Z" fill="black"/>
<path d="M480.278 52.7987V49.2469H493.487V52.7987H488.97V66.1383H484.812V52.7987H480.278Z" fill="black"/>
<path d="M495.91 60.7534C495.604 59.7604 495.451 58.7402 495.451 57.6926C495.451 56.6451 495.604 55.6249 495.91 54.6319C496.226 53.628 496.69 52.7005 497.301 51.8494C497.923 50.9874 498.774 50.2945 499.854 49.7707C500.945 49.236 502.184 48.9687 503.57 48.9687C504.912 48.9687 506.107 49.2306 507.154 49.7543C508.202 50.2672 509.025 50.9437 509.626 51.7839C510.237 52.6132 510.689 53.5025 510.984 54.4518C511.29 55.4012 511.442 56.3559 511.442 57.3162V59.0348H499.805C499.849 60.0605 500.22 60.9552 500.918 61.7191C501.627 62.472 502.588 62.8484 503.799 62.8484C505.523 62.8484 506.887 61.981 507.891 60.246L511.246 61.4736C509.817 64.758 507.258 66.4002 503.57 66.4002C502.184 66.4002 500.945 66.1383 499.854 65.6146C498.774 65.0908 497.923 64.3979 497.301 63.5359C496.69 62.6738 496.226 61.7463 495.91 60.7534ZM499.903 55.7449H507.187C506.718 53.5953 505.512 52.5259 503.57 52.5368C502.587 52.5368 501.769 52.8478 501.114 53.4698C500.46 54.0918 500.056 54.8501 499.903 55.7449Z" fill="black"/>
<path d="M524.536 63.9287C523.107 62.2701 522.392 60.1914 522.392 57.6926C522.392 55.1938 523.107 53.1152 524.536 51.4566C525.966 49.798 528.001 48.9687 530.642 48.9687C534.461 48.9687 537.02 50.5782 538.318 53.7971L534.603 55.303C533.686 53.448 532.366 52.5259 530.642 52.5368C529.365 52.5368 528.394 53.0115 527.728 53.9608C527.073 54.9101 526.746 56.1541 526.746 57.6926C526.746 59.2312 527.073 60.4751 527.728 61.4245C528.394 62.3738 529.365 62.8484 530.642 62.8484C532.366 62.8484 533.686 61.9209 534.603 60.0659L538.318 61.5718C537.02 64.7907 534.461 66.4002 530.642 66.4002C528.001 66.4002 525.966 65.5764 524.536 63.9287Z" fill="black"/>
<path d="M541.346 66.1383V49.2469H545.503V55.9086H547.779C548.139 53.8572 549.061 52.1877 550.545 50.9001C552.029 49.6125 553.922 48.9687 556.224 48.9687C558.865 48.9687 560.954 49.7925 562.493 51.4402C564.032 53.077 564.801 55.1611 564.801 57.6926C564.801 60.2132 564.032 62.2974 562.493 63.9451C560.954 65.5818 558.865 66.4002 556.224 66.4002C553.9 66.4002 551.996 65.7673 550.512 64.5016C549.028 63.2249 548.117 61.5445 547.779 59.4603H545.503V66.1383H541.346ZM553.131 54.0263C552.378 55.0193 552.001 56.2414 552.001 57.6926C552.001 59.1439 552.378 60.366 553.131 61.359C553.895 62.3519 554.926 62.8484 556.224 62.8484C557.523 62.8484 558.548 62.3519 559.301 61.359C560.065 60.366 560.447 59.1439 560.447 57.6926C560.447 56.2414 560.065 55.0193 559.301 54.0263C558.548 53.0333 557.523 52.5368 556.224 52.5368C554.926 52.5368 553.895 53.0333 553.131 54.0263Z" fill="black"/>
<path d="M567.436 62.5866H568.844L570.988 49.2469H583.083V62.5866H584.327L583.82 69.952H580.203V66.1383H571.561V69.952H567.96L567.436 62.5866ZM572.903 62.5866H578.926V52.7987H574.409L572.903 62.5866Z" fill="black"/>
<path d="M586.979 61.2771C586.979 59.5967 587.645 58.2546 588.976 57.2507C590.307 56.2468 592.042 55.7449 594.181 55.7449H596.996V55.0083C596.996 53.3498 596.014 52.5259 594.05 52.5368C592.555 52.5368 591.584 53.1806 591.136 54.4682L587.617 53.6662C587.89 52.2586 588.605 51.1238 589.761 50.2617C590.918 49.3997 592.348 48.9687 594.05 48.9687C598.785 48.9687 601.153 51.3311 601.153 56.0559V66.1383H597.732L597.307 63.9942C595.987 65.5982 594.252 66.4002 592.102 66.4002C590.607 66.4002 589.38 65.9583 588.419 65.0744C587.459 64.1797 586.979 62.9139 586.979 61.2771ZM591.333 61.2117C591.333 61.6591 591.48 62.0464 591.775 62.3738C592.08 62.6902 592.517 62.8484 593.084 62.8484C594.11 62.8484 595.015 62.5265 595.801 61.8827C596.598 61.239 596.996 60.3987 596.996 59.3621V59.0348H594.213C592.293 59.0348 591.333 59.7604 591.333 61.2117Z" fill="black"/>
<path d="M613.92 66.1383V49.2469H627.767V66.1383H623.61V52.7987H618.077V66.1383H613.92Z" fill="black"/>
<path d="M632.35 72.98V49.2469H636.507V50.9819C636.78 50.4909 637.288 50.0326 638.03 49.607C638.782 49.1815 639.639 48.9687 640.599 48.9687C643.076 48.9687 644.98 49.7598 646.312 51.342C647.643 52.9133 648.308 55.0302 648.308 57.6926C648.308 60.3551 647.643 62.472 646.312 64.0433C644.98 65.6146 643.076 66.4002 640.599 66.4002C639.77 66.4002 638.973 66.2256 638.21 65.8764C637.457 65.5164 636.889 65.0908 636.507 64.5998V72.98H632.35ZM637.211 53.8953C636.491 54.7901 636.131 56.0559 636.131 57.6926C636.131 59.3185 636.491 60.5842 637.211 61.4899C637.942 62.3956 638.875 62.8484 640.01 62.8484C641.156 62.8484 642.094 62.3901 642.825 61.4736C643.567 60.557 643.938 59.2967 643.938 57.6926C643.938 56.0777 643.567 54.8174 642.825 53.9117C642.094 52.9951 641.156 52.5368 640.01 52.5368C638.875 52.5368 637.942 52.9897 637.211 53.8953Z" fill="black"/>
<path d="M652.155 66.1383V49.2469H656.312V59.6731L662.106 49.2469H666.64V66.1383H662.483V55.7121L656.672 66.1383H652.155Z" fill="black"/>
<path d="M671.207 66.1383V49.2469H675.364V59.6731L681.158 49.2469H685.692V66.1383H681.535V55.7121L675.724 66.1383H671.207ZM674.497 42.6672H677.541C677.541 42.9399 677.623 43.1691 677.787 43.3546C677.961 43.5292 678.179 43.6165 678.441 43.6165C678.714 43.6165 678.932 43.5292 679.096 43.3546C679.271 43.1691 679.358 42.9399 679.358 42.6672H682.402C682.402 43.671 682.037 44.5331 681.306 45.2532C680.585 45.9734 679.631 46.3335 678.441 46.3335C677.263 46.3335 676.308 45.9734 675.577 45.2532C674.857 44.5331 674.497 43.671 674.497 42.6672Z" fill="black"/>
<path d="M689.391 52.7987V49.2469H702.6V52.7987H698.082V66.1383H693.925V52.7987H689.391Z" fill="black"/>
<path d="M705.906 66.1383V49.2469H710.063V59.6731L715.858 49.2469H720.391V66.1383H716.234V55.7121L710.424 66.1383H705.906Z" fill="black"/>
<path d="M724.467 47.5283C724.74 46.0553 725.438 44.8331 726.562 43.862C727.686 42.8908 729.121 42.4053 730.867 42.4053C732.744 42.4053 734.244 42.8854 735.368 43.8456C736.503 44.8059 737.07 46.0934 737.07 47.7084C737.07 48.9632 736.704 49.9344 735.973 50.6218C735.253 51.3093 734.075 51.9694 732.438 52.6023C731.325 53.0497 730.572 53.4207 730.179 53.7153C729.786 53.999 729.59 54.3645 729.59 54.8119C729.59 55.172 729.705 55.4557 729.934 55.663C730.174 55.8704 730.463 55.974 730.801 55.974C731.718 55.974 732.356 55.4612 732.716 54.4355L735.662 55.5485C735.281 56.6178 734.669 57.4635 733.829 58.0855C733 58.6965 731.991 59.002 730.801 59.002C729.437 59.002 728.324 58.6038 727.462 57.8072C726.6 57.0106 726.169 55.9795 726.169 54.7137C726.169 52.7278 727.38 51.2711 729.803 50.3436C731.101 49.8525 731.98 49.4106 732.438 49.0178C732.907 48.6141 733.142 48.1339 733.142 47.5774C733.142 47.01 732.94 46.5899 732.536 46.3171C732.143 46.0334 731.62 45.8916 730.965 45.8916C729.514 45.8916 728.564 46.639 728.117 48.1339L724.467 47.5283ZM728.019 63.585C728.019 62.7993 728.292 62.1337 728.837 61.5881C729.383 61.0425 730.037 60.7697 730.801 60.7697C731.565 60.7697 732.22 61.048 732.765 61.6045C733.311 62.1501 733.584 62.8102 733.584 63.585C733.584 64.3488 733.316 64.998 732.782 65.5327C732.247 66.0674 731.587 66.3347 730.801 66.3347C730.016 66.3347 729.355 66.0674 728.821 65.5327C728.286 64.998 728.019 64.3488 728.019 63.585Z" fill="black"/>
<path d="M81.7945 192.051H89.6466C95.6993 192.051 98.6438 190.088 98.6438 185.998C98.6438 181.908 95.6993 179.782 89.6466 179.782H81.7945V192.051ZM81.7945 167.676H88.9923C93.4091 167.676 95.5357 166.041 95.5357 162.605C95.5357 159.17 93.4091 157.534 88.9923 157.534H81.7945V167.676ZM67.5625 204.32V146.41H89.6466C95.6993 146.41 100.443 147.719 103.879 150.336C107.314 152.954 109.113 156.88 109.113 162.278C109.113 164.405 108.623 166.368 107.641 168.331C106.66 170.294 105.351 171.766 103.715 172.911C106.332 174.22 108.623 176.183 110.258 178.637C111.894 181.254 112.876 184.035 112.876 187.307C112.876 193.032 111.076 197.285 107.641 200.066C104.206 202.847 99.4618 204.32 93.2455 204.32H67.5625V204.32Z" fill="black"/>
<path d="M184.198 146.41H198.43V204.32H184.198V146.41ZM141.666 192.051H149.681C155.08 192.051 157.697 190.088 157.697 186.325C157.697 182.563 155.08 180.6 149.681 180.6H141.666V192.051ZM127.434 204.32V146.41H141.666V168.494H152.135C158.188 168.494 163.095 170.13 166.694 173.402C170.293 176.674 172.093 181.09 172.093 186.489C172.093 191.887 170.293 196.304 166.694 199.576C163.095 202.847 158.188 204.483 152.135 204.483H127.434V204.32Z" fill="black"/>
<path d="M220.025 196.631C215.118 190.905 212.664 183.871 212.664 175.201C212.664 166.531 215.118 159.497 220.025 153.771C224.933 148.046 231.967 145.265 240.964 145.265C254.051 145.265 262.885 150.827 267.302 161.787L254.542 167.022C251.434 160.642 246.854 157.534 240.964 157.534C236.548 157.534 233.276 159.169 230.986 162.441C228.695 165.713 227.55 169.966 227.55 175.201C227.55 180.436 228.695 184.689 230.986 187.961C233.276 191.232 236.548 192.868 240.964 192.868C246.854 192.868 251.434 189.76 254.542 183.38L267.302 188.615C262.885 199.739 254.051 205.137 240.964 205.137C231.967 205.137 224.933 202.356 220.025 196.631Z" fill="black"/>
<path d="M274.66 158.515V146.409H319.973V158.515H304.433V204.319H290.201V158.515H274.66Z" fill="black"/>
<path d="M342.878 187.306C342.878 188.778 343.369 190.087 344.35 191.232C345.332 192.377 346.804 192.868 348.767 192.868C352.366 192.868 355.474 191.723 358.092 189.596C360.872 187.469 362.181 184.525 362.181 180.926V179.781H352.693C346.15 179.944 342.878 182.398 342.878 187.306ZM327.828 187.633C327.828 181.907 330.118 177.327 334.699 173.892C339.279 170.456 345.168 168.657 352.53 168.657H362.181V166.04C362.181 160.314 358.746 157.533 352.039 157.533C346.968 157.533 343.532 159.823 342.06 164.24L329.955 161.459C330.936 156.715 333.39 152.789 337.316 149.845C341.242 146.9 346.15 145.428 352.039 145.428C368.234 145.428 376.413 153.607 376.413 169.802V204.319H364.635L363.163 196.957C358.582 202.519 352.693 205.137 345.332 205.137C340.261 205.137 336.007 203.664 332.736 200.556C329.628 197.612 327.828 193.195 327.828 187.633Z" fill="black"/>
<path d="M406.021 192.05H413.873C419.926 192.05 422.87 190.087 422.87 185.997C422.87 181.907 419.926 179.781 413.873 179.781H406.021V192.05ZM406.021 167.675H413.219C417.636 167.675 419.762 166.04 419.762 162.604C419.762 159.169 417.636 157.533 413.219 157.533H406.021V167.675ZM391.789 204.319V146.409H413.873C419.926 146.409 424.67 147.718 428.105 150.335C431.54 152.953 433.34 156.879 433.34 162.277C433.34 164.404 432.849 166.367 431.868 168.33C430.886 170.293 429.577 171.765 427.942 172.91C430.559 174.219 432.849 176.182 434.485 178.636C436.121 181.253 437.102 184.034 437.102 187.306C437.102 193.031 435.303 197.284 431.868 200.065C428.432 202.846 423.688 204.319 417.472 204.319H391.789V204.319Z" fill="black"/>
<path d="M451.66 204.319V146.409H466.056V169.148L484.868 146.409H502.372L479.143 173.074L504.008 204.319H486.34L466.056 177V204.319H451.66Z" fill="black"/>
<path d="M523.476 187.306C523.476 188.778 523.967 190.087 524.948 191.232C525.93 192.377 527.402 192.868 529.365 192.868C532.964 192.868 536.072 191.723 538.69 189.596C541.471 187.469 542.779 184.525 542.779 180.926V179.781H533.291C526.748 179.944 523.476 182.398 523.476 187.306ZM508.59 187.633C508.59 181.907 510.88 177.327 515.46 173.892C520.041 170.456 525.93 168.657 533.291 168.657H542.943V166.04C542.943 160.314 539.508 157.533 532.801 157.533C527.729 157.533 524.294 159.823 522.822 164.24L510.716 161.459C511.698 156.715 514.152 152.789 518.078 149.845C522.004 146.9 526.911 145.428 532.801 145.428C548.996 145.428 557.175 153.607 557.175 169.802V204.319H545.397L543.924 196.957C539.344 202.519 533.455 205.137 526.094 205.137C521.022 205.137 516.769 203.664 513.497 200.556C510.226 197.612 508.59 193.195 508.59 187.633Z" fill="black"/>
<path d="M81.793 292.164V234.255H96.025V256.993L115.001 234.255H132.505L109.275 260.919L133.977 292.164H116.473L96.025 264.845V292.164H81.793Z" fill="black"/>
<path d="M158.187 250.614C155.57 254.049 154.261 258.302 154.261 263.21C154.261 268.117 155.57 272.37 158.187 275.806C160.804 279.241 164.403 280.877 168.82 280.877C173.237 280.877 176.836 279.241 179.453 275.806C182.07 272.37 183.379 268.117 183.379 263.21C183.379 258.302 182.07 254.049 179.453 250.614C176.836 247.178 173.4 245.542 168.82 245.542C164.24 245.379 160.804 247.178 158.187 250.614ZM147.227 284.639C141.992 279.077 139.211 271.88 139.211 263.21C139.211 254.54 141.828 247.342 147.227 241.78C152.461 236.218 159.659 233.273 168.656 233.273C177.654 233.273 184.851 236.054 190.086 241.78C195.321 247.342 197.938 254.54 197.938 263.21C197.938 271.88 195.321 279.077 190.086 284.639C184.851 290.201 177.654 293.146 168.656 293.146C159.659 293.146 152.461 290.201 147.227 284.639Z" fill="black"/>
<path d="M212.336 292.164V234.255H226.568V255.357H245.871V234.255H260.103V292.164H245.871V267.463H226.568V292.164H212.336Z" fill="black"/>
<path d="M278.422 292.164V234.255H292.817V256.993L311.63 234.255H329.134L305.904 260.919L330.769 292.164H313.102L292.817 264.845V292.164H278.422Z" fill="black"/>
<path d="M331.262 234.255H345.657L359.235 270.571L371.831 234.255H386.063L356.127 315.721H342.386L352.364 288.402L331.262 234.255Z" fill="black"/>
<path d="M412.237 250.123C409.783 253.231 408.474 257.484 408.474 263.21C408.474 268.772 409.783 273.188 412.237 276.297C414.69 279.405 417.962 281.041 421.888 281.041C425.814 281.041 429.086 279.405 431.54 276.297C433.993 273.188 435.302 268.772 435.302 263.21C435.302 257.648 433.993 253.395 431.54 250.286C429.086 247.178 425.814 245.542 421.888 245.542C417.962 245.379 414.69 247.015 412.237 250.123ZM395.551 315.721V234.255H409.783V240.144C410.764 238.508 412.4 236.872 415.018 235.4C417.635 233.928 420.579 233.273 423.851 233.273C432.358 233.273 438.901 235.891 443.481 241.289C448.062 246.687 450.352 253.885 450.352 263.046C450.352 272.207 448.062 279.405 443.481 284.803C438.901 290.201 432.358 292.819 423.851 292.819C421.07 292.819 418.289 292.164 415.672 291.019C413.054 289.874 411.091 288.402 409.783 286.602V315.394H395.551V315.721Z" fill="black"/>
<path d="M467.365 284.639C462.458 278.914 460.004 271.88 460.004 263.21C460.004 254.54 462.458 247.505 467.365 241.78C472.273 236.054 479.307 233.273 488.304 233.273C501.391 233.273 510.225 238.835 514.642 249.796L501.882 255.03C498.774 248.651 494.193 245.542 488.304 245.542C483.887 245.542 480.616 247.178 478.326 250.45C476.035 253.722 474.89 257.975 474.89 263.21C474.89 268.444 476.035 272.698 478.326 275.969C480.616 279.241 483.887 280.877 488.304 280.877C494.193 280.877 498.774 277.769 501.882 271.389L514.642 276.624C510.225 287.748 501.391 293.146 488.304 293.146C479.307 293.146 472.273 290.201 467.365 284.639Z" fill="black"/>
<path d="M527.727 292.164V234.255H541.959V255.357H561.262V234.255H575.494V292.164H561.262V267.463H541.959V292.164H527.727Z" fill="black"/>
<path d="M650.581 234.255H664.813V292.164H650.581V234.255ZM608.212 280.059H616.228C621.626 280.059 624.243 278.096 624.243 274.333C624.243 270.571 621.626 268.608 616.228 268.608H608.212V280.059ZM593.816 292.164V234.255H608.048V256.339H618.518C624.571 256.339 629.478 257.975 633.077 261.247C636.676 264.518 638.475 268.935 638.475 274.333C638.475 279.732 636.676 284.149 633.077 287.42C629.478 290.692 624.571 292.328 618.518 292.328H593.816V292.164Z" fill="black"/>
<path d="M675.121 292.164L694.261 261.247L677.575 234.255H692.461L701.949 249.305L711.437 234.255H726.324L709.474 261.247L728.777 292.164H713.891L701.949 273.352L690.171 292.164H675.121Z" fill="black"/>
<path d="M84.2483 360.053C81.7945 363.162 80.4858 367.415 80.4858 373.14C80.4858 378.702 81.7945 383.119 84.2483 386.227C86.7021 389.335 89.9738 390.971 93.8998 390.971C97.8259 390.971 101.098 389.335 103.551 386.227C106.005 383.119 107.314 378.702 107.314 373.14C107.314 367.578 106.005 363.325 103.551 360.217C101.098 357.109 97.8259 355.473 93.8998 355.473C89.9738 355.473 86.7021 356.945 84.2483 360.053ZM67.5625 425.651V344.186H81.7945V350.075C82.776 348.439 84.4119 346.803 87.0292 345.331C89.6466 343.858 92.5912 343.204 95.8629 343.204C104.369 343.204 110.913 345.821 115.493 351.22C120.074 356.618 122.364 363.816 122.364 372.977C122.364 382.138 120.074 389.335 115.493 394.734C110.913 400.132 104.369 402.749 95.8629 402.749C93.0819 402.749 90.301 402.095 87.6836 400.95C85.0662 399.805 83.1032 398.333 81.7945 396.533V425.651H67.5625Z" fill="black"/>
<path d="M146.41 385.246C146.41 386.718 146.901 388.027 147.882 389.172C148.864 390.317 150.336 390.808 152.299 390.808C155.898 390.808 159.006 389.663 161.623 387.536C164.404 385.409 165.713 382.465 165.713 378.866V377.721H156.225C149.845 377.721 146.41 380.174 146.41 385.246ZM131.523 385.409C131.523 379.684 133.814 375.103 138.394 371.668C142.974 368.233 148.864 366.433 156.225 366.433H165.876V363.816C165.876 358.09 162.441 355.309 155.734 355.309C150.663 355.309 147.228 357.6 145.755 362.016L133.65 359.236C134.632 354.492 137.085 350.565 141.011 347.621C144.937 344.676 149.845 343.204 155.734 343.204C171.929 343.204 180.108 351.383 180.108 367.578V402.095H168.33L166.858 394.734C162.278 400.296 156.388 402.913 149.027 402.913C143.956 402.913 139.703 401.441 136.431 398.333C133.159 395.388 131.523 391.135 131.523 385.409Z" fill="black"/>
<path d="M210.047 360.544C207.429 363.979 206.121 368.232 206.121 373.14C206.121 378.047 207.429 382.301 210.047 385.736C212.664 389.171 216.263 390.807 220.68 390.807C225.097 390.807 228.696 389.171 231.313 385.736C233.93 382.301 235.239 378.047 235.239 373.14C235.239 368.232 233.93 363.979 231.313 360.544C228.696 357.108 225.26 355.473 220.68 355.473C216.099 355.473 212.664 357.108 210.047 360.544ZM191.234 366.433C191.234 350.401 193.852 338.787 199.086 331.916C204.321 325.046 211.846 321.61 221.334 321.61H225.424C229.677 321.61 232.622 319.647 234.094 315.885H242.928C242.928 327.827 237.366 333.716 226.242 333.716H221.825C212.01 333.716 206.775 338.95 206.121 349.256C210.538 345.167 215.936 343.204 222.643 343.204C231.149 343.204 237.856 345.985 242.764 351.547C247.672 357.108 250.125 364.306 250.125 373.14C250.125 381.81 247.344 389.008 241.946 394.57C236.548 400.132 229.35 402.913 220.516 402.913C211.683 402.913 204.485 399.641 199.25 393.097C193.852 386.554 191.234 377.557 191.234 366.433Z" fill="black"/>
<path d="M278.753 360.544C276.136 363.98 274.827 368.233 274.827 373.14C274.827 378.048 276.136 382.301 278.753 385.736C281.371 389.172 284.97 390.808 289.386 390.808C293.803 390.808 297.402 389.172 300.02 385.736C302.637 382.301 303.946 378.048 303.946 373.14C303.946 368.233 302.637 363.98 300.02 360.544C297.402 357.109 293.967 355.473 289.386 355.473C284.97 355.473 281.371 357.109 278.753 360.544ZM267.793 394.57C262.558 389.008 259.777 381.81 259.777 373.14C259.777 364.47 262.395 357.272 267.793 351.711C273.028 346.149 280.226 343.204 289.223 343.204C298.22 343.204 305.418 345.985 310.653 351.711C315.887 357.272 318.505 364.47 318.505 373.14C318.505 381.81 315.887 389.008 310.653 394.57C305.418 400.132 298.22 403.077 289.223 403.077C280.389 403.077 273.191 400.132 267.793 394.57Z" fill="black"/>
<path d="M327.172 356.29V344.185H372.485V356.29H357.108V402.094H342.713V356.29H327.172Z" fill="black"/>
<path d="M102.079 504.335V494.847L137.577 469.818V484.541L116.311 499.591L137.577 514.641V529.364L102.079 504.335ZM67.5625 504.335V494.847L103.061 469.818V484.541L81.7945 499.591L103.061 514.641V529.364L67.5625 504.335Z" fill="black"/>
<path d="M151.809 482.251V454.769H166.695V482.415C166.695 487.649 167.84 491.739 169.967 494.356C172.093 497.137 175.201 498.446 178.964 498.446C182.89 498.446 185.998 497.955 188.125 496.81C190.415 495.665 192.705 493.866 195.159 491.412V454.769H210.045V535.253H195.159V507.443C190.415 510.715 184.199 512.187 176.346 512.187C168.822 512.187 162.769 509.733 158.352 504.826C153.935 499.918 151.809 492.393 151.809 482.251Z" fill="black"/>
<path d="M224.113 489.613V477.344H269.427V489.613H253.886V535.417H239.654V489.613H224.113Z" fill="black"/>
<path d="M296.746 493.702C294.128 497.138 292.819 501.391 292.819 506.299C292.819 511.206 294.128 515.459 296.746 518.895C299.363 522.33 302.962 523.966 307.379 523.966C311.795 523.966 315.394 522.33 318.012 518.895C320.629 515.459 321.938 511.206 321.938 506.299C321.938 501.391 320.629 497.138 318.012 493.702C315.394 490.267 311.959 488.631 307.379 488.631C302.962 488.631 299.363 490.267 296.746 493.702ZM285.785 527.728C280.55 522.166 277.77 514.969 277.77 506.299C277.77 497.628 280.387 490.431 285.785 484.869C291.02 479.307 298.218 476.362 307.215 476.362C316.212 476.362 323.41 479.143 328.645 484.869C333.88 490.431 336.497 497.628 336.497 506.299C336.497 514.969 333.88 522.166 328.645 527.728C323.41 533.29 316.212 536.235 307.215 536.235C298.218 536.235 291.184 533.454 285.785 527.728Z" fill="black"/>
<path d="M393.914 493.702C391.297 497.137 389.988 501.39 389.988 506.298C389.988 511.206 391.297 515.459 393.914 518.894C396.531 522.329 400.13 523.965 404.547 523.965C408.964 523.965 412.563 522.329 415.18 518.894C417.797 515.459 419.106 511.206 419.106 506.298C419.106 501.39 417.797 497.137 415.18 493.702C412.563 490.267 409.127 488.631 404.547 488.631C400.13 488.631 396.531 490.267 393.914 493.702ZM375.102 499.591C375.102 483.56 377.719 471.945 382.954 465.074C388.188 458.204 395.713 454.768 405.201 454.768H409.291C413.544 454.768 416.489 452.805 417.961 449.043H426.795C426.795 460.985 421.233 466.874 410.109 466.874H405.692C395.877 466.874 390.642 472.109 389.988 482.415C394.405 478.325 399.803 476.362 406.51 476.362C415.017 476.362 421.724 479.143 426.631 484.705C431.539 490.267 433.993 497.464 433.993 506.298C433.993 514.968 431.212 522.166 425.813 527.728C420.415 533.29 413.217 536.071 404.383 536.071C395.55 536.071 388.352 532.799 383.117 526.256C377.719 519.712 375.102 510.879 375.102 499.591Z" fill="black"/>
<path d="M504.827 477.344H519.059V535.253H504.827V477.344ZM462.294 523.148H470.31C475.709 523.148 478.326 521.185 478.326 517.422C478.326 513.66 475.709 511.697 470.31 511.697H462.294V523.148ZM448.062 535.417V477.507H462.294V499.592H472.764C478.817 499.592 483.724 501.227 487.323 504.499C490.922 507.771 492.721 512.188 492.721 517.586C492.721 522.984 490.922 527.401 487.323 530.673C483.724 533.945 478.817 535.58 472.764 535.58H448.062V535.417Z" fill="black"/>
<path d="M531.816 535.417V523.311C535.252 523.311 537.706 522.657 539.341 521.512C540.977 520.203 541.959 518.24 542.286 515.296L546.048 477.671H588.254V535.58H574.022V489.776H558.808L555.373 520.367C555.046 523.802 554.228 526.42 553.083 528.546C551.937 530.673 550.138 532.145 547.848 533.29C545.558 534.272 543.267 534.926 540.977 535.253C538.687 535.253 535.579 535.417 531.816 535.417Z" fill="black"/>
<path d="M621.137 493.702C618.519 497.138 617.211 501.391 617.211 506.299C617.211 511.206 618.519 515.459 621.137 518.895C623.754 522.33 627.353 523.966 631.77 523.966C636.187 523.966 639.785 522.33 642.403 518.895C645.02 515.459 646.329 511.206 646.329 506.299C646.329 501.391 645.02 497.138 642.403 493.702C639.785 490.267 636.35 488.631 631.77 488.631C627.353 488.631 623.754 490.267 621.137 493.702ZM610.34 527.728C605.105 522.166 602.324 514.969 602.324 506.299C602.324 497.628 604.942 490.431 610.34 484.869C615.575 479.307 622.772 476.362 631.77 476.362C640.767 476.362 647.965 479.143 653.199 484.869C658.434 490.431 661.052 497.628 661.052 506.299C661.052 514.969 658.434 522.166 653.199 527.728C647.965 533.29 640.767 536.235 631.77 536.235C622.772 536.235 615.575 533.454 610.34 527.728Z" fill="black"/>
<path d="M225.91 630.95V573.041H273.35V630.95H259.118V585.31H240.142V630.95H225.91Z" fill="black"/>
<path d="M306.398 589.401C303.78 592.836 302.472 597.089 302.472 601.997C302.472 606.904 303.78 611.158 306.398 614.593C309.015 618.028 312.614 619.664 317.031 619.664C321.448 619.664 325.047 618.028 327.664 614.593C330.281 611.158 331.59 606.904 331.59 601.997C331.59 597.089 330.281 592.836 327.664 589.401C325.047 585.965 321.611 584.329 317.031 584.329C312.451 584.329 309.015 585.965 306.398 589.401ZM295.438 623.427C290.203 617.865 287.422 610.667 287.422 601.997C287.422 593.327 290.039 586.129 295.438 580.567C300.672 575.005 307.87 572.061 316.867 572.061C325.865 572.061 333.062 574.842 338.297 580.567C343.532 586.129 346.149 593.327 346.149 601.997C346.149 610.667 343.532 617.865 338.297 623.427C333.062 628.989 325.865 631.933 316.867 631.933C307.87 631.933 300.672 629.152 295.438 623.427Z" fill="black"/>
<path d="M363.49 623.427C358.583 617.701 356.129 610.667 356.129 601.997C356.129 593.49 358.583 586.293 363.49 580.567C368.398 574.842 375.432 572.061 384.429 572.061C397.516 572.061 406.35 577.622 410.767 588.583L398.007 593.817C394.899 587.438 390.318 584.329 384.429 584.329C380.012 584.329 376.741 585.965 374.451 589.237C372.16 592.509 371.015 596.762 371.015 601.997C371.015 607.232 372.16 611.485 374.451 614.756C376.741 618.028 380.012 619.664 384.429 619.664C390.318 619.664 394.899 616.556 398.007 610.176L410.767 615.411C406.35 626.535 397.516 631.933 384.429 631.933C375.432 631.933 368.398 628.989 363.49 623.427Z" fill="black"/>
<path d="M417.965 630.951V618.846C421.4 618.846 423.854 618.191 425.49 617.046C427.126 615.737 428.107 613.774 428.434 610.83L432.197 573.205H474.402V631.114H460.17V585.31H444.957L441.521 615.901C441.194 619.336 440.376 621.954 439.231 624.08C438.086 626.207 436.286 627.679 433.996 628.824C431.706 629.806 429.416 630.46 427.126 630.787C424.835 630.787 421.727 630.951 417.965 630.951Z" fill="black"/>
<path d="M503.846 595.29H528.875C527.239 587.928 523.149 584.166 516.442 584.166C513.007 584.166 510.226 585.311 508.099 587.438C505.645 589.564 504.337 592.182 503.846 595.29ZM490.105 612.466C488.96 609.031 488.469 605.596 488.469 601.997C488.469 598.398 488.96 594.963 490.105 591.527C491.25 588.092 492.722 584.984 494.849 582.039C496.975 579.095 499.92 576.805 503.682 574.842C507.445 573.042 511.698 572.061 516.442 572.061C521.022 572.061 525.112 572.878 528.711 574.678C532.31 576.477 535.091 578.768 537.217 581.712C539.344 584.657 540.816 587.601 541.798 590.873C542.779 594.145 543.27 597.416 543.27 600.688V606.577H503.355C503.519 610.176 504.827 613.121 507.281 615.738C509.735 618.355 513.007 619.664 517.096 619.664C522.985 619.664 527.729 616.719 531.165 610.667L542.616 614.92C537.708 626.208 528.874 631.769 516.278 631.769C511.534 631.769 507.281 630.952 503.519 629.152C499.756 627.353 496.812 624.899 494.685 621.954C492.722 619.173 491.086 615.902 490.105 612.466Z" fill="black"/>
<path d="M564.538 622.608C564.538 619.991 565.52 617.864 567.319 616.065C569.119 614.265 571.246 613.284 573.863 613.284C576.317 613.284 578.607 614.265 580.406 616.065C582.206 617.864 583.187 620.155 583.187 622.608C583.187 625.062 582.369 627.352 580.57 628.988C578.77 630.788 576.644 631.606 574.026 631.606C571.409 631.606 569.283 630.788 567.483 628.988C565.684 627.189 564.538 625.062 564.538 622.608ZM552.27 567.316C553.251 562.245 555.541 557.992 559.467 554.556C563.393 551.121 568.137 549.485 573.863 549.485C580.243 549.485 585.314 551.121 589.076 554.556C592.839 557.828 594.802 562.409 594.802 567.971C594.802 572.224 593.493 575.495 591.039 577.949C588.586 580.239 584.496 582.53 578.934 584.656C575.335 586.129 572.718 587.437 571.409 588.419C570.1 589.4 569.446 590.709 569.446 592.181C569.446 593.49 569.773 594.308 570.591 595.126C571.409 595.78 572.391 596.107 573.372 596.107C576.48 596.107 578.443 594.308 579.752 590.873L589.731 594.635C588.422 598.561 586.459 601.669 583.514 603.959C580.733 606.25 577.298 607.395 573.372 607.395C568.465 607.395 564.538 605.923 561.43 602.978C558.322 600.033 556.85 596.271 556.85 591.691C556.85 584.983 561.267 579.912 570.1 576.804C574.354 575.168 577.298 573.696 578.77 572.224C580.243 570.915 581.061 569.279 581.061 567.316C581.061 565.353 580.406 564.044 579.098 563.063C577.789 562.081 575.99 561.591 573.863 561.591C569.119 561.591 565.847 564.208 564.375 569.279L552.27 567.316Z" fill="black"/>
<path d="M640.603 625.225V610.502L661.869 595.452L640.603 580.402V565.68L676.101 590.708V600.196L640.603 625.225ZM606.086 625.225V610.502L627.352 595.452L606.086 580.402V565.68L641.584 590.708V600.196L606.086 625.225Z" fill="black"/>
</svg>
